<svg xmlns="http://www.w3.org/2000/svg" xmlns:xlink="http://www.w3.org/1999/xlink" width="1868.153" height="870.595" viewBox="0 0 1868.153 870.595">
  <defs>
    <clipPath id="clip-blanc">
      <rect width="1868.153" height="870.595"/>
    </clipPath>
  </defs>
  <g id="blanc" clip-path="url(#clip-blanc)">
    <g id="Calque_3" data-name="Calque 3">
      <path id="Tracé_27" data-name="Tracé 27" d="M988.194,299.277c-81.545,1.01-160.941,14.039-237.511,42.724-7.071,2.648-14.489,4.84-20.057,10.435a4.092,4.092,0,0,1-4.119,1.111c-33.945-6.637-65.794-17.758-89.278-44.841-21.349-24.619-23.716-53.482-16.287-83.834,10.679-43.634,40.649-69.517,85.265-74.814,41.219-4.893,80.829,2.4,119.754,15.058,5.033,1.637,7.82.963,11.57-2.91,43.372-44.786,96.349-63.729,158.328-58.2,37.369,3.335,72.732,12.967,105.081,32.47,11.58,6.981,22.384,15,31.439,25.046,3.163,3.51,5.553,3.64,9.62,1.887,25.136-10.836,51.3-18.387,78.807-17.554,39.955,1.21,75.018,15.985,104.824,42.581,14.752,13.164,22.108,29.794,21.522,49.986-.412,14.211-.117,28.4-4.016,42.261-5.22,18.564-16.486,32.447-33.048,41.861-21.405,12.166-43.379,23.113-67.872,27.871a33.844,33.844,0,0,1-21.495-2.322,504.959,504.959,0,0,0-149.007-43.263A630.807,630.807,0,0,0,988.194,299.277Z" fill="#f50b26"/>
      <path id="Tracé_28" data-name="Tracé 28" d="M138.813,292.275a250.913,250.913,0,0,0,37.337,26.842c33.15,19.546,69.605,25.578,107.535,24.672,26.81-.641,53.352.277,79.058,9.4,35.316,12.531,59.108,43.29,60.767,80.167,1,22.18-4.6,43.033-14.478,62.822q-11.112,22.252-22.012,44.612c-2.519,5.161-6.753,2.717-9.992,1.986-17.794-4.01-35.5-8.416-53.224-12.724-35.447-8.615-70.85-17.419-106.367-25.737-6.5-1.522-7.147-3.546-4.954-9.578,8.957-24.63,16.051-49.709,15.8-76.322-.066-6.946-1.291-10.324-9.717-11.1-55.1-5.073-88.363-47.229-81.466-102.231C137.592,301.145,138.15,297.215,138.813,292.275Z" fill="#f50b26"/>
      <path id="Tracé_29" data-name="Tracé 29" d="M737.62,407.035c0-4.316.76-8.8-.127-12.92-4.94-22.985,10.336-32.832,26.978-41.155,33.292-16.649,71.614-26.756,108.323-31.983,42.87-6.1,85.059-13.077,124.214-8.049,72.62,1.424,142.384,13.527,209.687,43.575,11.5,5.135,17.427,13.971,23.531,23.5a7.685,7.685,0,0,1,.94,4.3c-.8,15.449-.762,30.939-2.537,46.346-.7,6.05-3.915,7.662-9.342,6.835-5.022-.765-5.254-5.107-9.577-8.233-.9-5.04-5.849-14.159-12.641-18.137-21.917-30.233-78.977-36.219-119.817-40.672-36.557-6.4-83.067-8.245-111.023-8.245-25.282-3.3-69.8,6.6-69.8,6.6-5.822.743-32.53,5.612-46.717,11.263-.731.292-76.947,21.714-96.517,61.892-.8.495-1.606.981-2.421,1.451-7.155,4.126-13.051.793-13.143-7.466C737.523,426.3,737.62,416.668,737.62,407.035Z" fill="#f50b26"/>
      <path id="Tracé_30" data-name="Tracé 30" d="M342.567,777.919c-10.711.013-19.809-4.03-28.907-7.27-35.693-12.712-68.874-30.025-94.9-58.26-42.321-45.918-51.631-98.925-31.378-157.413,4.89-14.122,5.517-13.88,20.559-10.252,49.761,12,99.5,24.075,149.321,35.834,5.526,1.3,7.171,2.152,4.321,8.1-12.81,26.732-24.778,53.782-30.451,83.207-6.518,33.806-4.536,66.648,9.4,98.409C341.516,772.519,342.692,774.618,342.567,777.919Z" fill="#f50b26"/>
      <path id="Tracé_31" data-name="Tracé 31" d="M1580.623,483.7v-9.18c0-48.3.133-96.6-.153-144.9-.04-6.8.991-9.6,8.715-9.169,13.6.759,27.286.413,40.926.105,4.756-.107,5.82,1.495,5.813,6q-.189,118.3.01,236.592c.008,4.891-1.08,6.62-6.3,6.483-14.182-.373-28.385-.32-42.572-.024-4.952.1-5.96-1.479-6.675-6.362-2.428-16.585-7.433-32.546-18.417-45.6-10.379-12.336-24.815-18.682-40.311-20.464-18.612-2.14-37.323-2.608-55.183,6.247-23.816,11.809-36.415,32.085-43.527,56.175-2.357,7.985-4.948,10.631-13.2,10.117-13.05-.813-26.195-.464-39.286-.1-5.729.157-7.364-1.93-6.094-7.159,7.576-31.2,20.793-59.376,45.226-81.038,18.611-16.5,40.181-26.84,65.235-29.987,20.569-2.583,40.672-1.9,60.835,3.159C1553.554,459.082,1568.25,468.046,1580.623,483.7Z" fill="#f50b26"/>
      <path id="Tracé_32" data-name="Tracé 32" d="M1579.651,725.817c-16.59,27.441-42.021,38.355-71.949,42.321-20.984,2.78-41.315,1.7-61.446-4.982-35.091-11.65-57.854-36.325-72.077-69.248-11.569-26.777-15.262-55.274-15.067-84.375.039-5.834,1.713-7.327,7.348-7.163q21.693.632,43.411.128c5.152-.112,6.577,1.477,6.329,6.469a145.561,145.561,0,0,0,9.8,61.547c10.345,26.048,27.475,46.275,56.189,51.089,26.87,4.5,53.421,1.253,74.224-19.12,13.293-13.019,18.428-30.45,22.76-48.193,3.7-15.142,1.748-30.661,4.465-45.831.714-3.985,2.009-4.942,5.6-4.9,13.924.176,27.851.306,41.775.162,4.117-.043,4.9,1.624,4.89,5.316q-.147,74.535.014,149.07c.01,3.952-1.188,5.106-5.086,5.049q-20.884-.306-41.777-.009c-3.722.046-4.578-1.228-5.615-4.849-1.486-5.187-1.024-10.213-1.143-15.3C1582.156,737.316,1582.559,731.613,1579.651,725.817Z" fill="#f50b26"/>
      <path id="Tracé_33" data-name="Tracé 33" d="M919.606,600.812c7.642,0,15.289.178,22.923-.075,3.884-.128,5.059,1.1,5.1,5.053.478,43.277-9.834,83.458-37.432,117.335-19.263,23.646-44.977,37.836-75.478,43.434-34.246,6.286-66.993,3.3-98.014-12.995-27.06-14.22-45.609-36.124-58.108-63.914-11.872-26.4-15.638-54-15.689-82.539-.01-5.935,1.289-8.109,7.655-7.844,13.624.567,27.289.518,40.927.214,5.349-.119,6.651,1.468,6.794,6.813.647,24.192,3.593,48.1,14.7,70.035,15.141,29.892,39.027,47.886,73.258,47.663,35.692-.232,61.961-19.63,75.03-53.851,6.487-16.986,10.432-34.489,9.531-52.827-.2-4.149,1.952-8.052.21-12.5-1.446-3.695,1.784-4.222,4.843-4.185,7.913.1,15.829.032,23.743.032Z" fill="#f50b26"/>
      <path id="Tracé_34" data-name="Tracé 34" d="M1268.647,602.3c7.645,0,15.3.187,22.933-.077,4.014-.138,5.048,1.357,5.02,5.187-.347,48.321-12.415,92.323-48.331,126.874-20.835,20.044-46.33,30.308-75.129,33.951-24.684,3.122-48.495.887-71.629-7.4-28.512-10.215-50.2-29.111-65.711-55.073-13.184-22.063-20.171-45.947-22.568-71.57-.863-9.23-.762-18.386-1.3-27.563-.234-3.954.6-5.887,5.295-5.779q22.105.509,44.229.1c4.944-.093,5.647,1.847,5.784,6.2.669,21.211,2.945,42.331,11.471,61.948,12.4,28.527,31.692,48.854,64.583,53.755,40.152,5.983,72.882-16.543,86.543-51.3a148.226,148.226,0,0,0,9.958-65.264c-.3-4.265,2.209-4.188,5.1-4.177,7.919.033,15.837.012,23.755.012Z" fill="#f50b26"/>
      <path id="Tracé_35" data-name="Tracé 35" d="M566.051,535.735c0,9.006-.238,18.021.1,27.014.181,4.847-1.039,6.757-6.3,6.622q-20.868-.538-41.755-.032c-5.493.131-6.854-1.769-6.754-7.035.319-16.914-.481-33.867.361-50.745.45-9.041-2.726-10.918-10.884-10.406-10.6.666-21.286-.059-31.921.263-4.791.145-6.749-.878-6.534-6.2.439-10.9.453-21.84-.005-32.737-.227-5.409,1.862-6.259,6.573-6.136,11.456.3,22.938-.221,34.384.224,6.141.238,8.679-1.059,8.32-7.923a350.19,350.19,0,0,1-.068-36.008c1.171-23.1,5.031-45.612,18.691-65.141,13.886-19.853,33.307-29.426,57.264-32,13.852-1.487,27.166.357,40.71,1.782,5.684.6,8.027,2.567,7.768,8.574a264.758,264.758,0,0,0,.068,31.092c.579,7.739-3.664,8.588-8.785,7.147-6.5-1.83-12.943-1.044-19.411-1.358-24.533-1.19-35.792,12.329-39.987,32.659-3.88,18.8-1.125,37.973-1.85,56.965-.188,4.92,3.307,4.052,6.173,4.059,15.558.038,31.12.235,46.671-.1,5.4-.116,7.751.879,7.433,6.98a303.7,303.7,0,0,0,0,31.1c.306,6.045-1.959,7.175-7.414,7.039-14.184-.352-28.4.319-42.569-.29-7.866-.338-11.46,1.192-10.463,10.052C566.767,519.281,566.05,527.548,566.051,535.735Z" fill="#f50b26"/>
      <path id="Tracé_36" data-name="Tracé 36" d="M1293.2,569.5c-17.744,0-34.922-.044-52.1.033-4.013.018-5.34-1.722-6.325-5.662-4.5-17.992-12.294-34.438-25.912-47.415-30.728-29.285-82.506-28.79-112.156,1.607-12.059,12.364-18.695,27.846-23.017,44.319-1.437,5.475-3.953,7.527-9.933,7.3-14.176-.546-28.387-.2-42.583-.164-3.833.009-6.156.633-4.741-5.535,8.847-38.578,27.439-70.626,60.927-92.7,17.151-11.3,36.328-17.375,56.887-19.892,22.523-2.759,44.44-1.652,66.2,4.941,30.4,9.208,53.572,27.487,70.469,54.189C1282.184,528.325,1289.1,547.711,1293.2,569.5Z" fill="#f50b26"/>
      <path id="Tracé_37" data-name="Tracé 37" d="M944.132,569.5c-17.677,0-34.85-.048-52.023.034-4.117.019-5.145-1.963-6.143-5.8-4.665-17.923-12.436-34.393-26.09-47.335-30.783-29.178-82.308-28.742-112.056,1.606-12.079,12.324-18.732,27.793-23.072,44.237-1.448,5.483-3.848,7.6-9.861,7.363-13.9-.548-27.835-.254-41.754-.139-4.694.039-7.106.115-5.52-6.473,9.173-38.121,27.6-70.024,60.915-91.816,17.153-11.218,36.3-17.334,56.844-19.782,22.226-2.649,43.8-1.549,65.386,4.806,31.109,9.158,54.554,27.727,71.583,54.956C933.352,528.764,940.17,547.937,944.132,569.5Z" fill="#f50b26"/>
      <path id="Tracé_38" data-name="Tracé 38" d="M315.79,327.372a54.774,54.774,0,0,1-55.5-55.473c.207-31.595,26.509-55.745,56.088-55.5,30.124.25,56.451,24.167,56.071,55.9C372.119,299.606,351.6,328.9,315.79,327.372Z" fill="#f50b26"/>
      <path id="Tracé_39" data-name="Tracé 39" d="M566.05,680.92c0,24.287-.179,48.576.132,72.859.074,5.77-.855,8.139-7.405,7.859-13.622-.583-27.29-.367-40.93-.074-4.785.1-6.55-.853-6.526-6.183q.336-74.906,0-149.812c-.024-5.543,1.729-6.8,6.9-6.66,13.638.374,27.3.538,40.931.113,6-.187,7.079,1.93,7.016,7.4C565.89,631.254,566.05,656.088,566.05,680.92Z" fill="#f50b26"/>
    </g>
  </g>
</svg>
