<?xml version="1.0" encoding="UTF-8" standalone="no"?>
<svg
   xmlns:dc="http://purl.org/dc/elements/1.1/"
   xmlns:cc="http://creativecommons.org/ns#"
   xmlns:rdf="http://www.w3.org/1999/02/22-rdf-syntax-ns#"
   xmlns:svg="http://www.w3.org/2000/svg"
   xmlns="http://www.w3.org/2000/svg"
   xmlns:sodipodi="http://sodipodi.sourceforge.net/DTD/sodipodi-0.dtd"
   xmlns:inkscape="http://www.inkscape.org/namespaces/inkscape"
   version="1.1"
   id="svg2"
   xml:space="preserve"
   width="5333.3335"
   height="5333.3335"
   viewBox="0 0 5333.3335 5333.3335"
   sodipodi:docname="categorie.svg"
   inkscape:version="1.0.2 (e86c870879, 2021-01-15)"><metadata
     id="metadata8"><rdf:RDF><cc:Work
         rdf:about=""><dc:format>image/svg+xml</dc:format><dc:type
           rdf:resource="http://purl.org/dc/dcmitype/StillImage" /><dc:title></dc:title></cc:Work></rdf:RDF></metadata><defs
     id="defs6" /><sodipodi:namedview
     pagecolor="#ffffff"
     bordercolor="#666666"
     borderopacity="1"
     objecttolerance="10"
     gridtolerance="10"
     guidetolerance="10"
     inkscape:pageopacity="0"
     inkscape:pageshadow="2"
     inkscape:window-width="1600"
     inkscape:window-height="821"
     id="namedview4"
     showgrid="false"
     inkscape:zoom="0.07464886"
     inkscape:cx="4370.8102"
     inkscape:cy="4315.2949"
     inkscape:window-x="0"
     inkscape:window-y="27"
     inkscape:window-maximized="1"
     inkscape:current-layer="g10" /><g
     id="g10"
     inkscape:groupmode="layer"
     inkscape:label="ink_ext_XXXXXX"
     transform="matrix(1.3333333,0,0,-1.3333333,0,5333.3333)"><g
       id="g12"
       transform="matrix(0.1,0,0,0.1,0.92107605,-28.879433)"><path
         d="M 0,0 H 40000 V 40000 H 0 Z"
         style="fill:#67e9ff;fill-opacity:1;fill-rule:nonzero;stroke:none"
         id="path14" /><path
         d="m 5854.95,8583.1 c 596.05,83.2 1192.1,103.1 1788.14,113.3 298.02,5.6 596.04,6.7 894.09,5.3 298.02,0.4 596.05,-3.4 894.07,-6.1 596.05,-4.9 1192.05,-6.2 1788.15,-5.4 h 1788.1 7152.7 7152.5 3576.4 l 894,0.3 447.1,3.9 447,6.6 c 298,3.2 596.1,-1.2 894.1,-16 298,-16.1 596,-41.4 894.1,-101.9 29.5,-6 48.6,-34.8 42.6,-64.4 -4.5,-22.1 -21.8,-38.4 -42.6,-42.7 -298.1,-60.4 -596.1,-85.7 -894.1,-101.9 -298,-14.7 -596.1,-19.2 -894.1,-16 l -447,6.7 -447.1,3.8 -894,0.3 h -3576.4 -7152.5 -7152.7 -1788.1 c -596.1,0.8 -1192.1,-0.4 -1788.15,-5.3 -298.02,-2.7 -596.05,-6.6 -894.07,-6.2 -298.05,-1.4 -596.07,-0.3 -894.09,5.3 -596.04,10.3 -1192.09,30.2 -1788.14,113.3 -29.58,4.1 -50.22,31.5 -46.09,61 3.42,24.5 22.78,42.9 46.09,46.1"
         style="fill:#5e2323;fill-opacity:1;fill-rule:nonzero;stroke:none"
         id="path16" /><path
         d="m 32820.6,25798.6 c 0,60.2 -134.3,112.2 -329.9,137.4 -68.3,8.8 -121.7,62.2 -130.5,130.5 -25.3,195.6 -77.3,330 -137.4,330 -60.2,0 -112.2,-134.4 -137.4,-330 -8.9,-68.3 -62.2,-121.7 -130.5,-130.5 -195.6,-25.2 -330,-77.2 -330,-137.4 0,-60.2 134.4,-112.1 330,-137.4 68.3,-8.8 121.6,-62.2 130.5,-130.5 25.2,-195.6 77.2,-330 137.4,-330 60.1,0 112.1,134.4 137.4,330 8.8,68.3 62.2,121.7 130.5,130.5 195.6,25.3 329.9,77.2 329.9,137.4"
         style="fill:#ffffff;fill-opacity:1;fill-rule:nonzero;stroke:none"
         id="path18" /><path
         d="m 6191.2,20093.9 c 0,60.2 -134.37,112.2 -329.96,137.4 -68.29,8.9 -121.67,62.2 -130.49,130.5 -25.26,195.6 -77.24,330 -137.41,330 -60.17,0 -112.15,-134.4 -137.41,-330 -8.82,-68.3 -62.19,-121.6 -130.48,-130.5 -195.6,-25.2 -329.96,-77.2 -329.96,-137.4 0,-60.1 134.36,-112.1 329.96,-137.4 68.29,-8.8 121.66,-62.2 130.48,-130.5 25.26,-195.6 77.24,-329.9 137.41,-329.9 60.17,0 112.15,134.3 137.41,329.9 8.82,68.3 62.2,121.7 130.49,130.5 195.59,25.3 329.96,77.3 329.96,137.4"
         style="fill:#ffffff;fill-opacity:1;fill-rule:nonzero;stroke:none"
         id="path20" /><path
         d="m 34750,24062.4 c 0,46.6 -104.1,86.9 -255.7,106.5 -53,6.8 -94.3,48.2 -101.2,101.1 -19.5,151.6 -59.8,255.7 -106.5,255.7 -46.6,0 -86.9,-104.1 -106.5,-255.7 -6.8,-52.9 -48.2,-94.3 -101.1,-101.1 -151.6,-19.6 -255.7,-59.9 -255.7,-106.5 0,-46.7 104.1,-87 255.7,-106.5 52.9,-6.9 94.3,-48.2 101.1,-101.2 19.6,-151.6 59.9,-255.7 106.5,-255.7 46.7,0 87,104.1 106.5,255.7 6.9,53 48.2,94.3 101.2,101.2 151.6,19.5 255.7,59.8 255.7,106.5"
         style="fill:#ffffff;fill-opacity:1;fill-rule:nonzero;stroke:none"
         id="path22" /><path
         d="m 21077.1,30794.6 c 0,46.6 -104.2,86.9 -255.8,106.5 -52.9,6.8 -94.3,48.2 -101.1,101.1 -19.6,151.6 -59.9,255.7 -106.5,255.7 -46.6,0 -86.9,-104.1 -106.5,-255.7 -6.8,-52.9 -48.2,-94.3 -101.1,-101.1 -151.6,-19.6 -255.8,-59.9 -255.8,-106.5 0,-46.7 104.2,-86.9 255.8,-106.5 52.9,-6.9 94.3,-48.2 101.1,-101.2 19.6,-151.5 59.9,-255.7 106.5,-255.7 46.6,0 86.9,104.2 106.5,255.7 6.8,53 48.2,94.3 101.1,101.2 151.6,19.6 255.8,59.8 255.8,106.5"
         style="fill:#ffffff;fill-opacity:1;fill-rule:nonzero;stroke:none"
         id="path24" /><path
         d="m 34379.7,26059.6 c 0,-139.4 -112.9,-252.4 -252.3,-252.4 -139.3,0 -252.3,113 -252.3,252.4 0,139.3 113,252.3 252.3,252.3 139.4,0 252.3,-113 252.3,-252.3"
         style="fill:#ffffff;fill-opacity:1;fill-rule:nonzero;stroke:none"
         id="path26" /><path
         d="m 22467,29699.3 c 0,-139.3 -113,-252.3 -252.3,-252.3 -139.4,0 -252.3,113 -252.3,252.3 0,139.4 112.9,252.4 252.3,252.4 139.3,0 252.3,-113 252.3,-252.4"
         style="fill:#ffffff;fill-opacity:1;fill-rule:nonzero;stroke:none"
         id="path28" /><path
         d="m 7086.58,21573.8 c 0,-139.3 -112.96,-252.3 -252.31,-252.3 -139.35,0 -252.32,113 -252.32,252.3 0,139.4 112.97,252.4 252.32,252.4 139.35,0 252.31,-113 252.31,-252.4"
         style="fill:#ffffff;fill-opacity:1;fill-rule:nonzero;stroke:none"
         id="path30" /><path
         d="m 21913,17629 c 30.9,-288.9 -176.5,-561.6 -463.2,-608.5 -233.4,-38.2 -454.5,73.2 -568.3,262.5 -22.7,37.7 -76.9,30.2 -87.8,-12.2 -58.5,-214.4 -242.8,-382.7 -478.7,-407.6 -301.1,-32 -581,194.5 -613,495.6 -21.8,209.1 75,404.2 237.9,516.3 120.2,82.8 177.4,231.5 157.4,376 l -95.3,687.4 1145.6,158.8 92.4,-666.4 c 21.2,-152.7 126.9,-283.4 274.9,-326.4 209.6,-61.2 373.6,-242.8 398.1,-475.5"
         style="fill:#ffffff;fill-opacity:1;fill-rule:nonzero;stroke:none"
         id="path32" /><path
         d="m 20031.2,18916.4 91.8,-661.7 c 21.9,-158 -44.3,-315.4 -168.4,-400.9 -160.1,-110.3 -247.1,-298.9 -226.8,-492.3 30.4,-286.6 297.7,-502.8 584.4,-472.5 219.2,23.1 398.3,175.7 456.5,388.6 7.6,29.5 30.8,50.6 60.5,54.9 29.7,4.6 58.4,-9.5 74.5,-36.2 112.7,-187.4 325.3,-285.7 541.9,-250.2 273,44.6 471.1,304.9 441.6,580.1 v 0.1 c -22.6,214.7 -171.5,392.6 -379.6,453.3 -155.1,45.1 -270.2,181.6 -293.3,347.8 l -88.8,640.7 -1094.3,-151.7 m 227.3,-2082.1 c -291.1,0 -551,227.1 -582.3,521.8 -22.2,212.3 73.2,419.4 249,540.3 108.2,74.6 165.6,212.4 146.4,351.1 l -98.9,713.1 1197.1,165.9 95.9,-692 c 20.2,-146 120.9,-265.8 256.5,-305.2 228.2,-66.5 391.7,-261.9 416.5,-497.5 32.4,-302.2 -185.1,-587.9 -484.7,-636.9 -237.8,-38.7 -471,69 -594.7,274.7 -5.2,8.6 -14.1,12.9 -22.7,11.6 -4.2,-0.6 -14.4,-3.5 -17.8,-16.9 -63.9,-234 -260.6,-401.5 -501.1,-426.9 -19.8,-2.1 -39.6,-3.1 -59.2,-3.1"
         style="fill:#5e2323;fill-opacity:1;fill-rule:nonzero;stroke:none"
         id="path34" /><path
         d="m 20918.1,17238.5 -0.6,-2.1 0.6,2.1 m -771.2,1590.3 77.7,-560.1 c 27.1,-196 -56,-392.1 -211.8,-499.4 -129.2,-89 -199.3,-241.1 -183,-397.2 24.6,-231 240,-405.8 471.6,-381.1 176.9,18.7 321.4,141.8 368.3,313.6 17.5,67.8 74.5,119.3 144.7,129.5 70.5,10.4 140,-23.1 177.2,-84.9 90.9,-151.3 262.9,-230.4 437.5,-201.8 220.1,35.9 379.9,245.8 356.1,467.9 l -0.1,0.3 c -18.1,173.1 -138.3,316.5 -306.2,365.5 -193.8,56.3 -337.6,226 -366.2,432.2 l -74.7,539.1 -891.1,-123.6 m 112,-2097.1 c -342.3,0 -647.8,267 -684.7,613.5 -26.1,249.9 86.1,493.4 292.8,635.7 76.5,52.8 117,151.9 103,252.6 l -95.3,687.3 c -4.7,33.8 4.2,68 24.8,95.2 20.5,27.2 51.1,45.1 84.9,49.8 l 1145.6,158.8 c 70.4,9.7 135.1,-39.4 144.9,-109.6 l 92.4,-666.4 c 14.7,-106 86.7,-192.6 183.5,-220.7 268.5,-78.3 460.7,-308 490,-585.2 38,-355.4 -217.8,-691.4 -570.2,-749 -228.8,-37.5 -454.1,40.8 -608.2,203.1 -105.1,-200.4 -302.2,-336.9 -533.9,-361.4 -23.3,-2.5 -46.5,-3.7 -69.6,-3.7"
         style="fill:#5e2323;fill-opacity:1;fill-rule:nonzero;stroke:none"
         id="path36" /><path
         d="m 21322.8,20154.6 91.1,-656.8 c 27.3,-197 -110.3,-378.9 -307.3,-406.2 l -1068.7,-148.1 c -197,-27.3 -378.8,110.2 -406.2,307.3 l -91,656.7 c -39.8,286.9 -183.1,546.6 -394.9,744.1 -1076.2,1003.3 -1566.8,2917.8 -562.8,4076.9 593.4,685.1 1592.5,823.6 2350,325.8 1281.4,-842.3 1330.1,-2818 567.4,-4076.3 -150.1,-247.6 -217.3,-536.6 -177.6,-823.4"
         style="fill:#d46051;fill-opacity:1;fill-rule:nonzero;stroke:none"
         id="path38" /><path
         d="m 19939.1,25329.3 c -496.6,0 -984.9,-211.8 -1336.6,-617.8 -993.5,-1147 -501.7,-3050.2 561,-4041 220.4,-205.4 363.4,-475.2 402.9,-759.4 l 91,-656.8 c 25.3,-182.5 194,-310.6 377,-285.2 l 1068.6,148.2 c 182.6,25.3 310.5,194.4 285.2,377 l -91.1,656.7 c -39.4,284.3 24.9,582.7 181.1,840.4 753.2,1242.5 708.6,3207.7 -559.5,4041.2 -303.7,199.7 -643.5,296.7 -979.6,296.7 m 49.1,-6415.2 c -189.5,0 -355.4,140.1 -382.2,333.1 l -91,656.8 c -37.8,272.5 -175.2,531.3 -386.8,728.6 -1080.1,1006.9 -1577.6,2943.6 -564.8,4112.9 606.8,700.5 1609.4,839.5 2383.8,330.4 1292.7,-849.6 1340.8,-2848.7 575.4,-4111.3 -150.1,-247.6 -211.9,-534 -174.1,-806.4 l 91.1,-656.8 c 29.2,-210.9 -118.6,-406.2 -329.5,-435.4 l -1068.6,-148.2 c -17.9,-2.5 -35.7,-3.7 -53.3,-3.7"
         style="fill:#5e2323;fill-opacity:1;fill-rule:nonzero;stroke:none"
         id="path40" /><path
         d="m 19939.4,25226.4 c -467.9,0 -928,-199.6 -1259.3,-582 -955.4,-1103 -475.1,-2940 553.4,-3898.8 237.5,-221.5 391.8,-512.9 434.5,-820.4 l 91,-656.8 c 17.6,-126.5 134.9,-215.3 261.3,-197.6 l 1068.6,148.1 c 126.6,17.6 215.2,134.8 197.7,261.3 l -91.1,656.8 c -42.6,307.5 26.6,629.8 195,907.6 728.9,1202.5 691.3,3100.8 -528.1,3902.3 -286.2,188.1 -606.4,279.5 -923,279.5 m 48.7,-6414.9 c -239.9,0 -449.8,177.4 -483.7,421.6 l -91,656.8 c -34.6,249.2 -160.7,486.3 -355.2,667.7 -1114.2,1038.7 -1623.4,3041.7 -572.4,4255 630.5,728 1712.8,878.1 2517.8,349.1 1341.3,-881.7 1396.3,-2947.6 606.7,-4250.3 -137.9,-227.5 -194.7,-489.9 -160.2,-739.1 l 91.1,-656.8 c 37,-266.9 -150.1,-514.2 -417,-551.2 l -1068.6,-148.1 c -22.7,-3.2 -45.2,-4.7 -67.5,-4.7"
         style="fill:#5e2323;fill-opacity:1;fill-rule:nonzero;stroke:none"
         id="path42" /><path
         d="m 18703,26227 -1151.9,-736.4 130.6,-189.5 c 336.5,-489.9 171.3,-1164 -354.1,-1442.3 l -39,-20.7 c -443.6,-235.1 -992.2,-103.3 -1280.2,307.6 l -791,1126.9 c -129.1,170 -204.7,363.4 -228.8,560.1 -70.9,570.1 315.4,1098.5 870.9,1244 l 1195.2,313.1 c 206.9,54.1 334.3,261.5 288.5,469.8 L 16942,29042 c -76,223.2 212.1,387.1 365.4,207.6 l 1557.1,-1822.2 c 328.4,-364.1 251.9,-935.9 -161.5,-1200.4"
         style="fill:#e36836;fill-opacity:1;fill-rule:nonzero;stroke:none"
         id="path44" /><path
         d="m 17206.8,25838 c 4.4,68.2 40,133.5 102.1,173.3 l 958.1,612.5 c 296.1,189.4 419.4,536.6 344.7,852.2 l 133.4,-156.2 c 125.1,-138.5 182.5,-324 157.6,-508.8 -24.8,-184.7 -129.2,-348.2 -286.2,-448.6 l -787,-503.2 c -60.1,3 -120.5,4.5 -181,4.5 -146.7,0 -294.4,-8.6 -441.7,-25.7"
         style="fill:#bb5330;fill-opacity:1;fill-rule:nonzero;stroke:none"
         id="path46" /><path
         d="m 15410.9,25922 c -87.8,43 -177,82.6 -267.1,118.5 32.2,408.4 331.9,769.6 756.4,880.8 l 1195.1,313.1 c 291.6,76.1 469.4,366 404.7,659.7 -1.2,5.8 -2.8,11.5 -4.7,17.1 l -401.2,1182.7 c -9.4,27.6 -1.3,48.8 24,63.2 10,5.7 19.5,8.6 28.6,8.6 14.1,0 27,-6.8 38.6,-20.4 l 175,-204.8 c 2,-10.9 4.9,-22 8.7,-33.2 l 401.1,-1182.5 c 45.9,-208.3 -81.5,-415.7 -288.4,-469.8 l -1195.2,-313.1 c -481.8,-126.2 -836.2,-540.3 -875.6,-1019.9"
         style="fill:#f2bba4;fill-opacity:1;fill-rule:nonzero;stroke:none"
         id="path48" /><path
         d="m 18703.1,26227 h 0.4 -0.4 m -1556.4,2938.7 c -9.1,0 -18.6,-2.9 -28.6,-8.6 -25.3,-14.4 -33.4,-35.6 -24,-63.2 l 401.2,-1182.7 c 1.9,-5.6 3.5,-11.3 4.7,-17.1 64.7,-293.7 -113.1,-583.6 -404.7,-659.7 l -1195.1,-313.1 c -488.7,-128 -812,-587.4 -752.2,-1068.8 21.3,-173.9 89.5,-340.8 197.3,-482.8 1.3,-1.6 2.4,-3.2 3.6,-4.8 l 791,-1126.9 c 241,-343.8 702.5,-454.7 1073.5,-258 l 38.9,20.7 c 210,111.2 362.8,307.3 419.5,538 56.7,230.8 12,475.5 -122.5,671.5 l -130.5,189.3 c -24.7,35.9 -33.8,80.2 -25.2,122.9 8.7,42.7 34.3,80.1 71,103.6 l 1151.9,736.4 c 157,100.4 261.4,263.9 286.2,448.6 24.9,184.8 -32.5,370.3 -157.6,508.8 l -1559.8,1825.5 c -11.6,13.6 -24.5,20.4 -38.6,20.4 m -322.4,-5603.8 c -366.5,0 -724.9,174.1 -947.5,491.6 l -789.2,1124.4 c -141.1,186.7 -230.4,406.3 -258.5,635.3 -79.6,640.2 345.9,1250.3 989.7,1418.9 l 1195.2,313.1 c 121.5,31.8 196.6,150.4 173.8,272.2 l -397.9,1173 c -58.7,172.3 10.9,355.8 169.2,446 158.5,90.2 352,56.3 470.5,-82.5 l 1557,-1822.1 c 185.5,-205.6 272,-485.1 234.5,-763.7 -37.5,-278.4 -194.8,-524.9 -431.5,-676.4 v 0 l -1011.9,-646.9 36.2,-52.6 c 186.6,-271.5 248.4,-610.5 169.9,-930.2 -78.5,-319.5 -290.3,-591.2 -581,-745.2 l -38.9,-20.6 c -171.2,-90.8 -356.5,-134.3 -539.6,-134.3"
         style="fill:#5e2323;fill-opacity:1;fill-rule:nonzero;stroke:none"
         id="path50" /><path
         d="m 17637.6,25355.2 -861.4,-359.9 688.4,630.7 c 66.4,60.8 169.6,56.3 230.4,-10.1 60.8,-66.4 56.3,-169.6 -10.1,-230.4 -14.1,-13 -30.6,-23.2 -47.3,-30.3"
         style="fill:#5e2323;fill-opacity:1;fill-rule:nonzero;stroke:none"
         id="path52" /><path
         d="m 15259.1,25093 c -36.5,0 -72.8,15.5 -98.3,45.6 -15.5,18.4 -30.4,36.6 -44.6,54.7 -43.7,55.9 -33.9,136.7 22,180.5 56,43.7 136.7,33.8 180.4,-22 12.3,-15.7 25.2,-31.5 38.7,-47.4 45.8,-54.3 38.9,-135.4 -15.4,-181.1 -24.1,-20.4 -53.5,-30.3 -82.8,-30.3"
         style="fill:#5e2323;fill-opacity:1;fill-rule:nonzero;stroke:none"
         id="path54" /><path
         d="m 15974.4,25738.3 c -31.4,0 -60.2,12.3 -86.5,40.1 -120.6,127.6 -27,411.9 209.1,635.1 159,150.3 342.1,234.6 481.5,234.6 67.6,0 125,-19.8 164.3,-61.5 120.7,-127.5 -87.4,-290.8 -323.5,-514 -184.7,-174.7 -331.9,-334.3 -444.9,-334.3"
         style="fill:#e9865e;fill-opacity:1;fill-rule:nonzero;stroke:none"
         id="path56" /><path
         d="m 21451,27054.6 c 265,119.4 588.7,7.2 722.5,-250.7 108.9,-209.9 71.9,-454.7 -72.5,-621.8 -28.8,-33.3 -4.8,-82.4 38.9,-79.6 222,11.1 439.2,-111.6 536.4,-328.1 124.1,-276.1 -4,-612.6 -280.2,-736.8 -191.9,-85.8 -407.4,-54.5 -564.7,65.4 -116.1,88.4 -275.2,96.5 -406.3,32.5 l -623.6,-304.6 -507.5,1039.3 604.5,295.3 c 138.5,67.6 229.8,208.7 224.6,362.8 -7.1,218.2 114.4,430.6 327.9,526.3"
         style="fill:#ffffff;fill-opacity:1;fill-rule:nonzero;stroke:none"
         id="path58" /><path
         d="m 20859.6,25078.1 -102.7,210.3 472,230.5 c 57,27.9 119.2,42.2 180.9,42.2 71.7,0 142.7,-19.4 203.7,-59.2 -295.7,-55 -561.1,-206.6 -753.9,-423.8 m 1696.2,396.3 -238.6,18.8 c 87,70.1 150,164.9 183.1,269.5 11,-17.1 20.9,-35.1 29.4,-54.1 33,-73.3 41.7,-154.5 26.1,-234.2"
         style="fill:#cebdbd;fill-opacity:1;fill-rule:nonzero;stroke:none"
         id="path60" /><path
         d="m 21451.1,27054.6 h 0.4 -0.4 m 681.9,-791.7 c -1.1,0 -2.2,0 -3.2,-0.1 1,0 2.1,0.1 3.2,0.1 m -1624.2,-466.5 366.6,-750.6 479.2,234 c 188.7,92.2 414.1,72.9 574.1,-49 115.5,-88 269.4,-105.8 401.8,-46.5 94.2,42.3 167.4,121.2 205.7,221.8 38.2,100.7 35.9,208.1 -6.5,302.5 -67.3,150.1 -217.2,241.8 -381.7,233.4 -83,-5.4 -161.1,39.8 -198.4,115 -37.5,75.3 -25.8,165.7 29.8,230 106.8,123.7 127,297.4 51.5,442.9 -95,183.1 -325.7,263.1 -513.8,178.3 l -0.3,-0.1 c -146.9,-65.9 -238.5,-212.9 -233.1,-374.5 7.2,-214.4 -116.3,-415.6 -314.7,-512.5 l -460.2,-224.7 m 292.7,-1126.1 c -17.6,0 -35.2,2.9 -52.2,8.7 -40.3,13.9 -73.4,43.1 -92.1,81.4 l -507.6,1039.3 c -38.9,79.7 -5.8,175.9 73.9,214.8 l 604.5,295.3 c 84.7,41.4 137.6,125 134.6,213.1 -9.6,292.7 156.3,558.9 422.7,678.3 341.2,153.5 758.5,8.5 930.7,-323.3 104.9,-202 107.5,-434.4 15.4,-632.7 215.6,-49.6 397.6,-196 491.4,-405 77.6,-172.6 82.5,-367.4 13.7,-548.3 -68.8,-180.8 -201.8,-323.1 -374.5,-400.8 -240.2,-107.4 -519,-75.2 -728,84.1 -64.3,49 -157.8,55.2 -238.4,16 l -623.6,-304.6 c -22.1,-10.8 -46.2,-16.3 -70.5,-16.3"
         style="fill:#5e2323;fill-opacity:1;fill-rule:nonzero;stroke:none"
         id="path62" /><path
         d="m 19234.7,25707.5 595.8,291 c 178.7,87.3 394.3,13.2 481.6,-165.5 l 473.5,-969.4 c 87.3,-178.8 13.2,-394.4 -165.6,-481.7 l -595.8,-291 c -260.1,-127.1 -462.4,-344.2 -584.1,-606.9 -618.4,-1335.1 -2285.1,-2397.4 -3699.1,-1804.1 -835.8,350.7 -1278.5,1257 -1041.2,2131.8 401.5,1480 2263.9,2141.3 3697.1,1808.3 282,-65.6 577.6,-39.5 837.8,87.5"
         style="fill:#e36836;fill-opacity:1;fill-rule:nonzero;stroke:none"
         id="path64" /><path
         d="m 19504.5,23882.2 h -424.4 c 11.2,18 22.2,36.1 32.9,54.2 147.6,249 370.8,444.2 642.6,544.5 l 622.1,228.9 c 97.5,35.7 170.2,109.1 207.7,197.7 l 55.9,-114.4 c 5,-10.3 9,-20.8 12.1,-31.4 -31.7,-69.6 -57.3,-142.9 -76.1,-219 -8.6,-6.2 -17.9,-11.7 -27.8,-16.5 l -595.8,-291 c -171.3,-83.7 -324.2,-204.6 -449.2,-353"
         style="fill:#bb5330;fill-opacity:1;fill-rule:nonzero;stroke:none"
         id="path66" /><path
         d="m 16479.4,25148.6 c -48,49.8 -97.6,98.3 -148.6,145.4 410.5,165.2 863,250 1305.6,250 247.5,0 492,-26.6 724.1,-80.5 111.2,-25.8 223.7,-38.6 335.1,-38.6 213,0 422,46.7 609.6,138.3 l 595.8,291 c 28,13.7 57.8,20.2 87.1,20.2 73.9,0 145.1,-41.2 179.7,-111.9 l 17,-34.9 c -7.3,0.5 -14.7,0.7 -22.1,0.7 -53,0 -106.7,-11.7 -157.5,-36.5 l -595.6,-290.8 c -169.1,-82.5 -352.9,-122.6 -538.2,-122.6 -100.2,0 -200.9,11.7 -300,34.8 -243.5,56.6 -499.5,84.5 -758.5,84.5 -451.4,0 -912.2,-84.6 -1333.5,-249.1"
         style="fill:#f2bba4;fill-opacity:1;fill-rule:nonzero;stroke:none"
         id="path68" /><path
         d="m 17636.4,25544 c -1197.7,0 -2468.9,-621.8 -2781.5,-1774.3 -217.9,-803.1 181,-1619.7 948.3,-1941.7 1328.6,-557.4 2906.3,460.9 3491.2,1723.5 139.6,301.5 373.8,544.3 659.3,683.7 l 595.8,291 c 98.9,48.3 140,168 91.8,266.9 l -473.5,969.4 c -48.3,98.8 -168.2,139.8 -266.8,91.7 l -595.8,-291 c -285.6,-139.5 -621.1,-174.9 -944.7,-99.7 -232.1,53.9 -476.6,80.5 -724.1,80.5 m -1056.5,-4191.4 c -303.7,0 -607.4,56 -901,179.2 -902.8,378.8 -1390.4,1377 -1134.1,2322 425.1,1566.8 2390.6,2270.6 3888.5,1922.6 251.8,-58.6 511.4,-31.7 730.8,75.5 l 595.8,291 c 258,126.1 570.5,18.6 696.6,-239.4 l 473.5,-969.4 c 126,-258.1 18.6,-570.6 -239.4,-696.6 l -595.8,-290.9 c -219.5,-107.2 -400.2,-295.5 -508.9,-530.1 -519.7,-1121.9 -1761.3,-2063.9 -3006,-2063.9"
         style="fill:#5e2323;fill-opacity:1;fill-rule:nonzero;stroke:none"
         id="path70" /><path
         d="m 17150.6,24104.6 c -70.3,191 -163.6,374.4 -275.8,548 20.5,11.3 41.6,22.2 63.1,32.6 178.3,86.8 358.6,129.5 510.5,129.5 174.4,0 311.4,-56.2 365.2,-166.8 100.7,-207 -223.7,-329.4 -606.6,-515.7 -19,-9.2 -37.8,-18.5 -56.4,-27.6"
         style="fill:#e9865e;fill-opacity:1;fill-rule:nonzero;stroke:none"
         id="path72" /><path
         d="m 24363.7,23623.9 -1330,-317.2 61.1,-221.9 c 157,-573.3 -220.5,-1155.7 -808.1,-1246 l -43.7,-6.8 c -496.2,-76.3 -971,228.4 -1108.2,711.1 l -376.9,1324.2 c -66.1,203 -74,410.5 -32.1,604.2 120.2,561.7 658.7,933.9 1231.1,888.9 l 1231.8,-96.9 c 213.2,-16.9 401.6,137.2 426.7,349 l 9.6,1248.6 c 1.5,235.7 327.5,296 413.3,76 l 872.1,-2232.5 c 190.6,-451.8 -69.4,-966.8 -546.7,-1080.7"
         style="fill:#e36836;fill-opacity:1;fill-rule:nonzero;stroke:none"
         id="path74" /><path
         d="m 24505,23852.9 c -65.5,19.1 -134.7,29.3 -206.3,29.3 h -1305 l 1088.4,259.6 c 342,81.7 572.4,369.1 605.5,691.7 l 74.8,-191.3 c 72.5,-172 65.9,-366 -18.4,-532.4 -54.5,-107.8 -137.8,-196.3 -239,-256.9"
         style="fill:#bb5330;fill-opacity:1;fill-rule:nonzero;stroke:none"
         id="path76" /><path
         d="m 21078.3,23882.2 h -157.6 l -8.3,29.1 c -0.6,1.9 -1.1,3.8 -1.8,5.7 -55.2,169.5 -64.8,349.6 -27.7,520.9 95.9,448.2 508.8,765.5 978.9,765.5 27.4,0 54.9,-1 82.5,-3.2 l 1231.7,-96.8 c 15.4,-1.3 30.7,-1.9 45.9,-1.9 281,0 519.4,208.7 553.1,492.1 0.7,5.9 1.1,11.8 1.1,17.7 l 9.5,1248.8 c 0.2,29.2 14.8,46.6 43.5,51.9 4.6,0.8 8.9,1.3 13.1,1.3 21.8,0 37.5,-11.5 46.4,-34.6 l 114.6,-293.1 c -0.7,-6.8 -1,-13.8 -1.1,-20.9 l -9.5,-1248.6 c -23.9,-201.1 -195.1,-350.2 -394.8,-350.2 -10.6,0 -21.2,0.4 -31.9,1.2 l -1231.8,96.9 c -31.4,2.4 -62.7,3.7 -93.8,3.7 -536.5,0 -1023.7,-361.7 -1137.3,-892.6 -20.6,-95 -29.1,-193.4 -24.7,-292.9"
         style="fill:#f2bba4;fill-opacity:1;fill-rule:nonzero;stroke:none"
         id="path78" /><path
         d="m 24363.7,23623.8 h 0.4 -0.4 m -2501.9,1579.6 c -470.1,0 -883,-317.3 -978.9,-765.5 -37.1,-171.3 -27.5,-351.4 27.7,-520.9 0.7,-1.9 1.2,-3.8 1.8,-5.7 l 376.9,-1324.2 c 114.8,-403.9 514,-659.9 929.3,-596.3 l 43.5,6.8 c 234.9,36 443.6,171 572.9,370.3 129.4,199.4 167.6,445.2 104.9,674.5 l -61,221.7 c -11.6,41.9 -5.6,86.8 16.6,124.3 22.2,37.5 58.6,64.4 101,74.5 l 1329.8,317.2 c 181.3,43.3 333.6,163.5 417.7,329.7 84.3,166.4 90.9,360.4 18.4,532.4 l -873.8,2236.5 c -10.6,27.5 -30.8,38.5 -59.5,33.3 -28.7,-5.3 -43.3,-22.7 -43.5,-51.9 l -9.5,-1248.8 c 0,-5.9 -0.4,-11.8 -1.1,-17.7 -35.5,-298.7 -298.4,-514.4 -599,-490.2 l -1231.7,96.8 c -27.6,2.2 -55.1,3.2 -82.5,3.2 m 229.8,-3543.6 c -508.5,0 -968.7,337.4 -1111.3,839.4 l -376.1,1321.3 c -71.9,222.7 -84.1,459.4 -35.4,684.9 135,630.8 736.5,1067.5 1400.7,1015.1 l 1231.8,-96.8 c 125.7,-10.1 235,77.4 253.6,200.1 l 9.4,1238.5 c 1.2,182 127.1,332.5 306.3,365.6 179.4,32.9 351,-62.3 417.3,-232.4 l 872.1,-2232.4 c 107.8,-255.1 97.6,-547.6 -29.3,-798.4 -126.9,-250.6 -356.4,-431.8 -629.7,-497.1 h -0.1 l -1168.2,-278.6 17,-61.6 c 87,-317.7 34,-658.2 -145.1,-934.4 -179.1,-276 -468.4,-463 -793.5,-513 l -43.6,-6.7 c -59,-9.1 -117.8,-13.5 -175.9,-13.5"
         style="fill:#5e2323;fill-opacity:1;fill-rule:nonzero;stroke:none"
         id="path80" /><path
         d="m 23071,23150.4 -931.8,-57 857.3,369.5 c 82.7,35.7 178.6,-2.5 214.3,-85.2 35.6,-82.7 -2.5,-178.6 -85.2,-214.3 -17.6,-7.6 -36.5,-11.8 -54.6,-13"
         style="fill:#5e2323;fill-opacity:1;fill-rule:nonzero;stroke:none"
         id="path82" /><path
         d="m 20780.5,23676.8 c -51.6,0 -100.2,31.2 -119.9,82.2 -8.7,22.6 -16.8,44.7 -24.2,66.5 -23.1,67.1 12.6,140.2 79.7,163.3 67.2,23.1 140.3,-12.6 163.3,-79.7 6.5,-18.9 13.5,-38 21,-57.5 25.6,-66.2 -7.4,-140.6 -73.6,-166.2 -15.2,-5.8 -30.9,-8.6 -46.3,-8.6"
         style="fill:#5e2323;fill-opacity:1;fill-rule:nonzero;stroke:none"
         id="path84" /><path
         d="m 21676.8,24050.8 c -54.8,0 -95.7,21.2 -119.4,73.9 -72,160.2 109.8,398 406.1,531.3 130.4,58.6 261.3,87.3 373.1,87.3 142.1,0 253.4,-46.3 293.7,-135.9 72,-160.1 -178.1,-246 -474.4,-379.3 -198.6,-89.4 -367.6,-177.3 -479.1,-177.3"
         style="fill:#e9865e;fill-opacity:1;fill-rule:nonzero;stroke:none"
         id="path86" /><path
         d="m 10376.9,27030.5 c -188.3,221.4 -170.3,563.5 40.3,763.7 171.5,162.9 416.9,195.3 617.5,102.9 40,-18.4 80.5,18.3 65.7,59.5 -72.3,210.2 -14.7,453 166.3,606.3 230.9,196 589.7,166.2 785.6,-64.6 135.8,-160.6 165.5,-376.3 94,-560.6 -52.8,-136.2 -16.4,-291.3 81.5,-399.4 l 465.7,-514.6 -857.6,-776.1 -451.4,498.9 c -103.5,114.3 -264.4,162.8 -411,115.1 -207.6,-67.5 -445.4,-9.7 -596.6,168.9"
         style="fill:#ffffff;fill-opacity:1;fill-rule:nonzero;stroke:none"
         id="path88" /><path
         d="m 11089,26905.7 c 116.4,0 231.7,-50.2 314.7,-141.9 l 434,-479.6 819.1,741.4 -448.2,495.3 c -107,118.2 -141,285.5 -86.5,426.1 70.3,181.2 36,386 -89.6,534.5 -186.4,219.7 -529.4,248.1 -749.1,61.7 -168.1,-142.5 -230.3,-369.5 -158.5,-578.2 10.3,-28.6 3.1,-59.1 -19,-79.3 -22.3,-20.5 -53.7,-25.2 -82,-12.1 -198.8,91.5 -429.9,52.9 -588.8,-98.2 -200.5,-190.6 -217.8,-517.2 -38.5,-728.1 h 0.1 c 139.5,-164.8 362.9,-227.9 568.8,-161.1 40.3,13.2 82,19.5 123.5,19.5 m 745.1,-694.7 -468.9,518.1 c -98.8,109.2 -249.2,151.5 -383.7,107.8 -226.2,-73.5 -471.2,-4 -624.3,176.8 -196.9,231.6 -178,590.1 42.1,799.2 174.6,165.9 428.1,208.1 646.2,107.7 9.2,-4.1 18.6,-3 25.3,3.3 3.2,2.8 9.9,10.9 5.2,23.9 -78.9,229.4 -10.6,478.5 173.9,634.9 241,204.6 617.5,173.5 822.2,-67.7 137.8,-163 175.5,-387.8 98.3,-586.7 -47.4,-122.5 -17.4,-268.8 76.6,-372.6 l 483.1,-533.8 -896,-810.9"
         style="fill:#5e2323;fill-opacity:1;fill-rule:nonzero;stroke:none"
         id="path90" /><path
         d="m 12266.4,26853.9 -352.5,389.5 c -98.3,108.3 -134.6,263.4 -81.8,399.1 71.7,184.5 42.1,400.3 -93.8,561 -105.2,123.7 -257.4,189.8 -411.5,193.7 13.3,15.3 27.9,29.8 43.8,43.3 72.9,61.8 164,92 255,92 113.5,0 226.8,-47 304.1,-138 93.7,-110.8 119.3,-263.5 66.8,-398.8 -72.7,-187.7 -28.7,-409.6 112.2,-565.2 l 357.8,-395.4 -200.1,-181.2"
         style="fill:#cebdbd;fill-opacity:1;fill-rule:nonzero;stroke:none"
         id="path92" /><path
         d="m 10948.2,27905.4 c 0.3,-1 0.7,-2.1 1.1,-3.1 -0.4,1.1 -0.8,2.1 -1.1,3.1 m 140.6,-864.9 c 153.9,0 305.8,-65.9 414.7,-186.3 l 343.7,-379.7 619.3,560.6 -357.8,395.4 c -140.9,155.6 -184.9,377.5 -112.2,565.2 52.5,135.3 26.9,288 -66.8,398.8 -139.2,163.9 -395.2,185.1 -559.1,46 -125.5,-106.4 -171.9,-275.8 -118.3,-431.6 27.9,-77.7 6.5,-165.8 -55.3,-222.5 -62,-56.9 -152.1,-70.7 -229.2,-35.3 -148.6,68.3 -321.1,39.6 -439.9,-73.4 -149.6,-142.1 -162.4,-385.8 -28.7,-543.1 l 0.3,-0.2 c 104,-122.9 270.5,-169.9 424.4,-120.1 53.9,17.6 109.6,26.2 164.9,26.2 m 747.1,-953.5 c -2.7,0 -5.4,0.1 -8,0.2 -42.6,2.1 -82.6,21 -111.1,52.6 l -451.4,498.9 c -63.3,69.8 -158.3,97.4 -242.2,70.1 -278.7,-90.5 -580.2,-4.9 -768.9,217.9 -242.2,285.1 -218.7,726.4 52.3,983.9 164.9,156.8 387.4,223.9 603.5,190.3 -12.1,220.9 78,436.5 252.7,584.6 296.6,251.7 760.1,213.5 1012,-83.3 169.9,-200.9 216.3,-477.7 121.2,-722.7 -29.2,-75.3 -9.2,-167 50.9,-233.4 l 465.6,-514.6 c 59.6,-65.8 54.5,-167.3 -11.2,-226.9 l -857.6,-776.1 c -29.7,-26.8 -68.1,-41.5 -107.8,-41.5"
         style="fill:#5e2323;fill-opacity:1;fill-rule:nonzero;stroke:none"
         id="path94" /><path
         d="m 12286.2,25275.1 -445,491.6 c -133.4,147.5 -122.1,375.3 25.4,508.7 l 799.9,724 c 147.5,133.4 375.3,122.1 508.7,-25.4 l 445,-491.6 c 194.3,-214.7 458.9,-348.8 745.1,-392.8 1454.3,-223.6 2937.4,-1529.9 2759.9,-3053 -104.9,-900.4 -852.8,-1577.2 -1759.1,-1592 -1533.2,-25.1 -2685.5,1580.6 -2763.3,3050 -15.3,289.1 -122.3,565.8 -316.6,780.5"
         style="fill:#e36836;fill-opacity:1;fill-rule:nonzero;stroke:none"
         id="path96" /><path
         d="m 16889.2,23882.2 h -649.9 c -427.3,851.2 -1305.8,1530.7 -2217.8,1767.6 -280.2,72.7 -529.6,232.9 -701.5,466.2 l -392.5,534.2 c -61.3,83.7 -152.1,133.2 -247.6,144.6 l 94.4,85.4 c 37,33.5 84.1,51.7 133.7,51.7 3.4,0 6.8,-0.1 10.1,-0.3 53.3,-2.6 102.2,-25.9 138,-65.4 l 445,-491.6 c 213.2,-235.7 511.5,-393.3 839.9,-443.8 1100.7,-169.2 2227.6,-992.7 2548.2,-2048.6"
         style="fill:#bb5330;fill-opacity:1;fill-rule:nonzero;stroke:none"
         id="path98" /><path
         d="m 13017.7,23882.2 h -157.4 c -53.1,206.4 -86.2,415.1 -97.1,620.8 -17.5,331.7 -144.6,644.2 -357.9,879.9 l -444.9,491.6 c -73.8,81.6 -67.5,208 14,281.8 l 41.9,37.9 c 3,-81.6 33.6,-162.7 92.7,-228 l 444.7,-491.5 c 194.5,-215 301.8,-491.5 316.9,-780.9 14.3,-269.6 64.7,-543.7 147.1,-811.6"
         style="fill:#f2bba4;fill-opacity:1;fill-rule:nonzero;stroke:none"
         id="path100" /><path
         d="m 12908,26931.9 c -49.6,0 -96.7,-18.2 -133.7,-51.7 l -799.9,-723.9 c -81.5,-73.8 -87.8,-200.2 -14,-281.8 l 444.9,-491.6 c 213.3,-235.7 340.4,-548.2 357.9,-879.9 73,-1378.9 1143.1,-2897.9 2567.4,-2898 11,0 21.9,0.1 32.9,0.2 832,13.6 1505.8,623.4 1602.2,1450 166.7,1431.2 -1249.5,2664.2 -2624.7,2875.6 -328.4,50.5 -626.7,208.1 -839.9,443.8 l -445,491.6 c -35.8,39.5 -84.7,62.8 -138,65.4 -3.3,0.2 -6.7,0.3 -10.1,0.3 m 2423,-5648.2 c -1604.4,0 -2807.9,1678.4 -2888.6,3202.4 -13.7,258.2 -111.4,500.1 -275.3,681.2 l -445,491.7 c -192.6,212.9 -176.2,542.9 36.8,735.5 l 799.8,724 c 103.2,93.3 236.5,140.8 375.5,134 138.9,-6.9 266.8,-67.6 360.2,-170.7 l 444.8,-491.6 c 164,-181.1 395,-302.5 650.6,-341.8 1520.1,-233.7 3082.9,-1617.9 2895,-3230.4 -113.3,-972.5 -937.1,-1718 -1916.1,-1734 -12.6,-0.2 -25.1,-0.3 -37.7,-0.3"
         style="fill:#5e2323;fill-opacity:1;fill-rule:nonzero;stroke:none"
         id="path102" /><path
         d="M 14257.3,23882.2 H 13622 c -24,135.7 -0.7,252 76.6,321.8 33.5,30.2 68.4,43.8 105,43.8 126.5,0 273.5,-162.5 453.7,-365.6"
         style="fill:#e9865e;fill-opacity:1;fill-rule:nonzero;stroke:none"
         id="path104" /><path
         d="M 24298.7,22565 H 12561.2 c -319.4,0 -578.3,258.9 -578.3,578.3 0,319.4 258.9,578.3 578.3,578.3 h 11737.5 c 319.4,0 578.3,-258.9 578.3,-578.3 0,-319.4 -258.9,-578.3 -578.3,-578.3"
         style="fill:#ffbf00;fill-opacity:1;fill-rule:nonzero;stroke:none"
         id="path106" /><path
         d="m 24298.7,22725.6 h -1254.2 c 3.1,3 6.2,6.1 9.3,9.2 104.8,104.7 169.7,248.7 169.7,408.7 0,164 -68.4,312.1 -178.1,417.4 h 1253.3 c 230.3,0 417.6,-187.3 417.6,-417.6 0,-230.3 -187.3,-417.7 -417.6,-417.7"
         style="fill:#ce900b;fill-opacity:1;fill-rule:nonzero;stroke:none"
         id="path108" /><path
         d="m 12740,22725.6 h -178.8 c -230.3,0 -417.7,187.4 -417.7,417.7 0,230.3 187.4,417.6 417.7,417.6 h 178.8 c -3,-2.9 -6,-5.8 -8.9,-8.8 -104.8,-104.7 -169.7,-248.6 -169.7,-408.6 0,-164.3 68.6,-312.6 178.6,-417.9"
         style="fill:#ffe28c;fill-opacity:1;fill-rule:nonzero;stroke:none"
         id="path110" /><path
         d="m 12561.2,23560.9 c -230.3,0 -417.7,-187.3 -417.7,-417.6 0,-230.3 187.4,-417.7 417.7,-417.7 h 11737.5 c 230.3,0 417.6,187.4 417.6,417.7 0,230.3 -187.3,417.6 -417.6,417.6 H 12561.2 M 24298.7,22404.3 H 12561.2 c -407.5,0 -739,331.5 -739,739 0,407.4 331.5,738.9 739,738.9 h 11737.5 c 407.4,0 738.9,-331.5 738.9,-738.9 0,-407.5 -331.5,-739 -738.9,-739"
         style="fill:#5e2323;fill-opacity:1;fill-rule:nonzero;stroke:none"
         id="path112" /><path
         d="m 24320.3,22565.2 -402.9,-4089.9 -280.1,-2842.7 -282.1,-2863.9 -296.2,-3004 c -68.1,-694.6 -652.9,-1224.1 -1350.7,-1224.1 h -6534.9 c -698.4,0 -1283.2,529.5 -1351.3,1224.1 l -521.1,5288.3 -280.8,2852.3 -458.8,4659.9 h 11758.9"
         style="fill:#e93b47;fill-opacity:1;fill-rule:nonzero;stroke:none"
         id="path114" /><path
         d="m 23917.4,18475.3 -280.1,-2842.7 -222.4,78.4 -2083.8,-771.1 -2083.8,771.1 -2083.9,-771.1 -2083.1,771.1 -1779.3,-658 -280.8,2852.3 2058.8,761.4 2083.8,-771 2083.8,771 2083.2,-771 2084.5,771 503.1,-191.4"
         style="fill:#ffbf00;fill-opacity:1;fill-rule:nonzero;stroke:none"
         id="path116" /><path
         d="m 19174.7,8700.9 h -1172.1 c 327.2,64.6 636.6,147.7 926.8,251.1 71.4,-93.2 153.9,-177.5 245.3,-251.1 m 4680.9,10787.5 c -251.7,40.7 -509.5,61.7 -771.3,61.7 -249.7,0 -495.7,-19.1 -736.3,-56.2 49.4,1349.2 -985.4,2510.5 -2351.5,2597.7 l -4909.7,312.7 h 9056.1 l -287.3,-2915.9"
         style="fill:#bf343c;fill-opacity:1;fill-rule:nonzero;stroke:none"
         id="path118" /><path
         d="m 12916,20602.2 -177.5,1802.1 h 309.8 l 157.8,-1602.5 c -120.8,-22 -226.8,-95.5 -290.1,-199.6"
         style="fill:#f5a7ac;fill-opacity:1;fill-rule:nonzero;stroke:none"
         id="path120" /><path
         d="M 12738.5,22404.3 13982,9780.7 c 60.6,-615.6 572.8,-1079.8 1191.3,-1079.8 H 21708 c 618.5,0 1130.7,464.2 1191.3,1079.8 l 1243.6,12623.6 H 12738.5 M 21708,8379.6 h -6534.7 c -784.6,0 -1434.2,588.8 -1511.1,1369.6 l -1260.8,12800 c -4.5,45.1 10.3,90.1 40.8,123.6 30.4,33.6 73.6,52.8 119,52.8 h 11758.9 c 45.4,0 88.6,-19.2 119,-52.8 30.5,-33.5 45.3,-78.5 40.9,-123.6 L 23219.1,9749.2 C 23142.2,8968.4 22492.6,8379.6 21708,8379.6"
         style="fill:#5e2323;fill-opacity:1;fill-rule:nonzero;stroke:none"
         id="path122" /><path
         d="m 11413.8,14534.4 -1013,49.2 257.1,4881.7 c 7.8,160.1 143.9,283.6 304,275.8 l 433.1,-21.1 c 160.1,-7.8 283.6,-143.9 275.8,-304 l -257,-4881.6"
         style="fill:#fec828;fill-opacity:1;fill-rule:nonzero;stroke:none"
         id="path124" /><path
         d="m 11309.4,15377.3 c -63.2,12.1 -125.8,26.3 -187.7,42.3 l 133.5,2445.7 32.4,662.7 44.8,922.2 c 2.3,48.6 -7.2,94.9 -26.1,136 l 82,-4 c 83.9,-4 148.8,-75.6 144.8,-159 l -203.6,-3866 -20.1,-179.9"
         style="fill:#ce9626;fill-opacity:1;fill-rule:nonzero;stroke:none"
         id="path126" /><path
         d="m 10733.6,15549.3 c -47.3,19.5 -94.1,40.3 -140.5,62.3 l 202.6,3847 c 1.9,40.6 19.6,78 49.7,105.4 28.2,25.5 63.5,39.5 101.9,39.5 2.6,0 5.3,-0.1 8,-0.2 l 75.2,-3.6 c -54.2,-49.9 -89.8,-120.3 -93.9,-199.8 l -203,-3850.6"
         style="fill:#ffe69e;fill-opacity:1;fill-rule:nonzero;stroke:none"
         id="path128" /><path
         d="m 10545.8,14714.7 737.4,-35.9 249.9,4744.4 c 4,83.4 -60.9,155 -144.8,159 l -433,21.1 c -41.5,2.1 -79.7,-12 -109.9,-39.3 -30.1,-27.4 -47.8,-64.8 -49.7,-105.4 l -249.9,-4743.9 m 868.1,-318.3 c -2.3,0 -4.5,0.1 -6.8,0.2 l -1013,49.2 c -36.7,1.8 -71.1,18.1 -95.6,45.4 -24.6,27.2 -37.4,63.1 -35.4,99.7 l 257,4881.6 c 5.6,113.7 55.3,218.9 140,295.8 84.7,76.9 194.5,116.2 308.5,110.6 l 433.1,-21.1 c 235.9,-11.5 418.4,-212.7 406.9,-448.5 l -257.1,-4882.2 c -3.9,-73.6 -64.8,-130.7 -137.6,-130.7"
         style="fill:#5e2323;fill-opacity:1;fill-rule:nonzero;stroke:none"
         id="path130" /><path
         d="m 10033.1,14642 -1006.8,-121.8 -567.78,4855.2 c -19.25,159.2 94.17,303.8 253.33,323.1 l 430.43,52.1 c 159.16,19.2 303.8,-94.2 323.06,-253.3 L 10033.1,14642"
         style="fill:#fec828;fill-opacity:1;fill-rule:nonzero;stroke:none"
         id="path132" /><path
         d="m 9439.92,16825.5 -123.44,1073.3 -79.55,658.7 -110.96,916.6 c -5.9,48.3 -23.09,92.3 -48.61,129.7 l 81.46,9.8 c 6.2,0.8 12.35,1.1 18.46,1.1 75.87,0 141.79,-56.8 151.07,-133.5 l 129.15,-1104.4 c -58.79,-56.5 -93.58,-137.2 -88.86,-225 l 71.28,-1326.3"
         style="fill:#ce9626;fill-opacity:1;fill-rule:nonzero;stroke:none"
         id="path134" /><path
         d="m 9025.05,16955.4 c -47.26,27.8 -98.33,48.8 -151.92,62.4 L 8595.49,19392 c -10.11,83.4 49.56,159.5 132.91,169.6 l 74.88,9 c -45.1,-58.2 -68.3,-133.6 -59.04,-212.7 l 280.81,-2402.5"
         style="fill:#ffe69e;fill-opacity:1;fill-rule:nonzero;stroke:none"
         id="path136" /><path
         d="m 9177.28,19614.7 c -6.11,0 -12.26,-0.3 -18.46,-1.1 l -430.42,-52 c -83.35,-10.1 -143.02,-86.2 -132.91,-169.6 l 551.76,-4718.3 732.91,88.7 -551.81,4718.8 c -9.28,76.7 -75.2,133.5 -151.07,133.5 M 9026.3,14382.2 c -30.81,0 -60.89,10.3 -85.35,29.6 -28.81,22.7 -47.42,55.9 -51.66,92.3 l -567.77,4855.3 c -28.28,233.9 139.35,447.7 373.77,476 l 430.43,52.1 c 234.36,28.6 448.19,-139.2 476.6,-373.6 L 10170.1,14658 c 8.9,-75.4 -45,-143.8 -120.4,-152.9 l -1006.85,-121.9 c -5.51,-0.7 -11.03,-1 -16.55,-1"
         style="fill:#5e2323;fill-opacity:1;fill-rule:nonzero;stroke:none"
         id="path138" /><path
         d="m 13531.3,16867 -1004.8,137.7 468.1,3415.1 c 21.7,158.8 168.1,269.9 327,248.2 l 429.5,-58.9 c 158.9,-21.8 270,-168.2 248.2,-327 l -468,-3415.1"
         style="fill:#fec828;fill-opacity:1;fill-rule:nonzero;stroke:none"
         id="path140" /><path
         d="m 13460.7,17800.2 -114.8,25.8 130.5,952.3 -3.4,7 c -114.6,237 -86.6,442.3 85.6,627.9 l 5.6,6 126.5,923.3 c 6.5,47.3 2.5,93.9 -10.8,137.1 l 52.6,-7.2 c 83.2,-11.4 141.6,-88.3 130.2,-171.6 l -209.2,-1526.7 c -34.9,-20.5 -66.9,-46.1 -95.4,-76.4 -78.2,-83.4 -119.4,-192.2 -115.8,-306.5 l 18.4,-591"
         style="fill:#d29333;fill-opacity:1;fill-rule:nonzero;stroke:none"
         id="path142" /><path
         d="m 13345.9,17826 -50.8,11.4 127.8,932.5 c -118,249.4 -87,475.6 92.2,672.5 l 124.2,907.2 c 6.7,48.2 0.2,95.6 -17.4,138 l 58,-8 c 13.3,-43.2 17.3,-89.8 10.8,-137.1 l -126.5,-923.3 -5.6,-6 c -172.2,-185.6 -200.2,-390.9 -85.6,-627.9 l 3.4,-7 -130.5,-952.3"
         style="fill:#ce9626;fill-opacity:1;fill-rule:nonzero;stroke:none"
         id="path144" /><path
         d="m 12869.6,17725.8 42.6,381.7 c 10.4,96.4 -12.2,188.9 -58.8,266.2 l 277.8,2027.3 c 10.4,76.2 75.8,131.8 150.6,131.8 6.9,0 14,-0.5 21,-1.5 l 74.8,-10.2 c -58.5,-44.9 -100,-111.9 -111.1,-190.8 l -351.6,-2564.7 c -16.1,-12.3 -31.2,-25.6 -45.3,-39.8"
         style="fill:#ffe69e;fill-opacity:1;fill-rule:nonzero;stroke:none"
         id="path146" /><path
         d="m 12682,17122.6 731.4,-100.2 449.3,3278.4 c 11.4,83.3 -47,160.2 -130.2,171.6 l -429.7,58.9 c -83.2,11.6 -160.2,-47 -171.6,-130.3 L 12682,17122.6 m 849.5,-393.6 c -6.2,0 -12.5,0.4 -18.9,1.3 l -1004.8,137.7 c -36.2,5 -69,24.1 -91.1,53.3 -22.1,29.1 -31.8,65.8 -26.8,102.1 l 468,3415.1 c 32.1,234 248.9,398.1 482.4,366.2 l 429.6,-58.9 c 233.9,-32.1 398.1,-248.4 366.1,-482.4 l -468,-3415.1 c -9.5,-69.2 -68.7,-119.3 -136.5,-119.3"
         style="fill:#5e2323;fill-opacity:1;fill-rule:nonzero;stroke:none"
         id="path148" /><path
         d="m 10566.3,14764.2 -1012.67,-54.5 -184.99,3442.1 c -8.61,160.1 114.2,296.8 274.29,305.5 l 432.97,23.2 c 160.1,8.6 296.8,-114.2 305.4,-274.3 l 185,-3442"
         style="fill:#fec828;fill-opacity:1;fill-rule:nonzero;stroke:none"
         id="path150" /><path
         d="m 10417.8,17528.3 -36.5,677.9 c -7.9,147.4 -124.4,263.2 -267.8,273.9 l 2.9,0.2 c 5.4,0.3 10.8,0.4 16.1,0.4 153.3,0 281,-119.7 289.5,-274.7 l 15.9,-296 -20.1,-381.7"
         style="fill:#64adbd;fill-opacity:1;fill-rule:nonzero;stroke:none"
         id="path152" /><path
         d="m 10560.6,15627.2 c -13.9,6.8 -27.9,13.8 -41.8,20.8 l -101,1880.3 20.1,381.7 122.7,-2282.8"
         style="fill:#5e2323;fill-opacity:1;fill-rule:nonzero;stroke:none"
         id="path154" /><path
         d="m 10518.8,15648 c -119.9,60.9 -237,130.2 -351.5,208.2 l -41.1,765.3 c -161.68,217 -175.77,437.6 -35.6,662 l -49.6,922.5 c -4.7,88.2 -48.08,165.1 -112.8,214.9 l 315.8,16.6 c -38.9,23.7 -83.7,39.2 -131.6,42.6 h 1.1 c 143.4,-10.7 259.9,-126.5 267.8,-273.9 l 36.5,-677.9 101,-1880.3"
         style="fill:#ce9626;fill-opacity:1;fill-rule:nonzero;stroke:none"
         id="path156" /><path
         d="m 9756.35,16182.9 c -101.49,93 -200.76,193.6 -297.94,301.8 l -89.61,1666.8 c -8.72,160.4 113.93,296.8 274.31,305.6 l 432.49,23.2 c 5.6,0.3 11.2,0.5 16.7,0.5 6.8,0 13.4,-0.3 20.1,-0.7 l -268.82,-14.3 c 30.79,-10.2 59.33,-25.5 84.62,-44.9 l -1.35,-0.1 c -159.65,-8.7 -282.3,-145.2 -274.31,-305.5 l 103.81,-1932.4"
         style="fill:#ffe69e;fill-opacity:1;fill-rule:nonzero;stroke:none"
         id="path158" /><path
         d="m 9928.2,18420.9 c -25.29,19.4 -53.83,34.7 -84.62,44.9 l 268.82,14.3 c 47.9,-3.4 92.7,-18.9 131.6,-42.6 l -315.8,-16.6"
         style="fill:#e9d09d;fill-opacity:1;fill-rule:nonzero;stroke:none"
         id="path160" /><path
         d="m 10091.6,18343 c -2.8,0 -5.5,-0.1 -8.3,-0.2 l -432.93,-23.3 c -40.67,-2.2 -78.03,-20.1 -105.22,-50.3 -27.15,-30.3 -40.97,-69.4 -38.77,-110 l 177.58,-3304.3 737.24,39.6 -177.6,3304.3 c -2.2,40.7 -20.1,78 -50.4,105.2 -28.1,25.3 -63.9,39 -101.6,39 z m -538.06,-3771.2 c -72.8,0 -133.69,57 -137.64,130.5 l -185.01,3442.1 c -6.15,114.2 32.57,224 108.98,309.1 76.47,85.1 181.45,135.4 295.71,141.5 l 432.82,23.3 c 114.5,6.4 224,-32.6 309.2,-109 85.1,-76.4 135.4,-181.4 141.5,-295.7 l 185,-3442 c 1.9,-36.6 -10.7,-72.4 -35.1,-99.6 -24.5,-27.2 -58.7,-43.6 -95.2,-45.6 L 9561.06,14572 c -2.53,-0.2 -5.02,-0.2 -7.52,-0.2"
         style="fill:#5e2323;fill-opacity:1;fill-rule:nonzero;stroke:none"
         id="path162" /><path
         d="m 12232.8,13264.1 -1008.4,108.4 542.3,4858.2 c 17.2,159.4 160.3,274.7 319.7,257.6 l 431.1,-46.4 c 159.4,-17.1 274.7,-160.2 257.6,-319.6 l -542.3,-4858.2"
         style="fill:#fec828;fill-opacity:1;fill-rule:nonzero;stroke:none"
         id="path164" /><path
         d="m 12124.6,15323.8 144.8,1274.8 71.1,659.6 98.7,918 c 5.2,48.4 -1.7,95.2 -18.1,137.4 l 81.6,-8.8 c 83.6,-9 144.2,-84.3 135.3,-167.2 l -255.3,-2286.8 -117.1,-521.6 c -46.5,-2.5 -93.5,-4.3 -141,-5.4"
         style="fill:#ce9626;fill-opacity:1;fill-rule:nonzero;stroke:none"
         id="path166" /><path
         d="m 11725.8,15325.8 c -48.1,2.8 -95.9,6.6 -143.3,11.5 l 321.4,2878.7 c 4.3,40.4 24.2,76.8 55.8,102.3 27.4,22 60.6,33.8 95.2,33.8 5.6,0 11.2,-0.3 16.8,-1 l 74.9,-8 c -57.1,-46.6 -96.7,-114.8 -105.5,-193.9 l -315.3,-2823.4"
         style="fill:#ffe69e;fill-opacity:1;fill-rule:nonzero;stroke:none"
         id="path168" /><path
         d="m 11376.9,13494.9 734,-79 527.1,4721.7 c 8.9,82.9 -51.7,158.2 -135.3,167.2 l -431,46.3 c -40.6,4.5 -80.3,-7.3 -112,-32.8 -31.6,-25.5 -51.5,-61.9 -55.8,-102.3 l -527,-4721.1 m 856,-368.8 c -4.9,0 -9.8,0.3 -14.8,0.8 l -1008.4,108.5 c -36.5,3.9 -69.9,22.2 -92.8,50.8 -23,28.6 -33.6,65.2 -29.6,101.6 l 542.3,4858.2 c 12.2,113.2 68,215.4 157,287.1 89.1,71.8 201.2,104.6 314.6,92.4 l 431,-46.4 c 234.8,-25.3 405.3,-236.8 380,-471.6 l -542.3,-4858.8 c -7.9,-70.4 -67.6,-122.6 -137,-122.6"
         style="fill:#5e2323;fill-opacity:1;fill-rule:nonzero;stroke:none"
         id="path170" /><path
         d="m 15136.7,14315.2 -1008.4,108.5 542.3,4858.2 c 17.2,159.4 160.3,274.7 319.7,257.5 l 431.1,-46.3 c 159.4,-17.2 274.7,-160.3 257.5,-319.7 l -542.2,-4858.2"
         style="fill:#fec828;fill-opacity:1;fill-rule:nonzero;stroke:none"
         id="path172" /><path
         d="m 15090.9,16924.1 82.4,725.6 71.1,659.7 98.7,918 c 5.1,48.3 -1.7,95.1 -18.1,137.3 l 81.6,-8.8 c 83.5,-9 144.2,-84.2 135.2,-167.2 l -242.1,-2168.9 c -75.3,-18 -146.5,-50.6 -208.8,-95.7"
         style="fill:#ce9626;fill-opacity:1;fill-rule:nonzero;stroke:none"
         id="path174" /><path
         d="m 14759.6,17539.9 -27.9,891.6 c -0.8,25.3 -3.8,50.3 -8.9,74.7 l 85,760.9 c 4.3,40.5 24.2,76.8 55.8,102.4 27.3,21.9 60.6,33.7 95.1,33.7 5.6,0 11.2,-0.3 16.9,-0.9 l 74.9,-8.1 c -57.1,-46.5 -96.7,-114.7 -105.5,-193.9 l -185.4,-1660.4"
         style="fill:#ffe69e;fill-opacity:1;fill-rule:nonzero;stroke:none"
         id="path176" /><path
         d="m 14280.7,14546 734.1,-78.9 527,4721.6 c 9,83 -51.7,158.2 -135.2,167.2 l -431,46.4 c -40.5,4.5 -80.3,-7.3 -112,-32.8 -31.6,-25.6 -51.5,-61.9 -55.8,-102.4 L 14280.7,14546 m 856.1,-368.8 c -4.9,0 -9.9,0.3 -14.9,0.8 l -1008.3,108.5 c -36.5,4 -69.9,22.2 -92.9,50.8 -23,28.7 -33.6,65.2 -29.5,101.7 l 542.3,4858.2 c 12.2,113.2 68,215.3 157.1,287.1 89,71.7 201,104.6 314.5,92.3 l 431,-46.4 c 234.8,-25.2 405.2,-236.8 380,-471.5 l -542.3,-4858.8 c -7.9,-70.5 -67.6,-122.7 -137,-122.7"
         style="fill:#5e2323;fill-opacity:1;fill-rule:nonzero;stroke:none"
         id="path178" /><path
         d="m 14701.5,14981.8 -1013.6,-31.7 -107.8,3445.4 c -5,160.2 120.9,294.2 281.1,299.2 l 433.4,13.5 c 160.2,5.1 294.2,-120.8 299.2,-281 l 107.7,-3445.4"
         style="fill:#fec828;fill-opacity:1;fill-rule:nonzero;stroke:none"
         id="path180" /><path
         d="m 14326,16119.8 -22.9,728.8 c -156.7,220.5 -165.8,441.4 -20.7,662.6 l -28.9,923.4 c -1.5,48.4 -14.7,93.7 -36.8,133.2 l 82.2,2.6 c 1.6,0 3.2,0 4.8,0 39,0 75.8,-14.5 104.2,-41.3 29.7,-27.8 46.7,-65.6 48,-106.3 l 66.5,-2124.9 c -64.3,-62.4 -129.8,-121.8 -196.4,-178.1"
         style="fill:#ce9626;fill-opacity:1;fill-rule:nonzero;stroke:none"
         id="path182" /><path
         d="m 13800.8,15754 -14.4,459.7 126,561.5 29.3,-937.3 c -46.4,-29.3 -93.3,-57.2 -140.9,-83.9 m 84.4,1894.6 c -42.3,38.2 -91.8,67.6 -146.4,86.4 l -20.8,664.8 c -1.2,40.7 13.4,79.4 41.3,109.1 27.8,29.6 65.5,46.6 106.2,47.9 l 75.4,2.4 c -50.1,-54 -79.9,-127 -77.7,-206.6 l 22,-704"
         style="fill:#ffe69e;fill-opacity:1;fill-rule:nonzero;stroke:none"
         id="path184" /><path
         d="m 14303.7,18570.4 c -1.6,0 -3.2,0 -4.8,0 l -433.4,-13.6 c -40.7,-1.3 -78.4,-18.3 -106.2,-47.9 -27.9,-29.7 -42.5,-68.4 -41.3,-109.1 l 103.5,-3307.5 737.9,23.1 -103.5,3307.4 c -1.3,40.7 -18.3,78.5 -48,106.3 -28.4,26.8 -65.2,41.3 -104.2,41.3 m -615.8,-3758.2 c -35.1,0 -68.9,13.3 -94.5,37.4 -26.6,25 -42.3,59.7 -43.4,96.2 l -107.7,3445.4 c -3.6,114.3 37.6,223.1 115.8,306.5 78.4,83.4 184.5,131.3 298.8,134.9 l 433.4,13.5 c 113,2.7 223.2,-37.6 306.6,-115.9 83.3,-78.3 131.2,-184.4 134.8,-298.7 l 107.7,-3445.3 c 2.4,-76.2 -57.4,-139.9 -133.6,-142.3 l -1013.6,-31.7 c -1.5,0 -2.9,0 -4.3,0"
         style="fill:#5e2323;fill-opacity:1;fill-rule:nonzero;stroke:none"
         id="path186" /><path
         d="m 13126.4,13903.6 -989.5,222.1 755,3363.3 c 35.1,156.5 190.4,254.8 346.8,219.7 l 423,-95 c 156.5,-35.1 254.8,-190.4 219.7,-346.8 l -755,-3363.3"
         style="fill:#fec828;fill-opacity:1;fill-rule:nonzero;stroke:none"
         id="path188" /><path
         d="m 13158.7,15480.8 74.5,331.8 -2.8,7.4 c -94.1,245.7 -48.8,448 138.4,618.4 l 6.1,5.5 204.1,909.3 c 10.5,46.5 10.4,93.3 0.8,137.5 l 51.7,-11.6 c 39.8,-8.9 73.6,-32.7 95.4,-67.1 21.8,-34.4 28.8,-75.2 19.9,-114.9 l -392.9,-1750.4 c -64.1,-23.9 -129.1,-45.8 -195.2,-65.9"
         style="fill:#d29333;fill-opacity:1;fill-rule:nonzero;stroke:none"
         id="path190" /><path
         d="m 13101.9,15464.2 77.3,344.6 c -96.5,258.5 -46.5,481.2 148.7,662.3 l 200.5,893.5 c 10.7,47.4 8.3,95.2 -5.6,138.9 l 57,-12.8 c 9.6,-44.2 9.7,-91 -0.8,-137.5 l -204.1,-909.3 -6.1,-5.5 c -187.2,-170.4 -232.5,-372.7 -138.4,-618.4 l 2.8,-7.4 -74.5,-331.8 c -18.9,-5.7 -37.8,-11.2 -56.8,-16.6"
         style="fill:#ce9626;fill-opacity:1;fill-rule:nonzero;stroke:none"
         id="path192" /><path
         d="m 12554.1,15354.6 472.4,2104.2 c 8.9,39.7 32.7,73.6 67.1,95.3 24.7,15.7 52.7,23.8 81.2,23.8 11.2,0 22.5,-1.3 33.7,-3.8 l 73.6,-16.5 c -62,-39.8 -109.1,-103.1 -126.8,-180.7 l -449.2,-2000.6 c -50.1,-8.2 -100.8,-15.4 -152,-21.7"
         style="fill:#ffe69e;fill-opacity:1;fill-rule:nonzero;stroke:none"
         id="path194" /><path
         d="m 12301.6,14230.1 720.4,-161.7 724.8,3228.7 c 8.9,39.7 1.9,80.5 -19.9,114.9 -21.8,34.4 -55.6,58.2 -95.4,67.1 l -423,95 c -39.8,9 -80.5,1.8 -114.9,-20 -34.4,-21.7 -58.2,-55.6 -67.1,-95.3 l -724.9,-3228.7 m 824.8,-464.5 c -10.1,0 -20.2,1.1 -30.2,3.4 l -989.6,222.1 c -35.7,8 -66.7,29.9 -86.3,60.8 -19.6,30.9 -26.1,68.3 -18.1,104 l 755.1,3363.3 c 25,111.6 92,206.8 188.7,268 96.6,61.2 211.1,81.2 322.9,56.1 l 423.1,-95 c 111.6,-25 206.8,-92.1 267.9,-188.7 61.3,-96.6 81.2,-211.3 56.1,-322.9 l -755,-3363.4 c -8,-35.7 -29.9,-66.7 -60.8,-86.3 -22.2,-14.1 -47.9,-21.4 -73.8,-21.4"
         style="fill:#5e2323;fill-opacity:1;fill-rule:nonzero;stroke:none"
         id="path196" /><path
         d="m 16410.2,16380.8 -524.7,-3262.7 -200.3,-1243.1 -480.4,-2986.9 c -32.6,-206.9 -211.2,-358.5 -420.9,-358.5 h -667.6 c -86.4,0 -170.6,26.1 -238.8,78.4 -1100.1,842.5 -2489.1,798.2 -3582.7,2.8 -71.1,-51.5 -155.3,-81.2 -243.1,-81.2 h -672.75 c -209.72,0 -388.25,151.6 -421.62,358.5 l -457.91,2846.9 -230.05,1431.8 -516.7,3214 c -42.08,259.1 158.21,494.2 420.91,494.2 H 8728 c 132.81,0 257.63,-61.6 338.18,-167.6 772.14,-1012.3 1727.12,-1596.5 3015.22,-1545 1292.5,16 2243.2,532.7 3015.3,1545 79.8,106 205.4,167.6 338.2,167.6 h 554.4 c 262.7,0 463,-235.1 420.9,-494.2"
         style="fill:#e93b47;fill-opacity:1;fill-rule:nonzero;stroke:none"
         id="path198" /><path
         d="m 15885.5,13118.1 -200.3,-1243.1 -345.4,155.3 -1247.5,-610.3 -1247.4,610.3 -1247.5,-610.3 -1247.5,610.3 -1248.17,-610.3 -602.31,315 -230.05,1431.8 832.36,-373.1 1247.47,610.4 1246.7,-610.4 1247.5,610.4 1248.2,-610.4 1247.5,610.4 546.4,-286"
         style="fill:#ffbb34;fill-opacity:1;fill-rule:nonzero;stroke:none"
         id="path200" /><path
         d="m 9323.72,9065.1 c -98.12,12.6 -186.61,58.6 -252.63,127.1 l -393.86,2449.8 253.49,-132.6 393,-2444.3 m -628.8,3911 -250.19,112.1 -533.52,3318.4 c -12.45,76.8 9.32,154.9 59.77,214.2 50.63,59.5 124.46,93.6 202.59,93.6 h 230.08 c -164.38,-78.6 -268.45,-259 -236.97,-452.7 l 528.24,-3285.6"
         style="fill:#f5a7ac;fill-opacity:1;fill-rule:nonzero;stroke:none"
         id="path202" /><path
         d="m 8930.72,11509.4 -253.49,132.6 -232.5,1446.2 250.19,-112.1 235.8,-1466.7"
         style="fill:#ffe0a3;fill-opacity:1;fill-rule:nonzero;stroke:none"
         id="path204" /><path
         d="m 12750.2,15056.8 c 997.7,159 1795.1,662.8 2474.8,1554 48.9,64.9 127.4,103.6 209.9,103.6 h 16.9 c 19.3,-24.1 36.1,-50.3 49.8,-78.2 -15.2,-14.8 -29.4,-30.8 -42.3,-48 -709.9,-930.7 -1570,-1442.5 -2709.1,-1531.4"
         style="fill:#f5a7ac;fill-opacity:1;fill-rule:nonzero;stroke:none"
         id="path206" /><path
         d="m 12104,9379.7 c 658.6,0 1310.4,-214.7 1871.2,-644.2 38.7,-29.7 87.5,-45.3 141.1,-45.3 h 667.6 c 131.6,0 241.9,93.8 262.2,222.9 l 1205.5,7493.3 v 0.2 c 12.5,76.8 -9.3,154.9 -59.7,214.2 -50.7,59.5 -124.5,93.6 -202.6,93.6 h -554.4 c -82.5,0 -161,-38.7 -209.9,-103.6 -824.7,-1081.4 -1822.8,-1592.4 -3141.5,-1609 -54.5,-2.2 -108.7,-3.3 -162.3,-3.3 -1178.4,-0.1 -2156.58,528.3 -2982.75,1611.5 -50.49,66.4 -127.14,104.4 -210.44,104.4 h -554.44 c -78.13,0 -151.96,-34.1 -202.59,-93.6 -50.45,-59.3 -72.22,-137.4 -59.77,-214.2 L 9115.89,8913.5 c 20.9,-129.3 131.55,-223.3 263.04,-223.3 h 672.77 c 51.6,0 103,17.5 148.8,50.7 585.6,425.9 1247.9,638.8 1903.5,638.8 m 2679.9,-1010.8 h -667.6 c -124.9,0 -241.2,38.6 -336.4,111.5 -1018.9,780.3 -2318.1,780.6 -3390.7,0.6 -101.1,-73.4 -217.8,-112.1 -337.5,-112.1 h -672.77 c -290.03,0 -534.02,207.6 -580.22,493.5 l -1204.64,7493 c -27.59,169.6 20.61,342.4 132.23,473.6 111.72,131.3 274.75,206.7 447.27,206.7 h 554.44 c 184.52,0 354.39,-84.2 466.06,-231 795.41,-1043 1738.23,-1527.9 2880.93,-1481.8 1216.4,15.5 2134.6,486.3 2894,1481.9 108.7,144.3 283.1,230.9 465.9,230.9 h 554.4 c 172.5,0 335.5,-75.4 447.3,-206.7 111.5,-131.2 159.7,-303.8 132.2,-473.7 L 15363.4,8862.5 c -45.1,-285.8 -288.9,-493.6 -579.5,-493.6"
         style="fill:#5e2323;fill-opacity:1;fill-rule:nonzero;stroke:none"
         id="path208" /><path
         d="m 14783.9,8690.2 h -667.6 c -53.6,0 -102.4,15.6 -141.1,45.3 -560.8,429.5 -1212.6,644.2 -1871.2,644.2 -655.6,0 -1317.9,-212.9 -1903.5,-638.8 -45.8,-33.2 -97.2,-50.7 -148.8,-50.7 h -659.85 c -9.16,25.1 -16.06,51.4 -20.51,78.7 l -47.62,296.2 c 18.11,-2.4 36.54,-3.6 55.23,-3.6 h 672.75 c 87.8,0 172,29.8 243.1,81.3 553.5,402.5 1182.6,612.4 1811.7,612.4 142.7,0 285.4,-10.8 427.2,-32.6 105.8,-16.3 212.8,-25.6 319.5,-25.6 150.2,0 299.7,18.5 444,62.3 698.1,211.5 1197.6,863.5 1480.4,1996 l 562.2,275 193.8,-87.1 -487.5,-3030.1 c -20.3,-129.1 -130.6,-222.9 -262.2,-222.9 m 951.4,4506.6 -396.2,207.3 -302.6,-148.1 502.9,3124.8 c 14.9,91.2 -0.3,179.4 -37.8,255.4 33.1,32.2 71.1,58.5 112.3,78.2 h 375.4 c 78.1,0 151.9,-34.1 202.6,-93.6 50.4,-59.3 72.2,-137.4 59.7,-214.2 v -0.2 l -516.3,-3209.6"
         style="fill:#bf343c;fill-opacity:1;fill-rule:nonzero;stroke:none"
         id="path210" /><path
         d="m 14777.6,11755.3 c 20.8,83.4 40.5,169.4 59,258 v 0 l 199.9,1242.7 302.6,148.1 396.2,-207.3 -201.7,-1253.6 -193.8,87.1 -562.2,-275"
         style="fill:#ce8d2f;fill-opacity:1;fill-rule:nonzero;stroke:none"
         id="path212" /><path
         d="m 9391.85,8690.2 h -12.92 c -131.49,0 -242.14,94 -263.04,223.3 l -44.8,278.7 c 66.02,-68.5 154.51,-114.5 252.63,-127.1 l 47.62,-296.2 c 4.45,-27.3 11.35,-53.6 20.51,-78.7"
         style="fill:#c77f83;fill-opacity:1;fill-rule:nonzero;stroke:none"
         id="path214" /><path
         d="m 15501.6,16636.2 c -13.7,27.9 -30.5,54.1 -49.8,78.2 h 162.1 c -41.2,-19.7 -79.2,-46 -112.3,-78.2"
         style="fill:#c77f83;fill-opacity:1;fill-rule:nonzero;stroke:none"
         id="path216" /><path
         d="m 14783.9,8529.6 h -667.6 c -10.9,0 -21.8,0.7 -31.9,1.4 -10.9,0.8 -21.1,1.5 -31.3,3.7 -13,1.4 -25.4,4.3 -37.7,7.2 -49.3,12.4 -96.5,34.1 -137.9,66.1 -543.1,415.9 -1156.6,615.7 -1770.3,615.7 -629.2,0 -1258.7,-210.2 -1812.4,-612.9 -71.1,-51.5 -155.3,-81.2 -243.1,-81.2 h -672.75 c -209.72,0 -388.25,151.6 -421.62,358.5 l -1204.66,7492.7 c -15.24,95.1 1.46,187.3 42.82,265.7 L 8957.33,9420 c 14.29,-88.6 55.19,-167 113.76,-227.8 l 44.8,-278.7 c 20.9,-129.3 131.55,-223.3 263.04,-223.3 h 12.92 659.85 c 51.6,0 103,17.5 148.8,50.7 585.6,425.9 1247.9,638.8 1903.5,638.8 658.6,0 1310.4,-214.7 1871.2,-644.2 38.7,-29.7 87.5,-45.3 141.1,-45.3 h 667.6 c 131.6,0 241.9,93.8 262.2,222.9 l 487.5,3030.1 201.7,1253.6 516.3,3209.6 v 0.2 c 12.5,76.8 -9.3,154.9 -59.7,214.2 -50.7,59.5 -124.5,93.6 -202.6,93.6 h -375.4 -162.1 c -45.5,56.8 -105.3,101.9 -174.4,129.4 49.3,21.1 103,31.2 157.5,31.2 h 554.4 c 166.2,0 307,-93.6 378.1,-228.5 5.8,-10.9 10.9,-21.8 15.2,-32.7 5.1,-12.3 10.2,-24.7 13.8,-37 0.7,-1.5 0.7,-2.2 0.7,-3.6 4.4,-12.4 8,-25.4 10.2,-39.2 2.9,-13.1 5.1,-27.6 6.5,-41.4 1.5,-13.8 2.2,-27.6 2.2,-42.1 0,-23.2 -2.2,-46.4 -5.8,-69.7 L 15204.8,8888.1 c -32.6,-206.9 -211.2,-358.5 -420.9,-358.5"
         style="fill:#5e2323;fill-opacity:1;fill-rule:nonzero;stroke:none"
         id="path218" /><path
         d="m 32524.8,17854.8 h -7062.6 c -208.5,0 -377.6,169 -377.6,377.6 v 15.8 c 0,208.6 169.1,377.6 377.6,377.6 h 7062.6 c 208.6,0 377.6,-169 377.6,-377.6 v -15.8 c 0,-208.6 -169,-377.6 -377.6,-377.6"
         style="fill:#ffbf00;fill-opacity:1;fill-rule:nonzero;stroke:none"
         id="path220" /><path
         d="m 32524.8,18015.4 h -1254.5 c 43,61.4 68.3,136.2 68.3,217 v 16 c 0,80.7 -25.3,155.4 -68.5,216.8 h 946.9 v 0 h 307.8 c 119.7,0 217,-97.4 217,-217 v -15.8 c 0,-119.7 -97.3,-217 -217,-217"
         style="fill:#ce900b;fill-opacity:1;fill-rule:nonzero;stroke:none"
         id="path222" /><path
         d="m 29322.2,19257.6 -826.9,117.9 454,2821.8 c 23.5,165.4 143.5,300.9 304.9,344.3 l 2487.7,669.8 c 202.5,54.6 410.8,-65.4 465.3,-267.9 l 19.7,-73.4 c 54.5,-202.4 -65.4,-410.7 -267.9,-465.2 l -2221.6,-598.2 -415.2,-2549.1"
         style="fill:#ffffff;fill-opacity:1;fill-rule:nonzero;stroke:none"
         id="path224" /><path
         d="m 28525.1,19397.4 775.6,-110.5 413.8,2540.5 2237.8,602.5 c 188.4,50.7 300.3,245.2 249.6,433.5 l -19.7,73.4 c -50.7,188.3 -245,300.3 -433.6,249.6 l -2487.7,-669.8 c -151.6,-40.8 -263.9,-167.6 -286,-323 l -449.8,-2796.2 m 818.6,-169 -878.2,125.2 458.2,2847.8 c 25,175.5 152.1,319 323.7,365.3 l 2487.7,669.8 c 215.8,58.1 438.9,-70.3 497.1,-286.2 l 19.8,-73.4 c 58.1,-216 -70.3,-438.9 -286.2,-497.1 l -2205.5,-593.8 -416.6,-2557.6"
         style="fill:#5e2323;fill-opacity:1;fill-rule:nonzero;stroke:none"
         id="path226" /><path
         d="m 29369.2,19707.5 h -335.4 l 359.1,2204.5 c 20.4,125.2 112.2,226.9 234.7,259.9 l 2020.6,544 c 202.4,54.5 322.3,262.8 267.8,465.2 l -2.7,9.9 c 126.1,-26.7 233.2,-121.5 268.9,-254.2 l 19.7,-73.4 c 50.7,-188.3 -61.2,-382.8 -249.6,-433.5 l -2237.8,-602.5 -345.3,-2119.9"
         style="fill:#cebdbd;fill-opacity:1;fill-rule:nonzero;stroke:none"
         id="path228" /><path
         d="m 29395.5,19707.5 h -26.3 l 345.3,2119.9 2237.8,602.5 c 188.4,50.7 300.3,245.2 249.6,433.5 l -19.7,73.4 c -35.7,132.7 -142.8,227.5 -268.9,254.2 l -7.4,27.5 c 140.8,-24.7 261.7,-127.9 301.3,-275 l 19.7,-73.4 c 54.6,-202.4 -65.4,-410.7 -267.8,-465.2 l -2221.7,-598.2 -341.9,-2099.2"
         style="fill:#5e2323;fill-opacity:1;fill-rule:nonzero;stroke:none"
         id="path230" /><path
         d="m 28679.9,19511.4 509,-72.5 389.9,2393.6 c 10.2,62.3 55.8,112.9 116.8,129.3 l 2221.7,598.2 c 116.6,31.3 185.9,151.8 154.5,268.4 l -19.7,73.4 c -31.4,116.6 -151.9,186.1 -268.5,154.5 l -2487.7,-669.8 c -99.4,-26.8 -173.1,-109.9 -187.6,-211.8 z m 642.5,-414.4 c -7.6,0 -15.2,0.5 -22.9,1.6 l -826.9,117.8 c -42.6,6.1 -81.1,29.1 -106.7,63.8 -25.5,34.7 -36,78.2 -29.2,120.8 l 454,2821.8 c 32.2,226.5 197.9,413.7 421.7,473.9 l 2487.7,669.9 c 287.8,77.4 584.7,-93.6 662.2,-381.3 l 19.8,-73.5 c 77.4,-287.6 -93.6,-584.6 -381.3,-662 l -2121.5,-571.3 -398.6,-2446.7 c -12.8,-78.7 -80.8,-134.8 -158.3,-134.8"
         style="fill:#5e2323;fill-opacity:1;fill-rule:nonzero;stroke:none"
         id="path232" /><path
         d="m 31676.2,19546.8 h -5365.3 c -202.8,0 -377.9,-142.2 -419.4,-340.7 l -121.5,-580.3 h 6447 l -121.4,580.3 c -41.6,198.5 -216.6,340.7 -419.4,340.7"
         style="fill:#ffbf00;fill-opacity:1;fill-rule:nonzero;stroke:none"
         id="path234" /><path
         d="m 32019.3,18786.5 h -853.1 l -87.8,419.3 c -14.3,67.8 -44,129.1 -85.1,180.4 h 682.9 c 126,0 236.3,-89.6 262.2,-213 l 80.9,-386.7"
         style="fill:#ce900b;fill-opacity:1;fill-rule:nonzero;stroke:none"
         id="path236" /><path
         d="m 26296,18786.5 h -328.3 l 81,386.7 c 25.8,123.4 136.1,213 262.2,213 h 158 c -41.1,-51.3 -70.8,-112.6 -85.1,-180.4 l -87.8,-419.3"
         style="fill:#ffe28c;fill-opacity:1;fill-rule:nonzero;stroke:none"
         id="path238" /><path
         d="m 25462.2,18465.2 c -119.6,0 -217,-97.4 -217,-217 v -15.8 c 0,-119.7 97.4,-217 217,-217 h 7062.6 c 119.7,0 217,97.3 217,217 v 15.8 c 0,119.6 -97.3,217 -217,217 h -7062.6 m 7062.6,-771.1 h -7062.6 c -296.8,0 -538.2,241.5 -538.2,538.3 v 15.8 c 0,296.8 241.4,538.3 538.2,538.3 h 7062.6 c 296.8,0 538.3,-241.5 538.3,-538.3 v -15.8 c 0,-296.8 -241.5,-538.3 -538.3,-538.3"
         style="fill:#5e2323;fill-opacity:1;fill-rule:nonzero;stroke:none"
         id="path240" /><path
         d="m 25967.7,18786.5 h 6051.6 l -80.9,386.7 c -25.9,123.4 -136.2,213 -262.2,213 h -5365.3 c -126.1,0 -236.4,-89.6 -262.2,-213 l -81,-386.7 m 6249.3,-321.3 h -6447 c -48.4,0 -94.2,21.8 -124.7,59.3 -30.5,37.6 -42.4,86.9 -32.5,134.2 l 121.4,580.3 c 56.8,271.5 299.3,468.5 576.7,468.5 h 5365.3 c 277.3,0 519.8,-197 576.6,-468.5 l 121.4,-580.3 c 10,-47.3 -2,-96.6 -32.5,-134.2 -30.5,-37.5 -76.3,-59.3 -124.7,-59.3"
         style="fill:#5e2323;fill-opacity:1;fill-rule:nonzero;stroke:none"
         id="path242" /><path
         d="m 32217,17854.6 -212,-3077.9 -127.3,-1837.8 -235.8,-3421 c -37.9,-550 -495.4,-977.3 -1046.7,-977.3 H 27392 c -551.3,0 -1008.8,427.3 -1046.7,977.3 l -200.5,2902.5 -136.9,1986.2 -237.7,3448 H 32217"
         style="fill:#e93b47;fill-opacity:1;fill-rule:nonzero;stroke:none"
         id="path244" /><path
         d="m 32005,14776.7 -127.3,-1837.8 -72.6,39.9 -1097.5,-672.1 -1097.5,672.1 -1098.1,-672.1 -1097.5,672.1 -1098.1,-672.1 -171.6,113.7 -136.9,1986.2 307.8,-168.4 1097.5,671.5 1097.5,-671.5 1098.1,671.5 1097.5,-671.5 1098.2,671.5 200.5,-133"
         style="fill:#ffbf00;fill-opacity:1;fill-rule:nonzero;stroke:none"
         id="path246" /><path
         d="m 30595,8701.4 h -657.6 c 275,173.1 464.9,470.5 488.8,816.5 l 196,2841.1 85.4,-52.3 1008.2,617.4 -234.2,-3395.1 c -32,-464.1 -421.4,-827.6 -886.6,-827.6 m 158.8,5565.8 236.4,3426.9 h 1054.7 l -194.2,-2815.1 -46.2,30.7 -1050.7,-642.5"
         style="fill:#bf343c;fill-opacity:1;fill-rule:nonzero;stroke:none"
         id="path248" /><path
         d="m 30707.6,12306.7 -85.4,52.3 131.6,1908.2 1050.7,642.5 46.2,-30.7 -134.9,-1954.9 -1008.2,-617.4"
         style="fill:#ce900b;fill-opacity:1;fill-rule:nonzero;stroke:none"
         id="path250" /><path
         d="m 27180.7,8727 c -39.1,9.7 -77.2,21.9 -114,36.5 10.1,9.3 20,18.7 29.9,28.3 26.9,-23 54.9,-44.6 84.1,-64.8"
         style="fill:#f5a7ac;fill-opacity:1;fill-rule:nonzero;stroke:none"
         id="path252" /><path
         d="M 25942.1,17694.1 26505.4,9529 c 32,-464.1 421.5,-827.6 886.7,-827.6 H 30595 c 465.2,0 854.6,363.5 886.6,827.6 l 563.3,8165.1 h -6102.8 m 4652.9,-9314 h -3202.9 c -633.3,0 -1163.6,494.9 -1207.2,1126.8 l -575.2,8336.8 c -3,44.4 12.5,88.1 42.9,120.7 30.3,32.5 72.9,51 117.4,51 h 6447 c 44.6,0 87.1,-18.5 117.5,-51 30.3,-32.6 45.8,-76.3 42.8,-120.7 L 31802.1,9506.9 C 31758.6,8875 31228.3,8380.1 30595,8380.1"
         style="fill:#5e2323;fill-opacity:1;fill-rule:nonzero;stroke:none"
         id="path254" /><path
         d="m 27378.5,9836.7 c 0,-357.9 -145.2,-681.8 -379.7,-916.3 -234.6,-234.6 -559.1,-379.8 -917,-379.8 h -5995.1 c -716.4,0 -1296.7,580.2 -1296.7,1296.1 0,154.2 62.4,293.6 163.2,394.5 8.4,8.3 17.4,16.7 26.4,24.4 98.3,86.8 227.5,138.8 368.2,138.8 h 7473 c 145.8,0 279.5,-56.6 379.1,-148.4 109.9,-101.6 178.6,-247.4 178.6,-409.3"
         style="fill:#f6b041;fill-opacity:1;fill-rule:nonzero;stroke:none"
         id="path256" /><path
         d="m 26082.1,8700.9 h -962.8 c 107.4,59.3 205.6,133.4 291.7,219.5 143.7,143.6 253.9,321.1 317.7,519.4 38.7,120.4 -22.4,246.6 -136.5,301.4 l -1.9,1 c -63,50.1 -126,95.1 -188.3,134.3 -97.7,61 -205.6,99.6 -316.8,116.3 -42,6.4 -84.6,9.5 -127.2,9.5 -125.5,0 -251.5,-27.4 -367.6,-82.1 -10.9,-5.2 -21.2,-10.3 -31.4,-15.4 -20,-10.3 -39.9,-20 -59.8,-27.7 -110.8,-47.1 -227.9,-67.9 -349.8,-67.9 -135.4,0 -276.8,25.6 -422.6,69.2 -300.3,97 -581.1,148.5 -839.8,148.5 -370,0 -694.8,-105.2 -967.1,-332.9 -143.2,-107.9 -287.3,-161.4 -432,-161.4 -126,0 -252.5,40.5 -379.5,120.9 -149.7,100.3 -305.9,187 -469.7,255.8 -101.5,42.1 -209.4,63.1 -317.8,63.1 -76.8,0 -153.9,-10.6 -229,-31.6 -142.4,-39.9 -280.7,-60 -409.6,-60 -183.3,0 -347.5,40.7 -477.4,123.3 19,60.5 48,116.6 85.1,166.2 117.8,-42.7 250,-64.4 392.2,-64.4 142.4,0 295,21.8 453.1,65.9 60.6,17 122.9,25.4 184.8,25.4 88.2,0 175.6,-17.1 256.3,-50.9 147.2,-61.6 292.1,-140.3 445.9,-242.6 153.7,-97.4 310.1,-146.1 465.6,-146.1 179.3,0 357.3,64.7 528.4,193.7 2.1,1.6 4.2,3.2 6.3,5 177.1,147.9 381.6,240.4 616.6,277.6 h 516.1 c 163.6,-22 338.5,-63.1 525.3,-123.5 169.4,-50.9 325.7,-76.4 470.6,-76.4 176.6,0 336.3,37.9 481.9,113.8 102.2,53.3 214,79.7 324.9,79.7 125.8,0 250.4,-34.1 358.5,-101.8 55,-34.4 113.6,-76.2 174.2,-124 9.1,-7.3 19.1,-13.5 29.6,-18.6 86.5,-41.8 172.5,-62.5 256.3,-62.5 160.2,0 312.3,75.6 443.3,223.7 33.9,38.3 85,59.3 140.8,59.3 11,0 22.1,-0.8 33.4,-2.5 91.1,-13.6 175.8,-20.4 254.6,-20.4 105.5,0 200.2,12.3 284.6,36.9 164.4,-48.7 284.6,-201 284.6,-380.9 0,-626.3 -509.5,-1135.8 -1135.8,-1135.8"
         style="fill:#c88538;fill-opacity:1;fill-rule:nonzero;stroke:none"
         id="path258" /><path
         d="m 19780,8742.9 c -477.9,134.1 -829.3,573.7 -829.3,1093.8 0,110.7 45.5,211 118.9,283.1 39.3,-45 84.7,-83.5 135.3,-115.7 -16.5,-52.8 -25.5,-109.1 -25.5,-167.4 0,-459.8 239.4,-863.7 600.6,-1093.8"
         style="fill:#fbdba9;fill-opacity:1;fill-rule:nonzero;stroke:none"
         id="path260" /><path
         d="m 19204.9,10004.1 c -50.6,32.2 -96,70.7 -135.3,115.7 38,37.4 83.5,67.2 133.9,86.9 27.9,-13.4 56.7,-25.6 86.5,-36.4 -37.1,-49.6 -66.1,-105.7 -85.1,-166.2"
         style="fill:#e6c8a5;fill-opacity:1;fill-rule:nonzero;stroke:none"
         id="path262" /><path
         d="m 19347.8,10233.9 c -219,0 -397.1,-178.2 -397.1,-397.2 0,-626.3 509.5,-1135.8 1135.8,-1135.8 h 5995.6 c 626.3,0 1135.8,509.5 1135.8,1135.8 0,219 -178.2,397.2 -397.2,397.2 h -7472.9 m 6734.3,-1854.3 h -5995.6 c -803.5,0 -1457.1,653.7 -1457.1,1457.1 0,396.2 322.3,718.4 718.4,718.4 h 7472.9 c 396.2,0 718.4,-322.2 718.4,-718.4 0,-803.4 -653.6,-1457.1 -1457,-1457.1"
         style="fill:#5e2323;fill-opacity:1;fill-rule:nonzero;stroke:none"
         id="path264" /><path
         d="m 26417.9,10359.7 c -117.6,18 -239.1,-19.9 -318.1,-109.2 -152.9,-172.2 -322.6,-213.4 -509.5,-122.8 -63,50.2 -126,95.1 -188.3,134.3 -97.7,61.1 -205.6,99.6 -316.8,116.3 -165.8,25.1 -339.3,0.7 -494.8,-72.6 -10.9,-5.1 -21.2,-10.2 -31.4,-15.4 -20,-10.3 -39.9,-19.9 -59.8,-27.6 -233.9,-99.6 -495.4,-81.6 -772.4,1.3 -729.9,235.8 -1344.2,202.4 -1806.9,-184.5 -267.9,-201.7 -538.4,-213.3 -811.5,-40.4 -149.7,100.2 -305.9,186.9 -469.7,255.7 -173.5,72 -365.6,82.3 -546.8,31.5 -697.2,-194.7 -1296.7,81.6 -1175.3,882.9 l 6707.1,3.2 1643,0.6 c 79.7,-816 -362.4,-925.9 -848.8,-853.3"
         style="fill:#8cc34b;fill-opacity:1;fill-rule:nonzero;stroke:none"
         id="path266" /><path
         d="m 21487.2,10079 c -95.4,0 -191.1,31.5 -289.9,94.1 -168.1,111.8 -330.6,200 -496.8,269.6 -120.1,50.3 -249.9,75.7 -380.6,75.7 -90.9,0 -182.2,-12.3 -271,-37.1 -128.6,-35.9 -252,-53.6 -365.2,-53.6 -187.6,0 -346.9,48.6 -453.7,143 -142.1,125.8 -174.4,315.1 -167.5,483.7 17.8,-1.3 35.8,-2 53.9,-2 h 13.1 c 68.4,-385.5 373.8,-571.4 766.2,-571.4 129.1,0 267.6,20.1 410.1,59.9 74.9,20.8 151.9,31.3 228.7,31.3 108.4,0 216.3,-20.9 317.5,-63.4 163.9,-68.8 320,-155.5 469.7,-255.1 127.2,-80.8 253.9,-121.5 379.9,-121.5 0.1,0 0.2,0 0.3,0 -72.1,-35.5 -143.3,-53.2 -214.7,-53.2 m 2661.6,276.6 c -112.4,0 -236.3,20.6 -372.6,61.5 -320.2,103.5 -616.4,155.2 -887.5,155.2 -101.4,0 -199.3,-7.2 -293.6,-21.7 157.5,51.6 326.5,76.4 506,76.4 258.6,0 539.1,-51.4 839.1,-148.4 103.9,-31.4 217,-75.4 330.9,-114.2 -39.2,-5.8 -79.9,-8.8 -122.3,-8.8"
         style="fill:#cbe4ae;fill-opacity:1;fill-rule:nonzero;stroke:none"
         id="path268" /><path
         d="m 21487.9,9757.6 c -155.5,0 -311.9,48.7 -465.6,146.1 -153.8,102.3 -298.7,181 -445.9,242.6 -137.5,57.5 -294.1,66.6 -441.1,25.5 -453.7,-126.7 -861.2,-69 -1118.2,158.3 -159.4,141 -333.8,412.2 -259.5,903 13.2,87.8 94.9,148 182.8,134.9 87.8,-13.3 148.1,-95.2 134.8,-182.9 -29,-192.1 -25.8,-454.6 154.8,-614.4 171.2,-151.4 477.3,-184.8 818.9,-89.4 216.4,60.5 447.8,46.7 651.6,-38.6 166.2,-69.6 328.7,-157.8 496.8,-269.6 212.8,-134.9 411.7,-125.3 622.6,32.5 485.2,403.1 1143.3,474.3 1956.3,211.5 288.5,-86.6 521.3,-81.9 708.4,15.6 319,166.2 703,152.8 1002.4,-34.7 60.2,-37.7 123.3,-82.2 187.9,-132.4 85,-37.8 181.2,-47.6 304.4,91.6 113,127.6 285.9,188.1 462.4,161.7 263.6,-39.5 441.6,-11.4 544,86 108.8,103.3 149.6,302.7 121.3,592.5 -8.6,88.3 56,166.9 144.3,175.5 88.8,8.7 166.8,-55.9 175.4,-144.2 38.5,-393.5 -35.4,-681.7 -219.7,-856.8 -178.9,-170 -444.8,-225.8 -812.9,-170.8 -68.3,10.2 -133.6,-10.9 -174.2,-56.8 -199.7,-225.7 -448,-282.9 -699.6,-161.2 -10.5,5.1 -20.5,11.3 -29.6,18.6 -60.6,47.8 -119.2,89.6 -174.2,124 -203.4,127.4 -465.2,135.8 -683.4,22.1 -265.1,-138.1 -576.6,-150.4 -952.5,-37.4 -715.9,231.4 -1257.3,180.6 -1658,-154.1 -2.1,-1.8 -4.2,-3.4 -6.3,-5 -171.1,-129 -349.1,-193.7 -528.4,-193.7"
         style="fill:#5e2323;fill-opacity:1;fill-rule:nonzero;stroke:none"
         id="path270" /><path
         d="m 27598.3,14433.5 v -422.8 c 0,-385.5 -313,-698.4 -698.5,-698.4 h -7631.1 c -385.5,0 -698.4,312.9 -698.4,698.4 v 422.8 c 0,30.2 1.9,59.2 5.8,88.1 43,345 337.3,611 692.6,611 h 7631.1 c 366.3,0 667.6,-282.7 695.9,-642.5 1.9,-18.6 2.6,-37.3 2.6,-56.6"
         style="fill:#c3512c;fill-opacity:1;fill-rule:nonzero;stroke:none"
         id="path272" /><path
         d="m 26899.5,13472.7 h -1362 c 154.7,128.1 253.2,321.7 253.2,538 v 45.7 c -60.4,0 -122,15.4 -186.3,46.2 -63,50.1 -125.9,95.1 -188.3,134.3 -134.9,84.5 -288.9,126.4 -443.6,126.4 -137,0 -274.4,-32.9 -399.4,-98.1 -128,-66.5 -265,-95.3 -408.9,-95.3 -135.6,0 -277.3,25.6 -423.2,69.6 -300,97 -580.6,148.4 -839.2,148.4 -370.3,0 -695.3,-105.4 -967.7,-333.5 -143.2,-107.8 -287.1,-161.3 -431.7,-161.3 -126.1,0 -252.7,40.7 -379.9,121.5 -149.7,99.6 -305.8,186.3 -469.7,255.1 -101.4,42.4 -209.2,63.1 -317.4,63.1 -76.9,0 -154.1,-10.4 -229.4,-31 -272.3,-74.4 -530.8,-109.9 -755.6,-109.9 -146.3,0 -278.3,15 -390.7,44.2 v 197.4 c 0,27.9 1.6,55.3 4.7,82.2 111.8,-23.9 236.6,-36 371.6,-36 239.2,0 510.6,38.2 798.4,116.9 61.5,16.8 124.3,25.1 186.4,25.1 88.5,0 175.6,-16.9 255.6,-50.4 147.2,-61.6 292.1,-140.3 445.9,-242.6 153.7,-97.5 310.1,-146.1 465.6,-146.1 179.3,0 357.3,64.7 528.4,193.6 2.1,1.6 4.2,3.3 6.3,5 236.7,197.7 522.2,296.4 864,296.4 236.9,0 500.8,-47.5 794,-142.2 169.4,-50.9 325.7,-76.4 470.6,-76.4 176.7,0 336.3,37.9 481.9,113.8 102.3,53.2 214.1,79.7 324.9,79.7 125.8,0 250.4,-34.1 358.5,-101.8 55.1,-34.5 113.7,-76.2 174.2,-124 9.1,-7.3 19,-13.5 29.6,-18.6 86.4,-41.8 172.5,-62.5 256.3,-62.5 160.2,0 312.2,75.5 443.3,223.7 36.3,41 85.4,66.1 125.3,66.1 8.5,0 16.6,-1.1 24,-3.5 233.7,-74.3 453.2,-110.7 646,-110.7 151.9,0 287.3,22.6 399.9,66.8 14.7,-48.8 22.5,-100.6 22.5,-154.1 v -423.1 c 0,-296.7 -241.4,-538.1 -538.1,-538.1"
         style="fill:#a54329;fill-opacity:1;fill-rule:nonzero;stroke:none"
         id="path274" /><path
         d="m 19208.9,13476 c -268.5,30 -478,258.4 -478,534.8 v 321.7 c 62,-40.8 139.2,-73.1 228.8,-96.4 v -225.4 c 0,-214.5 96.8,-406.5 249.2,-534.7"
         style="fill:#e4b1a0;fill-opacity:1;fill-rule:nonzero;stroke:none"
         id="path276" /><path
         d="m 18959.7,14236.1 c -89.6,23.3 -166.8,55.6 -228.8,96.4 v 101.4 c 0,51.4 7.3,101.2 20.8,148.3 64.1,-27.7 135.3,-49.9 212.7,-66.5 -3.1,-26.9 -4.7,-54.3 -4.7,-82.2 v -197.4"
         style="fill:#d6aa9e;fill-opacity:1;fill-rule:nonzero;stroke:none"
         id="path278" /><path
         d="m 27598.3,12080.5 v -321.3 c 0,-301.4 -244.9,-546.2 -546.2,-546.2 h -7935.7 c -301.3,0 -546.1,244.8 -546.1,546.2 v 321.3 c 0,301.3 244.8,546.2 546.1,546.2 h 7935.7 c 301.3,0 546.2,-244.9 546.2,-546.2"
         style="fill:#c3512c;fill-opacity:1;fill-rule:nonzero;stroke:none"
         id="path280" /><path
         d="M 27052.1,11373.7 H 24823 l 814.2,578.3 c 213.3,151.6 468.4,232.6 729.9,232.6 71.3,0 136.2,28.9 183.1,75.8 47,47.6 75.9,111.8 75.9,183.8 v 21.8 h 426 c 212.6,0 385.5,-172.9 385.5,-385.5 v -321.3 c 0,-212.6 -172.9,-385.5 -385.5,-385.5 m -5153,735.7 c -1.4,0 -2.8,0 -4.2,0 h -120.8 c -133.1,0 -264.9,25.8 -387.9,75.2 h 93 c 143.9,0 286,-25.5 419.9,-75.2"
         style="fill:#a54329;fill-opacity:1;fill-rule:nonzero;stroke:none"
         id="path282" /><path
         d="m 19119.2,11373.7 h -2.8 c -212.5,0 -385.5,172.9 -385.5,385.5 v 321.3 c 0,212.6 173,385.5 385.5,385.5 h 2.8 c -98.6,-98.8 -159.5,-235.1 -159.5,-385.5 v -321.3 c 0,-150.4 60.9,-286.7 159.5,-385.5"
         style="fill:#e4b1a0;fill-opacity:1;fill-rule:nonzero;stroke:none"
         id="path284" /><path
         d="m 19269.1,14972 c -296.8,0 -538.2,-241.4 -538.2,-538.1 v -423.1 c 0,-296.7 241.4,-538.1 538.2,-538.1 h 7630.4 c 296.7,0 538.1,241.4 538.1,538.1 v 423.1 c 0,296.7 -241.4,538.1 -538.1,538.1 h -7630.4 m 7630.4,-1820.6 h -7630.4 c -473.9,0 -859.5,385.6 -859.5,859.4 v 423.1 c 0,473.9 385.6,859.4 859.5,859.4 h 7630.4 c 473.9,0 859.4,-385.5 859.4,-859.4 v -423.1 c 0,-473.8 -385.5,-859.4 -859.4,-859.4"
         style="fill:#5e2323;fill-opacity:1;fill-rule:nonzero;stroke:none"
         id="path286" /><path
         d="m 26417.9,14785 c -113.8,36 -239.1,-19.9 -318.1,-109.2 -152.9,-172.9 -322.6,-213.3 -509.5,-123.4 -63,50.1 -126,95.1 -188.3,134.3 -254.5,159.4 -577,167.1 -843,28.3 -203.7,-105.4 -429.9,-116.3 -669.6,-66.8 h -1.3 c -53.3,10.9 -107.3,25 -161.3,41.1 -729.9,235.8 -1344.2,202.4 -1806.9,-185.1 -267.9,-201.7 -538.4,-213.3 -811.5,-39.8 -149.7,99.6 -305.9,186.3 -469.7,255.1 -173.5,72.6 -365.6,81.6 -546.8,32.1 -1191.3,-325.8 -2116,91.9 -1130.3,981.8 l 5975.8,-68.7 2329.3,-27 c 765.3,-751.1 111.8,-1158.5 -848.8,-852.7"
         style="fill:#8cc34b;fill-opacity:1;fill-rule:nonzero;stroke:none"
         id="path288" /><path
         d="m 21487.2,14504 c -95.4,0 -191.1,31.5 -289.9,94.1 -168.1,111.8 -330.6,200 -496.8,269.6 -119.4,50 -249,75.2 -379.9,75.2 -90.6,0 -181.9,-12.1 -270.9,-36.4 -265.1,-72.5 -507.7,-103.6 -711.7,-103.6 -323.1,0 -548.9,78.1 -612.4,194.2 -33,60.3 -22.2,143.2 28.1,240.8 54.8,-229.8 358.6,-355.5 780.9,-355.5 224.9,0 483.4,35.6 755.8,110.2 75.3,20.5 152.5,31 229.4,31 108.3,0 216,-20.7 317.4,-63.2 163.9,-68.7 320,-155.5 469.7,-255 127.2,-80.8 253.9,-121.5 379.9,-121.5 23.7,0 47.4,1.4 71,4.3 -91.3,-56.2 -180.8,-84.2 -270.6,-84.2 m 2661.6,276.6 c -112.4,0 -236.3,20.6 -372.6,61.5 -320.2,103.5 -616.4,155.2 -887.4,155.2 -164.6,0 -319.8,-19 -465.6,-57.1 200.4,93.9 422,138.5 662.7,138.5 258.6,0 539.2,-51.5 839.5,-148.5 123.6,-37.1 255,-91.7 384.2,-134 -50.8,-10.4 -104.4,-15.6 -160.8,-15.6"
         style="fill:#cbe4ae;fill-opacity:1;fill-rule:nonzero;stroke:none"
         id="path290" /><path
         d="m 19116.4,12466 c -212.5,0 -385.5,-172.9 -385.5,-385.5 v -321.3 c 0,-212.6 173,-385.5 385.5,-385.5 h 7935.7 c 212.6,0 385.5,172.9 385.5,385.5 v 321.3 c 0,212.6 -172.9,385.5 -385.5,385.5 h -7935.7 m 7935.7,-1413.6 h -7935.7 c -389.7,0 -706.8,317.1 -706.8,706.8 v 321.3 c 0,389.7 317.1,706.8 706.8,706.8 h 7935.7 c 389.7,0 706.8,-317.1 706.8,-706.8 v -321.3 c 0,-389.7 -317.1,-706.8 -706.8,-706.8"
         style="fill:#5e2323;fill-opacity:1;fill-rule:nonzero;stroke:none"
         id="path292" /><path
         d="m 21487.9,14182.6 c -155.5,0 -311.9,48.6 -465.6,146.1 -153.8,102.3 -298.7,181 -445.9,242.6 -136.2,57 -293.1,66 -442,25.3 -809.6,-221.4 -1489,-122.4 -1690.7,246.3 -106.8,195.2 -122.3,528.9 410.3,1009.8 65.9,59.5 167.4,54.2 226.9,-11.6 59.5,-65.9 54.3,-167.5 -11.5,-226.9 -285.7,-257.8 -414.1,-488.5 -343.8,-617.1 103.6,-189.3 639.3,-277.9 1324.1,-90.6 217.6,59.5 448.8,45.8 650.8,-38.8 166.2,-69.6 328.7,-157.8 496.8,-269.6 212.8,-134.9 411.7,-125.3 622.6,32.4 485.1,403.2 1143.3,474.4 1956.3,211.6 288.5,-86.6 521.3,-81.9 708.4,15.6 318.9,166.1 703,152.8 1002.4,-34.7 60.3,-37.8 123.5,-82.3 187.9,-132.5 85.1,-37.7 181.2,-47.6 304.4,91.6 130.4,147.5 321.5,208.6 487.3,156 489.1,-155.6 870,-101.2 955.8,41.2 65.6,108.7 -37.2,317.2 -268.1,544.1 -63.3,62.2 -64.2,163.9 -2,227.2 62.2,63.2 163.9,64.1 227.2,2 483.1,-474.7 406.7,-792.1 318.1,-939.1 -185.5,-308.1 -707,-379.3 -1328.4,-181.6 -42.5,13.5 -105.3,-12.9 -149.3,-62.6 -199.7,-225.7 -448,-283 -699.6,-161.2 -10.6,5.1 -20.5,11.3 -29.6,18.6 -60.5,47.8 -119.1,89.5 -174.2,124 -203.3,127.3 -465.1,135.7 -683.4,22.1 -265,-138.1 -576.6,-150.4 -952.5,-37.4 -716,231.4 -1257.3,180.6 -1658,-154.2 -2.1,-1.7 -4.2,-3.4 -6.3,-5 -171.1,-128.9 -349.1,-193.6 -528.4,-193.6"
         style="fill:#5e2323;fill-opacity:1;fill-rule:nonzero;stroke:none"
         id="path294" /><path
         d="m 26820.8,15560.6 c -10.3,-0.6 -20.6,-0.6 -30.9,-0.6 h -7411.3 c -388.7,0 -672.7,371.4 -566.1,745.3 507,1776.7 2227.1,3084.3 4271.8,3084.3 648.9,0 1265.2,-131.7 1819.7,-368.2 1194.5,-508.9 2105.7,-1502.9 2452,-2716.1 104.1,-363.7 -162.5,-725.4 -535.2,-744.7"
         style="fill:#f6b041;fill-opacity:1;fill-rule:nonzero;stroke:none"
         id="path296" /><path
         d="m 19195.4,15761.2 c -61.6,29.1 -116,73.1 -158.7,129.7 -80.8,107 -106.2,242 -69.5,370.3 494.9,1734.7 2167.3,2950 4075.6,2967.5 -1868.5,-155.9 -3402.9,-1407 -3876.9,-3067.9 -40,-140.1 -25.2,-279.7 29.5,-399.6"
         style="fill:#fbdba9;fill-opacity:1;fill-rule:nonzero;stroke:none"
         id="path298" /><path
         d="m 23084.3,19228.8 c -1925.6,0 -3618.6,-1220.3 -4117.1,-2967.6 -36.7,-128.3 -11.3,-263.3 69.5,-370.3 81.7,-108.3 206.2,-170.4 341.7,-170.4 h 7411.8 c 135.4,0 260,62.1 341.7,170.4 80.8,107 106.1,242 69.5,370.3 -498.5,1747.3 -2191.6,2967.6 -4117.1,2967.6 m 3705.9,-3829.6 h -7411.8 c -237.2,0 -455.2,108.7 -598.1,298.1 -142.1,188.3 -186.6,425.9 -122.1,652 537.7,1884.6 2357.8,3200.8 4426.1,3200.8 2068.3,0 3888.3,-1316.2 4426.1,-3200.8 64.5,-226.1 20,-463.7 -122.1,-652 -143,-189.4 -361,-298.1 -598.1,-298.1"
         style="fill:#5e2323;fill-opacity:1;fill-rule:nonzero;stroke:none"
         id="path300" /><path
         d="m 27378.5,12991 v -43.1 c 0,-177.3 -143.9,-321.2 -321.3,-321.2 h -7945.9 c -177.3,0 -321.3,143.9 -321.3,321.2 v 43.1 c 0,177.3 144,321.3 321.3,321.3 h 7945.9 c 177.4,0 321.3,-144 321.3,-321.3"
         style="fill:#e93b47;fill-opacity:1;fill-rule:nonzero;stroke:none"
         id="path302" /><path
         d="m 20123.1,12755.2 h 423.102 v 428.602 H 20123.1 Z"
         style="fill:#f5a7ac;fill-opacity:1;fill-rule:nonzero;stroke:none"
         id="path304" /><path
         d="m 20788.7,12755.2 h 211.496 v 428.602 H 20788.7 Z"
         style="fill:#f5a7ac;fill-opacity:1;fill-rule:nonzero;stroke:none"
         id="path306" /><path
         d="m 25019.7,12755.2 h 423 v 428.602 h -423 z"
         style="fill:#f5a7ac;fill-opacity:1;fill-rule:nonzero;stroke:none"
         id="path308" /><path
         d="m 25685.2,12755.2 h 211.5 v 428.602 h -211.5 z"
         style="fill:#f5a7ac;fill-opacity:1;fill-rule:nonzero;stroke:none"
         id="path310" /><path
         d="m 25775.7,14666.2 c -35.7,0 -69,10.2 -100.8,24.3 -64.4,50.2 -127.6,94.7 -187.9,132.5 -159.9,100.1 -343.8,150.6 -529.2,150.6 -123.6,0 -247.9,-22.5 -366,-67.7 79.5,120.8 125.8,284.3 136.9,493.3 h 2061.5 c 138,0 269.5,36.8 383.5,104.9 217.2,-219.4 312.4,-419.2 248.7,-524.8 -49.6,-82.3 -197.6,-135.2 -408.2,-135.2 -153.9,0 -341.1,28.3 -547.6,94 -39.5,12.5 -80.4,18.6 -121.6,18.6 -131.8,0 -266.3,-62.3 -365.7,-174.6 -77.2,-87.2 -143.7,-115.9 -203.6,-115.9"
         style="fill:#7e933f;fill-opacity:1;fill-rule:nonzero;stroke:none"
         id="path312" /><path
         d="m 25777.1,14506 c -60.3,0 -122.5,15.5 -186.8,46.4 -63,50.1 -126,95.1 -188.3,134.3 -134.9,84.5 -289,126.4 -443.6,126.4 -137,0 -274.5,-32.9 -399.4,-98.1 -128.2,-66.3 -265.3,-95.2 -409,-95.2 -84.7,0 -171.7,10 -260.6,28.4 46.8,-4.8 91.7,-7.1 134.8,-7.1 257.9,0 449.4,85.2 567.6,264.8 118.1,45.2 242.4,67.7 366,67.7 185.4,0 369.3,-50.5 529.2,-150.6 60.3,-37.8 123.5,-82.3 187.9,-132.5 31.8,-14.1 65.1,-24.3 100.8,-24.3 59.9,0 126.4,28.7 203.6,115.9 99.4,112.3 233.9,174.6 365.7,174.6 41.2,0 82.1,-6.1 121.6,-18.6 206.5,-65.7 393.7,-94 547.6,-94 210.6,0 358.6,52.9 408.2,135.2 63.7,105.6 -31.5,305.4 -248.7,524.8 46.1,27.5 89.3,60.1 128.9,97.5 544.2,-559.4 287.7,-918.9 -289,-918.9 -173.9,0 -376.8,32.6 -595.7,102.3 -23.9,7.6 -48.2,11.1 -72.6,11.1 -91.7,0 -183,-49.7 -245.5,-120.3 -100.3,-113.4 -207.8,-169.8 -322.7,-169.8"
         style="fill:#5e2323;fill-opacity:1;fill-rule:nonzero;stroke:none"
         id="path314" /><path
         d="m 26790.2,15399.2 h -2061.5 c 2.7,51.1 3.3,104.8 1.8,161.4 h 2090.3 c 97.4,5 187.5,33.5 265.7,79.2 l 180.2,-2.1 c 12.3,-12.1 24.3,-24.2 35.9,-36.1 -39.6,-37.4 -82.8,-70 -128.9,-97.5 -114,-68.1 -245.5,-104.9 -383.5,-104.9"
         style="fill:#5e2323;fill-opacity:1;fill-rule:nonzero;stroke:none"
         id="path316" /><path
         d="m 24196.3,12755.2 h -673.5 c 27.8,58.4 43.4,123.8 43.4,192.7 v 43.1 c 0,68.9 -15.6,134.3 -43.4,192.8 h 673.5 c -40.3,-53.7 -64.3,-120.5 -64.3,-192.8 v -43.1 c 0,-72.3 24,-139 64.3,-192.7"
         style="fill:#bf343c;fill-opacity:1;fill-rule:nonzero;stroke:none"
         id="path318" /><path
         d="m 19207.7,12755.2 h -96.4 c -106.3,0 -192.8,86.4 -192.8,192.7 v 43.1 c 0,106.3 86.5,192.8 192.8,192.8 h 96.4 c -40.3,-53.7 -64.3,-120.5 -64.3,-192.8 v -43.1 c 0,-72.3 24,-139 64.3,-192.7"
         style="fill:#f5a7ac;fill-opacity:1;fill-rule:nonzero;stroke:none"
         id="path320" /><path
         d="m 19111.3,13183.8 c -106.3,0 -192.8,-86.5 -192.8,-192.8 v -43.1 c 0,-106.3 86.5,-192.7 192.8,-192.7 h 7946 c 106.2,0 192.7,86.4 192.7,192.7 v 43.1 c 0,106.3 -86.5,192.8 -192.7,192.8 h -7946 m 7946,-685.7 h -7946 c -248,0 -449.8,201.8 -449.8,449.8 v 43.1 c 0,248 201.8,449.8 449.8,449.8 h 7946 c 248,0 449.7,-201.8 449.7,-449.8 v -43.1 c 0,-248 -201.7,-449.8 -449.7,-449.8"
         style="fill:#5e2323;fill-opacity:1;fill-rule:nonzero;stroke:none"
         id="path322" /><path
         d="m 19111.3,13183.8 c -106.3,0 -192.8,-86.5 -192.8,-192.8 v -43.1 c 0,-106.3 86.5,-192.7 192.8,-192.7 h 4005.1 c 106.3,0 192.8,86.4 192.8,192.7 v 43.1 c 0,106.3 -86.5,192.8 -192.8,192.8 h -4005.1 m 4005.1,-685.7 h -4005.1 c -248,0 -449.8,201.8 -449.8,449.8 v 43.1 c 0,248 201.8,449.8 449.8,449.8 h 4005.1 c 248,0 449.8,-201.8 449.8,-449.8 v -43.1 c 0,-248 -201.8,-449.8 -449.8,-449.8"
         style="fill:#5e2323;fill-opacity:1;fill-rule:nonzero;stroke:none"
         id="path324" /><path
         d="m 23116.4,12755.2 h -535.3 c 40.4,53.7 64.3,120.4 64.3,192.7 v 43.1 c 0,72.3 -23.9,139.1 -64.3,192.8 h 535.3 c 106.3,0 192.8,-86.5 192.8,-192.8 v -43.1 c 0,-106.3 -86.5,-192.7 -192.8,-192.7"
         style="fill:#bf343c;fill-opacity:1;fill-rule:nonzero;stroke:none"
         id="path326" /><path
         d="m 23116.4,12626.7 h -792.3 c 105.1,0 198.4,50.4 257,128.5 h 535.3 v 0 c 106.3,0 192.8,86.4 192.8,192.7 v 43.1 c 0,106.3 -86.5,192.8 -192.8,192.8 h -535.3 c -58.6,78 -151.9,128.5 -257,128.5 h 792.3 c 177.4,0 321.3,-144 321.3,-321.3 v -43.1 c 0,-177.3 -143.9,-321.2 -321.3,-321.2"
         style="fill:#5e2323;fill-opacity:1;fill-rule:nonzero;stroke:none"
         id="path328" /><path
         d="m 27057.3,12755.2 h -535.1 c 40.3,53.7 64.3,120.4 64.3,192.7 v 43.1 c 0,72.3 -24,139.1 -64.3,192.8 h 535.1 c 106.2,0 192.7,-86.5 192.7,-192.8 v -43.1 c 0,-106.3 -86.5,-192.7 -192.7,-192.7"
         style="fill:#bf343c;fill-opacity:1;fill-rule:nonzero;stroke:none"
         id="path330" /><path
         d="m 27057.4,12626.7 h -792.2 c 105,0 198.3,50.4 257,128.5 h 535.1 c 106.2,0 192.7,86.4 192.7,192.7 v 43.1 c 0,106.3 -86.5,192.8 -192.7,192.8 h -535.1 c -58.7,78 -152,128.5 -257,128.5 h 792.2 c 177.4,0 321.3,-144 321.3,-321.3 v -43.1 c 0,-177.3 -143.9,-321.2 -321.3,-321.2"
         style="fill:#5e2323;fill-opacity:1;fill-rule:nonzero;stroke:none"
         id="path332" /><path
         d="m 26626.1,12626.7 v -182.5 c 0,-72 -28.9,-136.2 -75.9,-183.8 -46.9,-46.9 -111.8,-75.8 -183.1,-75.8 -261.5,0 -516.6,-81 -729.9,-232.6 l -1040.3,-739 -19.3,-13.5 c -264.7,-188.2 -613.7,-208.8 -898.3,-52 l -119.5,65.5 -1500.4,823.1 c -178,97.7 -377.2,148.5 -580.2,148.5 h -120.9 c -184.4,0 -366.2,49.5 -525.6,142.6 l -511.4,299.5 h 6304.8"
         style="fill:#fec828;fill-opacity:1;fill-rule:nonzero;stroke:none"
         id="path334" /><path
         d="m 24214.5,11052.4 v 0 c 128.5,19.6 253.1,68.9 363.1,147.1 l 19.3,13.5 55.1,39.2 h 0.1 l -55.2,-39.2 -19.3,-13.5 c -110,-78.2 -234.6,-127.5 -363.1,-147.1"
         style="fill:#b69c9c;fill-opacity:1;fill-rule:nonzero;stroke:none"
         id="path336" /><path
         d="m 24086.7,11042.7 c -139.8,0 -280,34.6 -407.4,104.8 l -119.5,65.5 -1500.4,823.1 c -178,97.7 -377.2,148.5 -580.2,148.5 h -120.9 c -184.4,0 -366.2,49.5 -525.6,142.6 l -511.4,299.5 h 601.4 l 220.4,-129.2 c 159.4,-93.2 341.2,-142.6 525.6,-142.6 h 120.8 c 203.1,0 402.2,-50.8 580.2,-148.5 l 1500.4,-823.1 119.5,-65.5 c 127.6,-70.4 267.9,-105.1 407.6,-105.1 86.2,0 172.1,13.3 254.8,39.5 l -55.1,-39.2 -19.3,-13.5 c -110,-78.2 -234.6,-127.5 -363.1,-147.1 -42.3,-6.5 -85,-9.7 -127.8,-9.7"
         style="fill:#ffe69e;fill-opacity:1;fill-rule:nonzero;stroke:none"
         id="path338" /><path
         d="m 20795.1,12498.1 102.6,-60 c 139.8,-81.8 299.2,-125 460.6,-125 h 120.8 c 224.2,0 446.2,-56.8 642.1,-164.3 l 1619.9,-888.7 c 239.6,-131.9 538.7,-114.6 762,44.1 l 20.1,14.1 1039.6,738.4 c 235.9,167.7 514,256.4 804.3,256.4 34.9,0 67.6,13.6 92.3,38.2 17,17.3 38.1,48.1 38.1,92.9 v 53.9 z m 3291.1,-1583 c -161.5,0 -323.3,39.6 -468.9,119.8 l -1619.7,888.6 c -158.1,86.7 -337.4,132.5 -518.5,132.5 h -120.8 c -207,0 -411.2,55.5 -590.4,160.3 l -511.6,299.4 c -50,29.4 -74.2,88.6 -59.1,144.6 15.2,56 66.1,94.9 124.1,94.9 h 6304.8 c 71,0 128.5,-57.6 128.5,-128.5 v -182.5 c 0,-102.9 -40.1,-200.2 -112.8,-274 -73.9,-73.9 -171.2,-114.2 -274.7,-114.2 -236.6,0 -463.3,-72.2 -655.4,-208.8 l -1060.4,-752.9 c -167.1,-118.9 -365.8,-179.2 -565.1,-179.2"
         style="fill:#5e2323;fill-opacity:1;fill-rule:nonzero;stroke:none"
         id="path340" /><path
         d="m 23331.9,18069.6 c 4.2,-111.2 -18.9,-202.4 -51.6,-203.6 -32.6,-1.2 -62.4,88 -66.6,199.2 -4.1,111.3 19,202.4 51.6,203.7 32.6,1.2 62.5,-88 66.6,-199.3"
         style="fill:#ffffff;fill-opacity:1;fill-rule:nonzero;stroke:none"
         id="path342" /><path
         d="m 21809.2,18306.6 c -103.4,-41.2 -197.1,-50 -209.2,-19.7 -12,30.4 62,88.4 165.4,129.6 103.4,41.2 197.1,50 209.2,19.6 12.1,-30.3 -62,-88.3 -165.4,-129.5"
         style="fill:#ffffff;fill-opacity:1;fill-rule:nonzero;stroke:none"
         id="path344" /><path
         d="m 24637.8,18360.9 c 92.3,-62.2 152.3,-134.7 134,-161.7 -18.2,-27.1 -107.9,1.4 -200.1,63.6 -92.3,62.3 -152.3,134.7 -134.1,161.8 18.3,27.1 107.9,-1.4 200.2,-63.7"
         style="fill:#ffffff;fill-opacity:1;fill-rule:nonzero;stroke:none"
         id="path346" /><path
         d="m 24107.7,17911.2 c 49.4,-99.7 65.8,-192.4 36.5,-206.9 -29.2,-14.5 -93.1,54.6 -142.5,154.4 -49.4,99.7 -65.8,192.3 -36.5,206.8 29.2,14.5 93.1,-54.6 142.5,-154.3"
         style="fill:#ffffff;fill-opacity:1;fill-rule:nonzero;stroke:none"
         id="path348" /><path
         d="m 22423.4,17995.5 c -48,-100.5 -110.7,-170.5 -140.2,-156.4 -29.5,14.1 -14.5,106.9 33.5,207.4 47.9,100.4 110.7,170.4 140.2,156.4 29.5,-14.1 14.5,-107 -33.5,-207.4"
         style="fill:#ffffff;fill-opacity:1;fill-rule:nonzero;stroke:none"
         id="path350" /><path
         d="m 22796.5,15553.4 c -99.1,0 -201.7,2.4 -306.6,7.2 h 601.2 c -95.3,-4.8 -193.5,-7.2 -294.6,-7.2"
         style="fill:#5e2323;fill-opacity:1;fill-rule:nonzero;stroke:none"
         id="path352" /><path
         d="m 26790.2,15720.5 h -2691.8 c 1712.9,498 1946,1991.5 1336.4,2842.7 846.7,-526.6 1490.2,-1333.3 1766.6,-2302 36.6,-128.3 11.3,-263.3 -69.5,-370.3 -81.7,-108.3 -206.3,-170.4 -341.7,-170.4"
         style="fill:#c88538;fill-opacity:1;fill-rule:nonzero;stroke:none"
         id="path354" /><path
         d="m 24730.5,15560.6 h -1639.4 c 380.7,19 715.5,75 1007.3,159.9 h 2691.8 c 135.4,0 260,62.1 341.7,170.4 80.8,107 106.1,242 69.5,370.3 -276.4,968.7 -919.9,1775.4 -1766.6,2302 -137.1,191.4 -316.9,350.4 -532.1,458.2 h 1.3 c 1194.5,-508.9 2105.7,-1502.9 2452,-2716.1 76.9,-268.6 -48.5,-536.2 -269.5,-665.5 l -2149.1,24.9 -206.9,-104.1 v 0"
         style="fill:#5e2323;fill-opacity:1;fill-rule:nonzero;stroke:none"
         id="path356" /><path
         d="m 26820.8,15560.6 h -2090.3 v 0 l 206.9,104.1 2149.1,-24.9 c -78.2,-45.7 -168.3,-74.2 -265.7,-79.2"
         style="fill:#5e2323;fill-opacity:1;fill-rule:nonzero;stroke:none"
         id="path358" /><path
         d="m 25775.6,10241.2 c -35.7,0 -69,10.2 -100.7,24.4 -64.6,50.2 -127.7,94.7 -187.9,132.4 -51.3,32.2 -105.1,59.2 -160.7,81.1 197.6,117.2 308.8,300.7 303.1,573.3 h 1422.7 c 21.4,0 42.5,0.9 63.4,2.8 3.7,-213.7 -39.8,-364.8 -129.8,-450.3 -72.6,-69.1 -183.2,-103.3 -335.4,-103.3 -62.5,0 -131.9,5.8 -208.6,17.3 -27.3,4 -54.5,6.1 -81.5,6.1 -147.1,0 -285.4,-59.9 -380.9,-167.8 -77.2,-87.2 -143.8,-116 -203.7,-116"
         style="fill:#7e933f;fill-opacity:1;fill-rule:nonzero;stroke:none"
         id="path360" /><path
         d="m 25777.2,10081 c -60.3,0 -122.6,15.6 -186.9,46.7 -63,50.2 -126,95.1 -188.3,134.3 -97.7,61.1 -205.6,99.6 -316.8,116.3 90.3,26 171.1,59.2 241.1,100.8 55.6,-21.9 109.4,-48.9 160.7,-81.1 60.2,-37.7 123.3,-82.2 187.9,-132.4 31.7,-14.2 65,-24.4 100.7,-24.4 59.9,0 126.5,28.8 203.7,116 95.5,107.9 233.8,167.8 380.9,167.8 27,0 54.2,-2.1 81.5,-6.1 76.7,-11.5 146.1,-17.3 208.6,-17.3 152.2,0 262.8,34.2 335.4,103.3 90,85.5 133.5,236.6 129.8,450.3 55.2,4.9 108.7,16.3 159.6,33.2 19.9,-582.7 -266.1,-747.4 -627,-747.4 -74.3,0 -151.6,7 -230.2,18.7 -19.1,2.9 -38.2,4.4 -57.3,4.4 -98.5,0 -194.6,-38.8 -260.8,-113.6 -100.3,-113 -207.8,-169.5 -322.6,-169.5"
         style="fill:#5e2323;fill-opacity:1;fill-rule:nonzero;stroke:none"
         id="path362" /><path
         d="m 27052.1,11052.4 h -1422.7 c -1,49.3 -5.9,101.5 -14.7,156.8 l 9,3.2 1643,0.6 c 4.3,-43.5 7,-85 8.4,-124.6 -50.9,-16.9 -104.4,-28.3 -159.6,-33.2 -20.9,-1.9 -42,-2.8 -63.4,-2.8"
         style="fill:#5e2323;fill-opacity:1;fill-rule:nonzero;stroke:none"
         id="path364" /><path
         d="m 20820,16417 c -79.9,0 -144.6,64.8 -144.6,144.6 0,79.9 64.7,144.6 144.6,144.6 79.8,0 144.6,-64.7 144.6,-144.6 0,-79.8 -64.8,-144.6 -144.6,-144.6"
         style="fill:#c88538;fill-opacity:1;fill-rule:nonzero;stroke:none"
         id="path366" /><path
         d="m 24600.3,16880 c -79.9,0 -144.6,64.7 -144.6,144.6 0,79.8 64.7,144.6 144.6,144.6 79.8,0 144.6,-64.8 144.6,-144.6 0,-79.9 -64.8,-144.6 -144.6,-144.6"
         style="fill:#c88538;fill-opacity:1;fill-rule:nonzero;stroke:none"
         id="path368" /><path
         d="m 21305.3,16943.4 c -39.7,0 -72,32.2 -72,72 0,39.7 32.3,71.9 72,71.9 39.7,0 72,-32.2 72,-71.9 0,-39.8 -32.3,-72 -72,-72"
         style="fill:#c88538;fill-opacity:1;fill-rule:nonzero;stroke:none"
         id="path370" /><path
         d="m 24401.5,16430.9 c -39.7,0 -72,32.2 -72,71.9 0,39.8 32.3,72 72,72 39.7,0 71.9,-32.2 71.9,-72 0,-39.7 -32.2,-71.9 -71.9,-71.9"
         style="fill:#c88538;fill-opacity:1;fill-rule:nonzero;stroke:none"
         id="path372" /><path
         d="m 21384.2,16464.9 c -53.4,0 -96.7,43.3 -96.7,96.7 0,53.4 43.3,96.7 96.7,96.7 53.4,0 96.7,-43.3 96.7,-96.7 0,-53.4 -43.3,-96.7 -96.7,-96.7"
         style="fill:#c88538;fill-opacity:1;fill-rule:nonzero;stroke:none"
         id="path374" /><path
         d="m 23951,16457.9 c -53.4,0 -96.7,43.3 -96.7,96.8 0,53.4 43.3,96.7 96.7,96.7 53.5,0 96.8,-43.3 96.8,-96.7 0,-53.5 -43.3,-96.8 -96.8,-96.8"
         style="fill:#c88538;fill-opacity:1;fill-rule:nonzero;stroke:none"
         id="path376" /></g><path
       style="fill:#a76205;fill-opacity:1;stroke:#000000;stroke-width:30.5416"
       d="M 4.0404042,2707.0708 1.2281014,38.506043 2666.6667,44.444446 H 5329.2931 V 2533.3334 c 0,2483.5017 -0.032,2488.889 -16.1616,2488.889 -15.3635,0 -16.1616,5.3872 -16.1616,109.0909 0,103.7037 0.7983,109.0909 16.1616,109.0909 13.0832,0 16.1616,5.3872 16.1616,28.2828 v 28.2829 h -52.5253 -52.5252 v -137.3738 -137.3737 h -40.4041 -40.404 v 173.7374 173.7373 H 2573.7375 4.0404042 Z M 4579.7981,4251.0809 c 28.5667,-8.356 28.5667,-25.5054 0,-32.12 -12.2222,-2.8299 -101.2827,-7.4192 -197.9123,-10.1983 l -175.6902,-5.0529 15.7354,-25.4603 c 8.6543,-14.0031 17.8329,-39.8377 20.3968,-57.4103 4.1418,-28.3875 76.8643,-1060.1075 76.8643,-1090.4799 0,-6.8884 7.1936,-12.1773 16.5629,-12.1773 52.8293,0 91.9909,-57.575 71.9958,-105.8476 -12.3726,-29.8701 -36.8716,-47.6877 -65.5698,-47.6877 -22.472,0 -24.9494,-3.8169 -35.0195,-53.9562 -2.836,-14.1204 -14.5124,-35.0295 -25.9476,-46.4646 l -20.7914,-20.7914 h -156.4738 c -86.0606,0 -156.4738,-2.2326 -156.4738,-4.9613 0,-12.365 41.657,-249.4904 44.2922,-252.1255 1.6304,-1.6304 62.3315,-18.8599 134.8915,-38.288 72.5601,-19.428 143.1654,-40.5811 156.9009,-47.0068 71.1523,-33.2863 43.0506,-150.5477 -36.0788,-150.5477 -18.863,0 -304.8514,75.7236 -354.7234,93.9231 -21.5691,7.8711 -38.6008,20.6555 -45.407,34.0837 -5.9904,11.8185 -23.0328,98.7609 -37.8719,193.2054 l -26.9802,171.7171 h -154.3837 -154.3836 l -21.2964,22.2286 c -12.4676,13.0134 -23.5104,36.0748 -26.6371,55.6278 l -5.3407,33.3991 -65.7839,-30.5435 c -36.1811,-16.7989 -77.5603,-33.0203 -91.9538,-36.0474 -14.3935,-3.0272 -27.8581,-8.2355 -29.9214,-11.574 -3.3656,-5.4456 20.8852,-279.4919 31.9017,-360.5054 3.4674,-25.4997 9.1802,-34.5748 26.6262,-42.2971 43.8488,-19.4094 64.4755,-92.2125 39.0898,-137.9703 -9.0239,-16.2657 -7.8986,-23.786 8.3672,-55.915 10.3363,-20.4169 18.7934,-47.6473 18.7934,-60.512 0,-26.9165 -124.5976,-351.9367 -141.5175,-369.1568 -15.4265,-15.7002 -58.3126,-14.4001 -75.029,2.2744 -11.0155,10.988 -14.5617,34.2013 -17.797,116.4983 l -4.0404,102.7761 -28.5249,2.4021 c -27.5983,2.3239 -28.8432,1.212 -38.3221,-34.2287 -7.2483,-27.1003 -17.0194,-41.365 -37.5558,-54.8269 -22.7103,-14.887 -26.9997,-21.9904 -23.5859,-39.0594 2.295,-11.4748 -1.3863,-34.1676 -8.1805,-50.4285 -37.8898,-90.6828 -169.8624,-75.4954 -189.0958,21.7611 -8.9722,45.37 -51.9049,70.5172 -108.8718,63.7703 -33.712,-3.9926 -47.8891,-0.5042 -102.9383,25.3287 -46.4706,21.8073 -72.2371,29.2677 -94.6965,27.4182 l -30.8547,-2.5409 36.1561,-24.412 c 51.8074,-34.9795 72.9416,-69.8291 72.9046,-120.2173 -0.016,-25.8307 -5.5865,-50.2835 -14.9069,-65.4717 -27.9566,-45.5567 -228.0299,-274.5915 -245.5219,-281.0623 -25.4282,-9.4065 -61.9652,8.3625 -68.1897,33.1627 -3.4479,13.7376 4.7528,50.9204 24.2398,109.9051 24.5434,74.29 27.6551,90.9388 18.6752,99.9187 -5.9265,5.9264 -55.191,22.8246 -109.4768,37.5516 -115.1992,31.2517 -148.3241,52.8198 -178.5268,116.241 -18.0253,37.8505 -22.3788,41.9074 -40.4041,37.652 -77.4869,-18.2932 -84.6703,-22.3624 -137.5276,-77.9058 -45.9063,-48.2392 -58.6451,-57.0984 -87.7071,-60.9964 -26.2762,-3.5245 -39.4738,-11.1931 -58.0935,-33.756 -20.9852,-25.4293 -23.4476,-33.5144 -19.0892,-62.6768 12.7674,-85.4258 -71.7666,-144.4043 -149.4195,-104.2484 -20.8029,10.7576 -49.1732,54.7929 -49.1732,76.3247 0,4.8839 -7.4533,8.8798 -16.5629,8.8798 -47.7348,0 -88.4876,46.6914 -88.4876,101.3822 0,60.9482 40.3514,97.4306 105.5232,95.4053 33.8873,-1.0532 41.5229,2.0644 65.4112,26.7075 20.7689,21.4251 27.1601,35.0806 27.5395,58.8415 0.4138,25.9111 8.5228,40.2468 49.8765,88.1757 40.4044,46.8288 50.8509,64.9958 57.4603,99.9267 18.4546,97.5343 18.4485,95.2177 0.2497,95.2177 -24.4851,0 -69.5283,48.8014 -75.7745,82.0968 -7.5011,39.9841 12.574,83.6346 48.1056,104.5988 15.7734,9.3065 28.682,17.4708 28.6857,18.143 0,0.6723 9.0511,89.9452 20.1052,198.3848 18.2519,179.0493 19.3928,223.4919 7.2558,282.6302 -3.6327,17.7004 -6.8763,18.8557 -41.8661,14.9119 -20.8605,-2.3513 -44.1395,-0.9509 -51.7311,3.112 -12.6718,6.7817 -13.4096,1.8164 -9.0049,-60.5986 4.6173,-65.4275 4.0084,-68.7748 -16.1823,-88.9656 -18.1837,-18.1839 -27.8232,-20.98 -72.3279,-20.98 -30.4268,0 -57.4445,4.4579 -66.3111,10.9413 -15.8516,11.5909 -26.8776,66.1089 -27.9401,138.1496 -0.459,31.1111 -2.7448,37.8451 -10.2868,30.303 -5.3334,-5.3333 -26.5861,-9.6969 -47.2282,-9.6969 h -37.5313 l -8.3667,-68.9981 c -10.7023,-88.2595 -20.9117,-100.7414 -82.2677,-100.5798 -52.7487,0.139 -81.9591,12.6222 -94.8196,40.5214 -8.5106,18.4628 1.3949,137.0138 25.4685,304.8141 l 4.9272,34.3434 h -41.1835 c -23.9462,0 -49.3492,5.3504 -60.693,12.7831 -42.0313,27.54 -42.2058,25.3876 46.7903,577.1159 l 82.7701,513.1313 -137.5694,4.8999 c -192.61497,6.8605 -262.822,14.1984 -262.822,27.4697 0,10.3783 27.60282,14.9893 137.37374,22.9481 80.76113,5.8553 3650.09866,-0.2287 3670.70716,-6.2571 z M 766.7321,2743.1459 c 7.04071,-21.7289 14.33495,-28.772 33.16926,-32.027 35.64477,-6.1604 36.73519,-30.0315 1.67224,-36.6093 -23.69138,-4.4445 -29.11531,-9.8673 -37.34579,-37.3383 -11.29104,-37.6861 -23.42885,-37.2482 -36.01037,1.2992 -6.86824,21.043 -15.38597,29.4692 -35.63629,35.2537 -32.80463,9.3707 -32.23811,32.1386 0.89452,35.9496 12.4467,1.4317 24.1259,6.8862 25.95377,12.1212 22.27403,63.793 32.1116,68.2334 47.30266,21.3509 z m 167.13249,-218.1776 c 30.27702,-16.2038 14.76356,-64.3622 -20.73325,-64.3622 -21.66028,0 -36.36364,14.7034 -36.36364,36.3637 0,31.9453 25.94748,44.6691 57.09689,27.9985 z M 4585.8587,2211.7172 c 0,-18.6171 15.3223,-33.9394 33.9394,-33.9394 21.6893,0 17.5758,-23.1739 -5.1249,-28.8714 -12.0834,-3.0328 -22.8302,-14.001 -27.8625,-28.4368 -10.5474,-30.2563 -22.493,-29.9529 -29.2348,0.7426 -3.5084,15.9737 -10.2805,24.2424 -19.8546,24.2424 -16.357,0 -35.3606,18.8588 -27.2134,27.0062 2.9245,2.9243 12.173,5.317 20.5524,5.317 9.6627,0 18.3261,8.867 23.686,24.2425 9.1911,26.3654 31.1124,33.1977 31.1124,9.6969 z m -269.6939,-228.4857 c 6.4329,-19.5775 14.7089,-28.4936 28.2828,-30.4704 10.5539,-1.537 24.0627,-6.8002 30.0196,-11.6961 8.9008,-7.3153 8.2655,-10.7772 -3.5647,-19.4277 -7.9175,-5.7893 -21.0872,-10.5261 -29.2661,-10.5261 -8.1789,0 -16.8707,-6.3637 -19.315,-14.1414 -13.7689,-43.8125 -19.698,-52.1461 -30.6397,-43.0653 -6.0203,4.9963 -13.0239,19.4736 -15.5634,32.1717 -3.7459,18.729 -10.0317,24.1032 -33.2972,28.4678 -34.4529,6.4634 -38.2324,26.3004 -6.4573,33.8911 31.0522,7.418 39.735,15.8968 45.4276,44.3598 6.2953,31.4764 22.3566,27.0077 34.3734,-9.5634 z m 261.2075,-59.5105 c 5.3099,-6.3979 8.4824,-21.8524 7.0501,-34.3434 -2.0766,-18.1114 -7.2036,-23.2383 -25.3149,-25.315 -40.6691,-4.6632 -60.9045,30.9657 -33.2776,58.5926 15.8564,15.8565 38.8724,16.3324 51.5424,1.0658 z M 2989.3219,1437.8067 c 27.6268,-27.6269 7.3914,-63.2558 -33.2776,-58.5926 -18.1114,2.0767 -23.2383,7.2036 -25.315,25.315 -4.6632,40.669 30.9657,60.9044 58.5926,33.2776 z m -223.0813,-132.1095 c 5.2368,-15.0223 14.8364,-24.5648 26.4202,-26.2627 26.34,-3.8607 28.2853,-21.3601 3.0776,-27.6868 -14.0305,-3.5215 -24.4393,-13.6411 -29.7754,-28.9481 -9.3355,-26.7798 -25.2638,-26.3977 -29.2358,0.7014 -1.7092,11.6607 -11.2724,21.1946 -26.6299,26.5483 -26.609,9.2759 -27.1573,25.3541 -0.9964,29.2191 10.2647,1.5164 20.1858,11.8521 25.2093,26.2626 10.5136,30.1593 21.4549,30.2163 31.9304,0.1665 z"
       id="path444"
       transform="matrix(0.75000002,0,0,-0.75000002,0,4000.0001)"
       sodipodi:nodetypes="ccccsssssccccccccccccssscsssssssscssssssssscccsscssssssssssscssssssssscscsssssssssssssssssssssssscssssssssssscsssscssscssssssssssssssssssssssssssssssssssssssssssssssssssssssssss" /></g></svg>
