<svg xmlns="http://www.w3.org/2000/svg" xmlns:xlink="http://www.w3.org/1999/xlink" viewBox="0 0 100 100"><path fill="#ee3e54" d="M13 27A2 2 0 1 0 13 31A2 2 0 1 0 13 27Z"/><path fill="#f1bc19" d="M77 12A1 1 0 1 0 77 14A1 1 0 1 0 77 12Z"/><path fill="#fce0a2" d="M50 13A37 37 0 1 0 50 87A37 37 0 1 0 50 13Z"/><path fill="#f1bc19" d="M83 11A4 4 0 1 0 83 19A4 4 0 1 0 83 11Z"/><path fill="#ee3e54" d="M87 22A2 2 0 1 0 87 26A2 2 0 1 0 87 22Z"/><path fill="#fbcd59" d="M81 74A2 2 0 1 0 81 78 2 2 0 1 0 81 74zM15 59A4 4 0 1 0 15 67 4 4 0 1 0 15 59z"/><path fill="#ee3e54" d="M25 85A2 2 0 1 0 25 89A2 2 0 1 0 25 85Z"/><path fill="#fff" d="M18.5 51A2.5 2.5 0 1 0 18.5 56A2.5 2.5 0 1 0 18.5 51Z"/><path fill="#f1bc19" d="M21 66A1 1 0 1 0 21 68A1 1 0 1 0 21 66Z"/><path fill="#fff" d="M80 33A1 1 0 1 0 80 35A1 1 0 1 0 80 33Z"/><g><path fill="#fffef4" d="M31.799,70.3c0.322-1.05,1.417-1.642,3.03-2.435l0.483-0.239l3.387-1.121V53.298l-0.622-0.069 c-3.438-0.388-6.68-2.309-8.671-5.141c-1.895-2.693-2.505-6.008-1.718-9.334l1.737-8.963c0.123-0.632,0.679-1.091,1.323-1.091 h19.19c0.644,0,1.201,0.459,1.323,1.091l1.73,8.935c1.002,4.232-0.331,7.364-1.624,9.252c-1.917,2.796-5.081,4.743-8.463,5.209 L42.3,53.27v13.235l3.479,1.159l0.392,0.201c1.614,0.793,2.708,1.385,3.03,2.435H31.799z"/><path fill="#472b29" d="M49.939,29.4c0.31,0,0.577,0.221,0.636,0.524l1.73,8.935l0.005,0.028l0.007,0.028 c0.936,3.955-0.314,6.896-1.527,8.667c-1.807,2.636-4.79,4.472-7.981,4.911L41.6,52.659v1.221V66v1.009l0.957,0.319l2.909,0.97 l0.396,0.195c0.878,0.432,1.521,0.77,1.963,1.107H33.176c0.441-0.337,1.085-0.675,1.963-1.107l0.396-0.195l2.909-0.97l0.957-0.319 V66V53.923v-1.251l-1.243-0.14c-3.242-0.365-6.298-2.176-8.177-4.846c-1.258-1.788-2.559-4.761-1.609-8.771l0.007-0.028 l0.005-0.028l1.73-8.935c0.059-0.304,0.326-0.524,0.636-0.524h9.595H49.939 M49.939,28h-9.595h-9.595 c-0.981,0-1.824,0.695-2.01,1.658l-1.73,8.935C25.083,46.722,31.185,53.157,38,53.923V66l-3,1c-2,1-4,1.791-4,4h19 c0-2.209-2-3-4-4l-3-1V53.88c6.717-0.924,12.575-7.282,10.68-15.287l-1.73-8.935C51.763,28.695,50.92,28,49.939,28L49.939,28z"/></g><g><path fill="#88cdd7" d="M65,70.3c-0.6,0-1.159-0.238-1.575-0.67c-0.416-0.433-0.633-1.001-0.61-1.602l0.834-21.676 l-2.756-1.688c-0.717-0.618-1.069-1.543-0.944-2.483l1.67-13.481h6.764l1.669,13.475c0.126,0.947-0.227,1.872-0.943,2.49 l-2.756,1.688l0.834,21.677c0.022,0.6-0.194,1.168-0.61,1.601C66.159,70.062,65.6,70.3,65,70.3z"/><path fill="#472b29" d="M67.763,29.4l1.595,12.874c0.092,0.688-0.157,1.363-0.668,1.826l-2.354,1.441l-0.7,0.428 l0.032,0.819l0.818,21.267c0.016,0.408-0.132,0.794-0.414,1.088C65.788,69.438,65.408,69.6,65,69.6s-0.788-0.162-1.071-0.456 c-0.283-0.294-0.43-0.681-0.414-1.088l0.818-21.267l0.032-0.819l-0.7-0.428L61.31,44.1c-0.511-0.463-0.759-1.139-0.666-1.839 L62.237,29.4H65H67.763 M69,28h-4h-4l-1.745,14.089c-0.159,1.189,0.304,2.377,1.226,3.146l2.452,1.501l-0.818,21.267 C62.052,69.639,63.362,71,65,71s2.948-1.361,2.885-2.998l-0.818-21.267l2.452-1.501c0.922-0.769,1.385-1.956,1.226-3.146L69,28 L69,28z"/></g><g><path fill="#472b29" d="M63 28L63 41 64 41 64.65 28z"/></g><g><path fill="#472b29" d="M65.35 28L66 41 67 41 67 28z"/></g><g><path fill="#ea5167" d="M51.952,37H28.736l-0.356,1.836c-1.727,7.293,3.748,13.066,9.861,13.753l4.486-0.039 c6.026-0.829,11.281-6.532,9.581-13.714L51.952,37z"/></g><g><path fill="#472b29" d="M40.5,37h-12c-0.276,0-0.5-0.224-0.5-0.5s0.224-0.5,0.5-0.5h12c0.276,0,0.5,0.224,0.5,0.5 S40.776,37,40.5,37z"/></g><g><path fill="#472b29" d="M46.5,37h-3c-0.276,0-0.5-0.224-0.5-0.5s0.224-0.5,0.5-0.5h3c0.276,0,0.5,0.224,0.5,0.5 S46.776,37,46.5,37z"/></g><g><path fill="#472b29" d="M52.5,37h-3c-0.276,0-0.5-0.224-0.5-0.5s0.224-0.5,0.5-0.5h3c0.276,0,0.5,0.224,0.5,0.5 S52.776,37,52.5,37z"/></g><g><path fill="#472b29" d="M37,49.5c-0.069,0-0.14-0.015-0.207-0.045c-2.334-1.063-4.02-2.687-4.873-4.696 c-0.108-0.254,0.011-0.548,0.265-0.655c0.251-0.108,0.548,0.011,0.656,0.265c0.754,1.775,2.264,3.22,4.366,4.177 c0.251,0.114,0.362,0.411,0.248,0.662C37.371,49.392,37.189,49.5,37,49.5z"/></g><g><path fill="#472b29" d="M31.837,42.962c-0.253,0-0.47-0.191-0.497-0.448c-0.093-0.89-0.035-1.775,0.173-2.632 c0.065-0.269,0.337-0.427,0.604-0.368c0.269,0.065,0.433,0.336,0.368,0.604c-0.181,0.745-0.231,1.517-0.151,2.292 c0.029,0.274-0.17,0.521-0.445,0.549C31.872,42.961,31.854,42.962,31.837,42.962z"/></g></svg>