<?xml version="1.0" encoding="utf-8"?>
<!-- Generator: Adobe Illustrator 15.0.2, SVG Export Plug-In . SVG Version: 6.00 Build 0)  -->
<!DOCTYPE svg PUBLIC "-//W3C//DTD SVG 1.1//EN" "http://www.w3.org/Graphics/SVG/1.1/DTD/svg11.dtd">
<svg version="1.1" id="Calque_1" xmlns="http://www.w3.org/2000/svg" xmlns:xlink="http://www.w3.org/1999/xlink" x="0px" y="0px"
	 width="36px" height="1152px" viewBox="0 0 36 1152" enable-background="new 0 0 36 1152" xml:space="preserve">
<g>
	<rect y="0.001" fill="#607D8B" fill-opacity="0" width="36" height="1152"/>
	<g>
		<path fill="#009688" d="M18.001,442c4.411,0,8,3.589,8,8c0,4.41-3.589,8-8,8c-4.41,0-8-3.59-8-8
			C10.001,445.589,13.591,442,18.001,442 M18.001,441c-4.972,0-9,4.028-9,9c0,4.971,4.028,9,9,9c4.971,0,9-4.029,9-9
			C27.001,445.028,22.972,441,18.001,441L18.001,441z"/>
	</g>
	<g>
		<path fill="#009688" d="M18.001,405c4.963,0,9,4.036,9,9c0,4.963-4.037,9-9,9s-9-4.037-9-9C9.001,409.036,13.038,405,18.001,405
			 M18.001,404c-5.523,0-10,4.477-10,10c0,5.522,4.477,10,10,10s10-4.478,10-10C28.001,408.476,23.524,404,18.001,404L18.001,404z"
			/>
	</g>
	<g>
		<path fill="#009688" d="M18.001,368c5.514,0,10,4.485,10,10c0,5.514-4.486,10-10,10s-10-4.486-10-10
			C8.001,372.485,12.487,368,18.001,368 M18.001,367c-6.076,0-11,4.924-11,11c0,6.075,4.924,11,11,11s11-4.925,11-11
			C29.001,371.924,24.077,367,18.001,367L18.001,367z"/>
	</g>
	<g>
		<path fill="#009688" d="M18.001,331c6.065,0,11,4.935,11,11c0,6.064-4.935,11-11,11c-6.064,0-11-4.936-11-11
			C7.001,335.934,11.935,331,18.001,331 M18.001,330c-6.63,0-12,5.37-12,12c0,6.629,5.37,12,12,12c6.629,0,12-5.371,12-12
			C30.001,335.37,24.63,330,18.001,330L18.001,330z"/>
	</g>
	<g opacity="0.8">
		<path fill="#009688" d="M18.001,294c6.617,0,12,5.383,12,12c0,6.616-5.383,12-12,12s-12-5.384-12-12
			C6.001,299.383,11.384,294,18.001,294 M18.001,293c-7.183,0-13,5.817-13,13c0,7.182,5.817,13,13,13c7.182,0,13-5.818,13-13
			C31.001,298.817,25.183,293,18.001,293L18.001,293z"/>
	</g>
	<g opacity="0.6">
		<path fill="#009688" d="M18.001,257c7.168,0,13,5.831,13,13c0,7.168-5.832,13-13,13s-13-5.832-13-13
			C5.001,262.831,10.833,257,18.001,257 M18.001,256c-7.734,0-14,6.266-14,14c0,7.733,6.266,14,14,14s14-6.267,14-14
			C32.001,262.265,25.735,256,18.001,256L18.001,256z"/>
	</g>
	<g opacity="0.4">
		<path fill="#009688" d="M18.001,220c7.721,0,14,6.279,14,14c0,7.72-6.279,14-14,14c-7.72,0-14-6.28-14-14
			C4.001,226.279,10.281,220,18.001,220 M18.001,219c-8.287,0-15,6.713-15,15c0,8.286,6.713,15,15,15s15-6.714,15-15
			C33.001,225.713,26.288,219,18.001,219L18.001,219z"/>
	</g>
	<g opacity="0.2">
		<path fill="#009688" d="M18.001,183c8.271,0,15,6.729,15,15c0,8.271-6.729,15-15,15s-15-6.729-15-15
			C3.001,189.728,9.729,183,18.001,183 M18.001,182c-8.841,0-16,7.16-16,16s7.159,16,16,16c8.84,0,16-7.16,16-16
			S26.841,182,18.001,182L18.001,182z"/>
	</g>
	<g>
		<path fill="#009688" d="M18.001,481c2.758,0,5,2.242,5,5c0,2.757-2.242,5-5,5c-2.757,0-5-2.243-5-5
			C13.001,483.242,15.244,481,18.001,481 M18.001,478c-4.419,0-8,3.581-8,8c0,4.418,3.581,8,8,8c4.418,0,8-3.582,8-8
			C26.001,481.581,22.419,478,18.001,478L18.001,478z"/>
	</g>
	<g>
		<path fill="#009688" d="M18.001,520c1.104,0,2,0.896,2,2c0,1.103-0.896,2-2,2s-2-0.897-2-2C16.001,520.896,16.897,520,18.001,520
			 M18.001,515c-3.865,0-7,3.135-7,7c0,3.864,3.135,7,7,7c3.866,0,7-3.136,7-7C25.001,518.135,21.867,515,18.001,515L18.001,515z"/>
	</g>
	<g>
		<path fill="#009688" d="M18.001,552c-3.313,0-6,2.688-6,6c0,3.312,2.688,6,6,6s6-2.688,6-6C24.001,554.687,21.313,552,18.001,552
			L18.001,552z"/>
	</g>
	<path fill="#009688" d="M18.001,589c-2.761,0-5,2.238-5,5c0,2.76,2.239,5,5,5c2.762,0,5-2.24,5-5
		C23.001,591.239,20.763,589,18.001,589L18.001,589z"/>
	<path fill="#009688" d="M18.001,626c-2.209,0-4,1.793-4,4c0,2.205,1.791,4,4,4s4-1.795,4-4C22.001,627.793,20.21,626,18.001,626
		L18.001,626z"/>
	<path fill="#009688" d="M18.001,873c-4.971,0-9,4.027-9,9c0,4.971,4.029,9,9,9c4.973,0,9-4.029,9-9
		C27.001,877.028,22.972,873,18.001,873L18.001,873z"/>
	<path fill="#009688" d="M18.001,908c-5.523,0-10,4.477-10,10c0,5.521,4.477,10,10,10c5.524,0,10-4.479,10-10
		C28.001,912.477,23.525,908,18.001,908L18.001,908z"/>
	<path fill="#009688" d="M18.001,943c-6.076,0-11,4.924-11,11c0,6.074,4.924,11,11,11c6.077,0,11-4.926,11-11
		C29.001,947.924,24.078,943,18.001,943L18.001,943z"/>
	<path fill="#009688" d="M18.001,978c-6.629,0-12,5.369-12,12c0,6.629,5.371,12,12,12c6.631,0,12-5.371,12-12
		C30.001,983.369,24.632,978,18.001,978L18.001,978z"/>
	<path opacity="0.8" fill="#009688" enable-background="new    " d="M18.001,1013c-7.182,0-13,5.816-13,13c0,7.182,5.818,13,13,13
		c7.184,0,13-5.818,13-13C31.001,1018.817,25.183,1013,18.001,1013L18.001,1013z"/>
	<path opacity="0.6" fill="#009688" enable-background="new    " d="M18.001,1048c-7.734,0-14,6.266-14,14c0,7.732,6.266,14,14,14
		c7.735,0,14-6.268,14-14C32.001,1054.266,25.736,1048,18.001,1048L18.001,1048z"/>
	<path opacity="0.4" fill="#009688" enable-background="new    " d="M18.001,1083c-8.287,0-15,6.713-15,15c0,8.285,6.713,15,15,15
		c8.288,0,15-6.715,15-15C33.001,1089.713,26.289,1083,18.001,1083L18.001,1083z"/>
	<path opacity="0.2" fill="#009688" enable-background="new    " d="M18.001,1118c-8.84,0-16,7.158-16,16c0,8.84,7.16,16,16,16
		c8.842,0,16-7.16,16-16C34.001,1125.158,26.843,1118,18.001,1118L18.001,1118z"/>
	<path fill="#009688" d="M18.001,854c4.42,0,8-3.582,8-8c0-4.42-3.581-8-8-8c-4.418,0-8,3.58-8,8
		C10.001,850.418,13.583,854,18.001,854L18.001,854z"/>
	<path fill="#009688" d="M18.001,817c3.866,0,7-3.137,7-7c0-3.865-3.134-7-7-7c-3.865,0-7,3.135-7,7
		C11.001,813.864,14.136,817,18.001,817L18.001,817z"/>
	<path fill="#009688" d="M18.001,780c3.313,0,6-2.689,6-6c0-3.313-2.688-6-6-6s-6,2.688-6,6C12.001,777.311,14.687,780,18.001,780
		L18.001,780z"/>
	<path fill="#009688" d="M18.001,743c2.762,0,5-2.24,5-5c0-2.762-2.238-5-5-5c-2.761,0-5,2.238-5,5
		C13.001,740.76,15.24,743,18.001,743L18.001,743z"/>
	<path fill="#009688" d="M18.001,706c2.209,0,4-1.795,4-4c0-2.207-1.791-4-4-4s-4,1.793-4,4C14.001,704.205,15.792,706,18.001,706
		L18.001,706z"/>
	<path fill="#009688" d="M18.001,663c-1.656,0-3,1.344-3,3c0,1.654,1.344,3,3,3c1.657,0,3-1.346,3-3
		C21.001,664.344,19.658,663,18.001,663L18.001,663z"/>
</g>
</svg>
