<?xml version="1.0" encoding="utf-8"?>
<!-- Generator: Adobe Illustrator 15.0.2, SVG Export Plug-In . SVG Version: 6.00 Build 0)  -->
<!DOCTYPE svg PUBLIC "-//W3C//DTD SVG 1.1//EN" "http://www.w3.org/Graphics/SVG/1.1/DTD/svg11.dtd">
<svg version="1.1" id="Calque_1" xmlns="http://www.w3.org/2000/svg" xmlns:xlink="http://www.w3.org/1999/xlink" x="0px" y="0px"
	 width="36px" height="360px" viewBox="0 0 36 360" enable-background="new 0 0 36 360" xml:space="preserve">
<g>
	<rect y="0" fill="#607D8B" fill-opacity="0" width="36" height="360"/>
	<path fill="none" stroke="#F44336" stroke-width="3" stroke-linecap="round" stroke-linejoin="round" stroke-miterlimit="10" d="
		M9.455,152.348c2.175-1.83,4.981-2.934,8.045-2.934c0.192,0,0.384,0.004,0.574,0.014"/>
	<path fill="none" stroke="#F44336" stroke-width="3" stroke-linecap="round" stroke-linejoin="round" stroke-miterlimit="10" d="
		M9.455,188.348c2.175-1.83,4.981-2.935,8.045-2.935c0.192,0,0.384,0.005,0.574,0.015"/>
	<path fill="none" stroke="#F44336" stroke-width="3" stroke-linecap="round" stroke-linejoin="round" stroke-miterlimit="10" d="
		M5.036,196.965c0.26-3.453,1.922-6.517,4.419-8.617"/>
	<path fill="none" stroke="#F44336" stroke-width="3" stroke-linecap="round" stroke-linejoin="round" stroke-miterlimit="10" d="
		M9.455,224.348c2.175-1.83,4.981-2.935,8.045-2.935c0.192,0,0.384,0.005,0.574,0.015"/>
	<path fill="none" stroke="#F44336" stroke-width="3" stroke-linecap="round" stroke-linejoin="round" stroke-miterlimit="10" d="
		M5.036,232.965c0.26-3.453,1.922-6.517,4.419-8.617"/>
	<path fill="none" stroke="#F44336" stroke-width="3" stroke-linecap="round" stroke-linejoin="round" stroke-miterlimit="10" d="
		M8.476,242.563C6.323,240.317,5,237.27,5,233.914c0-0.318,0.013-0.636,0.036-0.948"/>
	<path fill="none" stroke="#F44336" stroke-width="3" stroke-linecap="round" stroke-linejoin="round" stroke-miterlimit="10" d="
		M9.455,260.348c2.175-1.83,4.981-2.935,8.045-2.935c0.192,0,0.384,0.005,0.574,0.015"/>
	<path fill="none" stroke="#F44336" stroke-width="3" stroke-linecap="round" stroke-linejoin="round" stroke-miterlimit="10" d="
		M5.036,268.965c0.26-3.453,1.922-6.517,4.419-8.617"/>
	<path fill="none" stroke="#F44336" stroke-width="3" stroke-linecap="round" stroke-linejoin="round" stroke-miterlimit="10" d="
		M8.476,278.563C6.323,276.317,5,273.27,5,269.914c0-0.318,0.013-0.636,0.036-0.948"/>
	<path fill="none" stroke="#F44336" stroke-width="3" stroke-linecap="round" stroke-linejoin="round" stroke-miterlimit="10" d="
		M18.074,282.401c-0.19,0.01-0.381,0.014-0.574,0.014c-3.547,0-6.75-1.479-9.024-3.852"/>
	<path fill="none" stroke="#F44336" stroke-width="3" stroke-linecap="round" stroke-linejoin="round" stroke-miterlimit="10" d="
		M9.455,296.348c2.175-1.83,4.981-2.935,8.045-2.935c0.192,0,0.384,0.005,0.574,0.015"/>
	<path fill="none" stroke="#F44336" stroke-width="3" stroke-linecap="round" stroke-linejoin="round" stroke-miterlimit="10" d="
		M5.036,304.965c0.26-3.453,1.922-6.517,4.419-8.617"/>
	<path fill="none" stroke="#F44336" stroke-width="3" stroke-linecap="round" stroke-linejoin="round" stroke-miterlimit="10" d="
		M8.476,314.563C6.323,312.317,5,309.27,5,305.914c0-0.318,0.013-0.636,0.036-0.948"/>
	<path fill="none" stroke="#F44336" stroke-width="3" stroke-linecap="round" stroke-linejoin="round" stroke-miterlimit="10" d="
		M18.074,318.401c-0.19,0.01-0.381,0.014-0.574,0.014c-3.547,0-6.75-1.479-9.024-3.852"/>
	<path fill="none" stroke="#F44336" stroke-width="3" stroke-linecap="round" stroke-linejoin="round" stroke-miterlimit="10" d="
		M27.067,313.959c-2.178,2.588-5.387,4.278-8.993,4.44"/>
	<path fill="none" stroke="#F44336" stroke-width="3" stroke-linecap="round" stroke-linejoin="round" stroke-miterlimit="10" d="
		M9.455,332.348c2.175-1.83,4.981-2.935,8.045-2.935c0.192,0,0.384,0.005,0.574,0.015"/>
	<path fill="none" stroke="#F44336" stroke-width="3" stroke-linecap="round" stroke-linejoin="round" stroke-miterlimit="10" d="
		M5.036,340.965c0.26-3.453,1.922-6.517,4.419-8.617"/>
	<path fill="none" stroke="#F44336" stroke-width="3" stroke-linecap="round" stroke-linejoin="round" stroke-miterlimit="10" d="
		M8.476,350.563C6.323,348.317,5,345.27,5,341.914c0-0.318,0.013-0.636,0.036-0.948"/>
	<path fill="none" stroke="#F44336" stroke-width="3" stroke-linecap="round" stroke-linejoin="round" stroke-miterlimit="10" d="
		M18.074,354.401c-0.19,0.01-0.381,0.014-0.574,0.014c-3.547,0-6.75-1.479-9.024-3.852"/>
	<path fill="none" stroke="#F44336" stroke-width="3" stroke-linecap="round" stroke-linejoin="round" stroke-miterlimit="10" d="
		M27.067,349.959c-2.178,2.588-5.387,4.278-8.993,4.44"/>
	<path fill="none" stroke="#F44336" stroke-width="3" stroke-linecap="round" stroke-linejoin="round" stroke-miterlimit="10" d="
		M29.968,340.997c0.021,0.304,0.033,0.607,0.033,0.916c0,3.064-1.104,5.871-2.934,8.046"/>
	
		<line fill="none" stroke="#F44336" stroke-width="3" stroke-linecap="round" stroke-linejoin="round" stroke-miterlimit="10" x1="18.104" y1="341.92" x2="13.574" y2="347.776"/>
	
		<line fill="none" stroke="#F44336" stroke-width="3" stroke-linecap="round" stroke-linejoin="round" stroke-miterlimit="10" x1="22.513" y1="336.226" x2="18.104" y2="341.92"/>
	
		<line fill="none" stroke="#F44336" stroke-width="3" stroke-linecap="round" stroke-linejoin="round" stroke-miterlimit="10" x1="18.042" y1="341.92" x2="22.574" y2="347.776"/>
	
		<line fill="none" stroke="#F44336" stroke-width="3" stroke-linecap="round" stroke-linejoin="round" stroke-miterlimit="10" x1="13.636" y1="336.226" x2="18.042" y2="341.92"/>
	
		<line fill="none" stroke="#F44336" stroke-width="3" stroke-linecap="round" stroke-linejoin="round" stroke-miterlimit="10" x1="18.104" y1="305.92" x2="13.574" y2="311.776"/>
	
		<line fill="none" stroke="#F44336" stroke-width="3" stroke-linecap="round" stroke-linejoin="round" stroke-miterlimit="10" x1="22.513" y1="300.226" x2="18.104" y2="305.92"/>
	
		<line fill="none" stroke="#F44336" stroke-width="3" stroke-linecap="round" stroke-linejoin="round" stroke-miterlimit="10" x1="18.042" y1="305.92" x2="22.574" y2="311.776"/>
	
		<line fill="none" stroke="#F44336" stroke-width="3" stroke-linecap="round" stroke-linejoin="round" stroke-miterlimit="10" x1="13.636" y1="300.226" x2="18.042" y2="305.92"/>
	
		<line fill="none" stroke="#F44336" stroke-width="3" stroke-linecap="round" stroke-linejoin="round" stroke-miterlimit="10" x1="18.104" y1="269.92" x2="13.574" y2="275.776"/>
	
		<line fill="none" stroke="#F44336" stroke-width="3" stroke-linecap="round" stroke-linejoin="round" stroke-miterlimit="10" x1="22.513" y1="264.226" x2="18.104" y2="269.92"/>
	
		<line fill="none" stroke="#F44336" stroke-width="3" stroke-linecap="round" stroke-linejoin="round" stroke-miterlimit="10" x1="18.042" y1="269.92" x2="22.574" y2="275.776"/>
	
		<line fill="none" stroke="#F44336" stroke-width="3" stroke-linecap="round" stroke-linejoin="round" stroke-miterlimit="10" x1="13.636" y1="264.226" x2="18.042" y2="269.92"/>
	
		<line fill="none" stroke="#F44336" stroke-width="3" stroke-linecap="round" stroke-linejoin="round" stroke-miterlimit="10" x1="18.104" y1="233.92" x2="13.574" y2="239.776"/>
	
		<line fill="none" stroke="#F44336" stroke-width="3" stroke-linecap="round" stroke-linejoin="round" stroke-miterlimit="10" x1="22.513" y1="228.226" x2="18.104" y2="233.92"/>
	
		<line fill="none" stroke="#F44336" stroke-width="3" stroke-linecap="round" stroke-linejoin="round" stroke-miterlimit="10" x1="18.042" y1="233.92" x2="22.574" y2="239.776"/>
	
		<line fill="none" stroke="#F44336" stroke-width="3" stroke-linecap="round" stroke-linejoin="round" stroke-miterlimit="10" x1="13.636" y1="228.226" x2="18.042" y2="233.92"/>
	
		<line fill="none" stroke="#F44336" stroke-width="3" stroke-linecap="round" stroke-linejoin="round" stroke-miterlimit="10" x1="18.104" y1="197.92" x2="13.574" y2="203.776"/>
	
		<line fill="none" stroke="#F44336" stroke-width="3" stroke-linecap="round" stroke-linejoin="round" stroke-miterlimit="10" x1="22.513" y1="192.226" x2="18.104" y2="197.92"/>
	
		<line fill="none" stroke="#F44336" stroke-width="3" stroke-linecap="round" stroke-linejoin="round" stroke-miterlimit="10" x1="18.042" y1="197.92" x2="22.574" y2="203.776"/>
	
		<line fill="none" stroke="#F44336" stroke-width="3" stroke-linecap="round" stroke-linejoin="round" stroke-miterlimit="10" x1="13.636" y1="192.226" x2="18.042" y2="197.92"/>
	
		<line fill="none" stroke="#F44336" stroke-width="3" stroke-linecap="round" stroke-linejoin="round" stroke-miterlimit="10" x1="18.104" y1="161.92" x2="13.574" y2="167.776"/>
	
		<line fill="none" stroke="#F44336" stroke-width="3" stroke-linecap="round" stroke-linejoin="round" stroke-miterlimit="10" x1="22.513" y1="156.226" x2="18.104" y2="161.92"/>
	
		<line fill="none" stroke="#F44336" stroke-width="3" stroke-linecap="round" stroke-linejoin="round" stroke-miterlimit="10" x1="18.042" y1="161.92" x2="22.574" y2="167.776"/>
	
		<line fill="none" stroke="#F44336" stroke-width="3" stroke-linecap="round" stroke-linejoin="round" stroke-miterlimit="10" x1="13.636" y1="156.226" x2="18.042" y2="161.92"/>
	
		<line fill="none" stroke="#F44336" stroke-width="3" stroke-linecap="round" stroke-linejoin="round" stroke-miterlimit="10" x1="18.104" y1="125.92" x2="13.574" y2="131.776"/>
	
		<line fill="none" stroke="#F44336" stroke-width="3" stroke-linecap="round" stroke-linejoin="round" stroke-miterlimit="10" x1="22.513" y1="120.226" x2="18.104" y2="125.92"/>
	
		<line fill="none" stroke="#F44336" stroke-width="3" stroke-linecap="round" stroke-linejoin="round" stroke-miterlimit="10" x1="18.042" y1="125.92" x2="22.574" y2="131.776"/>
	
		<line fill="none" stroke="#F44336" stroke-width="3" stroke-linecap="round" stroke-linejoin="round" stroke-miterlimit="10" x1="13.636" y1="120.226" x2="18.042" y2="125.92"/>
	
		<line fill="none" stroke="#F44336" stroke-width="3" stroke-linecap="round" stroke-linejoin="round" stroke-miterlimit="10" x1="18.104" y1="89.92" x2="13.574" y2="95.776"/>
	
		<line fill="none" stroke="#F44336" stroke-width="3" stroke-linecap="round" stroke-linejoin="round" stroke-miterlimit="10" x1="18.042" y1="89.92" x2="22.574" y2="95.776"/>
	
		<line fill="none" stroke="#F44336" stroke-width="3" stroke-linecap="round" stroke-linejoin="round" stroke-miterlimit="10" x1="13.636" y1="84.226" x2="18.042" y2="89.92"/>
	
		<line fill="none" stroke="#F44336" stroke-width="3" stroke-linecap="round" stroke-linejoin="round" stroke-miterlimit="10" x1="18.042" y1="53.92" x2="22.574" y2="59.776"/>
	
		<line fill="none" stroke="#F44336" stroke-width="3" stroke-linecap="round" stroke-linejoin="round" stroke-miterlimit="10" x1="13.636" y1="48.226" x2="18.042" y2="53.92"/>
	
		<line fill="none" stroke="#F44336" stroke-width="3" stroke-linecap="round" stroke-linejoin="round" stroke-miterlimit="10" x1="18.042" y1="17.92" x2="22.574" y2="23.776"/>
</g>
</svg>
