<svg xmlns="http://www.w3.org/2000/svg" xmlns:xlink="http://www.w3.org/1999/xlink" viewBox="0 0 26 26" fill="#080808">
  <path d="M13 0C9.675781 0 7 2.675781 7 6L7 10C4.800781 10 3 11.800781 3 14L3 22C3 24.199219 4.800781 26 7 26L19 26C21.199219 26 23 24.199219 23 22L23 14C23 11.800781 21.199219 10 19 10L19 6C19 2.675781 16.324219 0 13 0 Z M 13 2C15.277344 2 17 3.722656 17 6L17 10L9 10L9 6C9 3.722656 10.722656 2 13 2 Z M 13 15C14.101563 15 15 15.898438 15 17C15 17.699219 14.601563 18.386719 14 18.6875L14 21C14 21.601563 13.601563 22 13 22C12.398438 22 12 21.601563 12 21L12 18.6875C11.398438 18.386719 11 17.699219 11 17C11 15.898438 11.898438 15 13 15Z" fill="#080808" />
</svg>