<svg xmlns="http://www.w3.org/2000/svg" xmlns:xlink="http://www.w3.org/1999/xlink" viewBox="0 0 26 26" fill="#F61313">
  <path d="M16.003906 16.417969C16.003906 16.417969 14.628906 16.105469 15.277344 14.738281C16.082031 13.660156 16.570313 12.4375 16.609375 12.035156C16.609375 12.035156 17.84375 11.0625 17.917969 9.601563C17.992188 8.144531 17.644531 8.078125 17.644531 8.078125C18.164063 6.488281 18.335938 0.523438 14.503906 1.238281C13.867188 -0.015625 9.867188 -0.996094 8.003906 2.339844C7.074219 4 6.726563 6.269531 7.453125 8.121094C7.425781 8.257813 7.195313 7.984375 7.113281 8.839844C7.03125 9.664063 7.402344 10.847656 7.808594 11.398438C7.984375 11.628906 8.265625 11.796875 8.460938 11.882813C8.460938 11.882813 8.703125 13.351563 9.851563 14.738281C10.113281 15.835938 9.023438 16.417969 9.023438 16.417969C5.410156 17.113281 2.089844 19.117188 2.089844 21.289063C2.089844 21.449219 2.089844 22.96875 2.089844 22.96875C2.089844 25.324219 7.574219 25.828125 12.511719 25.828125C17.445313 25.828125 22.894531 24.410156 22.894531 22.96875C22.894531 22.96875 22.894531 21.449219 22.894531 21.289063C22.894531 19.117188 19.613281 17.113281 16.003906 16.417969 Z M 19 24L14 24L14 21L19 21Z" fill="#F61313" />
</svg>