<?xml version="1.0" encoding="utf-8"?>
<!-- Generator: Adobe Illustrator 15.0.2, SVG Export Plug-In . SVG Version: 6.00 Build 0)  -->
<!DOCTYPE svg PUBLIC "-//W3C//DTD SVG 1.1//EN" "http://www.w3.org/Graphics/SVG/1.1/DTD/svg11.dtd">
<svg version="1.1" id="Calque_1" xmlns="http://www.w3.org/2000/svg" xmlns:xlink="http://www.w3.org/1999/xlink" x="0px" y="0px"
	 width="512px" height="512px" viewBox="0 0 512 512" enable-background="new 0 0 512 512" xml:space="preserve">
<g>
	<path fill="#2A2A2A" d="M467.561,418.102c0-7.008-0.557-14.375-1.672-22.1c-1.117-7.725-2.627-15.889-4.541-24.49v0.479
		c-2.709-12.582-7.844-23.534-15.41-32.853c-7.563-9.315-16.684-17.283-27.355-23.891c-10.674-6.611-22.338-12.105-35-16.486
		c-12.663-4.377-25.368-8.004-38.11-10.871c-0.316,7.646-0.553,16.125-0.713,25.445s-0.279,19.074-0.361,29.268
		c-0.078,10.195-0.117,20.51-0.117,30.94v30.702l-77.409-68.568c10.352-7.168,19.43-15.092,27.233-23.772
		c7.803-8.681,13.777-18.038,17.922-28.072c2.07-5.099,3.66-9.994,4.777-14.692c1.115-4.701,1.672-9.358,1.672-13.978v-33.688
		c0.16-0.16,0.797-0.756,1.91-1.792c1.119-1.036,2.391-2.27,3.824-3.704c1.433-1.434,2.944-2.908,4.541-4.42
		c1.594-1.514,2.866-2.908,3.821-4.182c8.918-10.352,16.209-21.9,21.861-34.642c5.656-12.742,9.359-25.882,11.109-39.422
		c0.159-1.592,0.397-3.424,0.719-5.496c0.156-1.752,0.313-3.862,0.475-6.332c0.16-2.47,0.238-5.136,0.238-8.004
		c0-3.186-0.117-6.65-0.359-10.392c-0.237-3.744-0.754-7.526-1.551-11.348c-1.594-7.646-3.703-14.972-6.332-21.98
		c-2.627-7.008-6.012-13.778-10.15-20.308c-11.469,10.99-24.771,19.59-39.901,25.802c-15.129,6.212-31.219,9.318-48.262,9.318
		c-8.123,0-15.926-0.638-23.415-1.912c-7.484-1.274-14.813-3.344-21.979-6.212c-4.142,17.362-11.747,33.05-22.816,47.068
		c-11.068,14.018-24.408,25.166-40.02,33.448c3.664,10.99,7.924,20.746,12.782,29.268c4.86,8.522,9.598,15.57,14.216,21.144
		c0.956,1.274,2.31,2.668,4.062,4.182c1.752,1.512,3.464,2.986,5.136,4.42s3.186,2.668,4.54,3.704s2.112,1.632,2.27,1.792v33.688
		c0,4.62,0.36,9.317,1.076,14.097s2.19,9.877,4.42,15.293c3.982,9.713,9.876,18.952,17.682,27.713
		c7.804,8.76,16.724,16.563,26.76,23.414l-77.172,68.567c0.16-10.192,0.316-20.028,0.478-29.506s0.318-18.876,0.479-28.194
		c0.156-9.314,0.356-18.674,0.596-28.07c0.24-9.396,0.521-19.194,0.838-29.388c-12.902,2.868-25.844,6.532-38.824,10.99
		s-24.966,9.994-35.958,16.604c-10.988,6.61-20.428,14.455-28.312,23.535c-7.884,9.077-13.26,19.67-16.126,31.775l-0.716-0.479
		c-1.91,8.603-3.386,16.687-4.42,24.252c-0.976,7.127-1.476,13.994-1.53,20.625c-0.015,0.377-0.022,0.783-0.022,1.234
		c0,0.52,0.012,1.124,0.03,1.807c0.044,2.854,0.192,5.637,0.446,8.353c0.852,12.57,2.672,31.052,3.974,36.254
		c1.752,7.008,6.938,16.822,11.556,21.442c2.868,2.866,6.771,5.336,11.708,7.404c4.938,2.07,10.234,3.864,15.89,5.376
		c5.652,1.516,11.348,2.828,17.082,3.944c5.732,1.116,10.91,1.99,15.528,2.626c0.798,0.16,1.596,0.28,2.392,0.36
		c0.794,0.078,1.592,0.2,2.388,0.356c8.76,1.436,18.477,2.588,29.148,3.464s21.542,1.554,32.61,2.032
		c11.07,0.478,21.98,0.756,32.732,0.836c10.75,0.08,20.586,0.12,29.506,0.12c0.938,0,1.868-0.014,2.804-0.016
		c1.302,0.004,2.572,0.016,3.888,0.016c6.019,0,11.876-0.046,17.599-0.13c10.455-0.098,20.881-0.242,31.258-0.466
		c18.396-0.398,36.912-1.872,55.547-4.42c3.187-0.479,7.248-0.956,12.187-1.436c4.938-0.476,10.272-1.072,16.008-1.792
		c5.733-0.718,11.666-1.514,17.799-2.39c6.131-0.876,11.945-1.95,17.441-3.224c5.493-1.274,10.473-2.748,14.932-4.421
		c4.461-1.673,7.965-3.624,10.514-5.854c5.414-4.938,11.158-15.229,13.229-22.876c2.069-7.645,4.93-31.059,4.93-39.977
		c0-0.671-0.057-1.073-0.147-1.325C467.508,421.854,467.561,419.994,467.561,418.102z M146.933,131.64
		c12.9-7.964,23.492-18.396,31.776-31.298c8.284-12.902,13.14-27.158,14.574-42.766c0-2.07,0.556-3.942,1.672-5.614
		c1.114-1.672,2.548-2.908,4.3-3.704c1.594-1.116,3.504-1.672,5.733-1.672s4.221,0.558,5.973,1.672
		c7.644,3.822,15.646,6.808,24.012,8.958c8.362,2.15,16.844,3.226,25.443,3.226c14.176,0,27.475-2.708,39.899-8.124
		c12.422-5.416,23.414-12.902,32.969-22.458c-9.555-9.078-20.586-16.326-33.09-21.742c-12.5-5.414-26.155-8.122-40.971-8.122
		l-3.104,0.478c-0.479,0-0.996-0.08-1.556-0.238c-0.558-0.16-0.994-0.24-1.313-0.24c-14.336,0-27.278,2.31-38.824,6.928
		c-11.548,4.62-21.662,11.11-30.344,19.472s-15.966,18.318-21.86,29.864c-5.894,11.548-10.354,24.33-13.38,38.346
		c-0.956,4.3-1.592,8.562-1.91,12.782c-0.317,4.22-0.478,8.164-0.478,11.826c0,2.39,0.04,4.66,0.119,6.81
		C146.655,128.174,146.773,130.046,146.933,131.64z"/>
</g>
</svg>
