<svg xmlns="http://www.w3.org/2000/svg" xmlns:xlink="http://www.w3.org/1999/xlink" viewBox="0 0 24 24" fill="#FFFFFF">
  <path d="M5.237,5h14.762l-3.603,6.486C16.219,11.803,15.884,12,15.521,12H7.348L5.237,5z" opacity=".3" fill="#FFFFFF" />
  <path d="M15.521,13H7.348v-2h8.173l2.778-5H5.237V4h14.762c0.354,0,0.682,0.188,0.862,0.493c0.18,0.306,0.185,0.683,0.012,0.993l-3.603,6.485C16.918,12.605,16.248,13,15.521,13z" fill="#FFFFFF" />
  <path d="M19 17H6.942c-.754 0-1.45-.41-1.816-1.069s-.345-1.467.055-2.107l1.197-1.916L3.084 4.003l-2.071.01-.009-2 3.411-.016 4.206 10.095-1.744 2.791L6.942 15H19V17zM17 18A2 2 0 1 0 17 22 2 2 0 1 0 17 18zM7 18A2 2 0 1 0 7 22 2 2 0 1 0 7 18z" fill="#FFFFFF" />
</svg>